<?xml version="1.0" encoding="UTF-8"?>
<svg width="1200px" height="900px" viewBox="0 0 1200 900" version="1.1" xmlns="http://www.w3.org/2000/svg" xmlns:xlink="http://www.w3.org/1999/xlink">
    <!-- Generator: Sketch 57.1 (83088) - https://sketch.com -->
    <title>AJAX Static</title>
    <desc>Created with Sketch.</desc>
    <g id="AJAX-Static" stroke="none" stroke-width="1" fill="none" fill-rule="evenodd">
        <text font-family="HelveticaNeue, Helvetica Neue" font-size="48" font-weight="normal" fill="#151515">
            <tspan x="63" y="85">AJAX Static</tspan>
        </text>
        <rect id="Rectangle" stroke="#494949" stroke-width="5" x="898" y="189" width="200" height="648"></rect>
        <rect id="Rectangle" stroke="#494949" stroke-width="5" x="63" y="189" width="577" height="632"></rect>
        <text id="Server-(Apache/http-" font-family="HelveticaNeue-Italic, Helvetica Neue" font-size="16" font-style="italic" font-weight="normal" fill="#151515">
            <tspan x="63" y="162">Server (Apache/http-server)</tspan>
        </text>
        <text id="Client-(browser)" font-family="HelveticaNeue-Italic, Helvetica Neue" font-size="16" font-style="italic" font-weight="normal" fill="#151515">
            <tspan x="898" y="162">Client (browser)</tspan>
        </text>
        <g id="Group-2" transform="translate(646.000000, 237.000000)">
            <path id="Line" d="M24.5,17.5 L24.5,27.5 L246.5,27.5 L246.5,31.5 L24.5,31.5 L24.5,41.5 L0.5,29.5 L24.5,17.5 Z" fill="#373737" fill-rule="nonzero"></path>
            <path id="Line" d="M228,45 L252,57 L228,69 L228,59 L-1,59 L-1,55 L228,55 L228,45 Z" fill="#373737" fill-rule="nonzero"></path>
            <text id="GET-/" font-family="HelveticaNeue-Italic, Helvetica Neue" font-size="16" font-style="italic" font-weight="normal" fill="#151515">
                <tspan x="62" y="15">GET /</tspan>
            </text>
        </g>
        <g id="Group-2" transform="translate(645.000000, 577.000000)">
            <path id="Line" d="M24.5,17.5 L24.5,27.5 L246.5,27.5 L246.5,31.5 L24.5,31.5 L24.5,41.5 L0.5,29.5 L24.5,17.5 Z" fill="#373737" fill-rule="nonzero"></path>
            <path id="Line" d="M228,45 L252,57 L228,69 L228,59 L-1,59 L-1,55 L228,55 L228,45 Z" fill="#373737" fill-rule="nonzero"></path>
            <text id="GET-/data" font-family="HelveticaNeue-Italic, Helvetica Neue" font-size="16" font-style="italic" font-weight="normal" fill="#151515">
                <tspan x="62" y="15">GET /data</tspan>
            </text>
        </g>
        <g id="Group-2" transform="translate(646.000000, 407.000000)">
            <path id="Line" d="M24.5,17.5 L24.5,27.5 L246.5,27.5 L246.5,31.5 L24.5,31.5 L24.5,41.5 L0.5,29.5 L24.5,17.5 Z" fill="#373737" fill-rule="nonzero"></path>
            <path id="Line" d="M228,45 L252,57 L228,69 L228,59 L-1,59 L-1,55 L228,55 L228,45 Z" fill="#373737" fill-rule="nonzero"></path>
            <text id="GET-/main.js" font-family="HelveticaNeue-Italic, Helvetica Neue" font-size="16" font-style="italic" font-weight="normal" fill="#151515">
                <tspan x="62" y="15">GET /main.js</tspan>
            </text>
        </g>
        <g id="Group" transform="translate(731.000000, 301.000000)">
            <g id="File" transform="translate(13.000000, 0.000000)" stroke="#979797">
                <rect id="Rectangle" fill="#50E3C2" x="0" y="0" width="48" height="63"></rect>
                <path d="M8.5,9.5 L40.5,9.5" id="Line-2" stroke-linecap="square"></path>
                <path d="M8.5,24.5 L40.5,24.5" id="Line-2" stroke-linecap="square"></path>
                <path d="M8.5,39.5 L40.5,39.5" id="Line-2" stroke-linecap="square"></path>
                <path d="M8.5,54.5 L40.5,54.5" id="Line-2" stroke-linecap="square"></path>
            </g>
            <text id="index.html" font-family="HelveticaNeue-Italic, Helvetica Neue" font-size="16" font-style="italic" font-weight="normal" fill="#151515">
                <tspan x="0.104" y="78">index.html</tspan>
            </text>
        </g>
        <g id="Group" transform="translate(125.000000, 254.000000)">
            <g id="File" transform="translate(13.000000, 0.000000)" stroke="#979797">
                <rect id="Rectangle" fill="#50E3C2" x="0" y="0" width="48" height="63"></rect>
                <path d="M8.5,9.5 L40.5,9.5" id="Line-2" stroke-linecap="square"></path>
                <path d="M8.5,24.5 L40.5,24.5" id="Line-2" stroke-linecap="square"></path>
                <path d="M8.5,39.5 L40.5,39.5" id="Line-2" stroke-linecap="square"></path>
                <path d="M8.5,54.5 L40.5,54.5" id="Line-2" stroke-linecap="square"></path>
            </g>
            <text id="index.html" font-family="HelveticaNeue-Italic, Helvetica Neue" font-size="16" font-style="italic" font-weight="normal" fill="#151515">
                <tspan x="0" y="78">index.html</tspan>
            </text>
        </g>
        <g id="Group" transform="translate(136.000000, 365.000000)">
            <g id="File" transform="translate(2.000000, 0.000000)" stroke="#979797">
                <rect id="Rectangle" fill="#F8E71C" x="0" y="0" width="48" height="63"></rect>
                <path d="M8.5,9.5 L40.5,9.5" id="Line-2" stroke-linecap="square"></path>
                <path d="M8.5,24.5 L40.5,24.5" id="Line-2" stroke-linecap="square"></path>
                <path d="M8.5,39.5 L40.5,39.5" id="Line-2" stroke-linecap="square"></path>
                <path d="M8.5,54.5 L40.5,54.5" id="Line-2" stroke-linecap="square"></path>
            </g>
            <text id="main.js" font-family="HelveticaNeue-Italic, Helvetica Neue" font-size="16" font-style="italic" font-weight="normal" fill="#151515">
                <tspan x="0.96" y="78">main.js</tspan>
            </text>
        </g>
        <g id="Group" transform="translate(136.000000, 365.000000)">
            <g id="File" transform="translate(2.000000, 0.000000)" stroke="#979797">
                <rect id="Rectangle" fill="#F8E71C" x="0" y="0" width="48" height="63"></rect>
                <path d="M8.5,9.5 L40.5,9.5" id="Line-2" stroke-linecap="square"></path>
                <path d="M8.5,24.5 L40.5,24.5" id="Line-2" stroke-linecap="square"></path>
                <path d="M8.5,39.5 L40.5,39.5" id="Line-2" stroke-linecap="square"></path>
                <path d="M8.5,54.5 L40.5,54.5" id="Line-2" stroke-linecap="square"></path>
            </g>
            <text id="main.js" font-family="HelveticaNeue-Italic, Helvetica Neue" font-size="16" font-style="italic" font-weight="normal" fill="#151515">
                <tspan x="0.96" y="78">main.js</tspan>
            </text>
        </g>
        <g id="Group" transform="translate(745.000000, 470.000000)">
            <g id="File" transform="translate(2.000000, 0.000000)" stroke="#979797">
                <rect id="Rectangle" fill="#F8E71C" x="0" y="0" width="48" height="63"></rect>
                <path d="M8.5,9.5 L40.5,9.5" id="Line-2" stroke-linecap="square"></path>
                <path d="M8.5,24.5 L40.5,24.5" id="Line-2" stroke-linecap="square"></path>
                <path d="M8.5,39.5 L40.5,39.5" id="Line-2" stroke-linecap="square"></path>
                <path d="M8.5,54.5 L40.5,54.5" id="Line-2" stroke-linecap="square"></path>
            </g>
            <text id="main.js" font-family="HelveticaNeue-Italic, Helvetica Neue" font-size="16" font-style="italic" font-weight="normal" fill="#151515">
                <tspan x="0.96" y="78">main.js</tspan>
            </text>
        </g>
        <g id="Group" transform="translate(130.000000, 472.000000)">
            <g id="File" transform="translate(8.000000, 0.000000)" stroke="#979797">
                <rect id="Rectangle" fill="#B8E986" x="0" y="0" width="48" height="63"></rect>
                <path d="M8.5,9.5 L40.5,9.5" id="Line-2" stroke-linecap="square"></path>
                <path d="M8.5,24.5 L40.5,24.5" id="Line-2" stroke-linecap="square"></path>
                <path d="M8.5,39.5 L40.5,39.5" id="Line-2" stroke-linecap="square"></path>
                <path d="M8.5,54.5 L40.5,54.5" id="Line-2" stroke-linecap="square"></path>
            </g>
            <text id="logo.png" font-family="HelveticaNeue-Italic, Helvetica Neue" font-size="16" font-style="italic" font-weight="normal" fill="#151515">
                <tspan x="0.44" y="78">logo.png</tspan>
            </text>
        </g>
        <g id="Group" transform="translate(736.000000, 641.000000)">
            <g id="File" transform="translate(13.000000, 0.000000)" stroke="#979797">
                <rect id="Rectangle" fill="#E8C6EF" x="0" y="0" width="48" height="63"></rect>
                <path d="M8.5,9.5 L40.5,9.5" id="Line-2" stroke-linecap="square"></path>
                <path d="M8.5,24.5 L40.5,24.5" id="Line-2" stroke-linecap="square"></path>
                <path d="M8.5,39.5 L40.5,39.5" id="Line-2" stroke-linecap="square"></path>
                <path d="M8.5,54.5 L40.5,54.5" id="Line-2" stroke-linecap="square"></path>
            </g>
            <text id="items.json" font-family="HelveticaNeue-Italic, Helvetica Neue" font-size="16" font-style="italic" font-weight="normal" fill="#151515">
                <tspan x="0.856" y="78">items.json</tspan>
            </text>
        </g>
        <g id="Group" transform="translate(125.000000, 594.000000)">
            <g id="File" transform="translate(13.000000, 0.000000)" stroke="#979797">
                <rect id="Rectangle" fill="#E8C6EF" x="0" y="0" width="48" height="63"></rect>
                <path d="M8.5,9.5 L40.5,9.5" id="Line-2" stroke-linecap="square"></path>
                <path d="M8.5,24.5 L40.5,24.5" id="Line-2" stroke-linecap="square"></path>
                <path d="M8.5,39.5 L40.5,39.5" id="Line-2" stroke-linecap="square"></path>
                <path d="M8.5,54.5 L40.5,54.5" id="Line-2" stroke-linecap="square"></path>
            </g>
            <text id="items.json" font-family="HelveticaNeue-Italic, Helvetica Neue" font-size="16" font-style="italic" font-weight="normal" fill="#151515">
                <tspan x="0.856" y="78">items.json</tspan>
            </text>
        </g>
        <path d="M633.5,624.5 L189.5,624.5" id="Line-4" stroke="#979797" stroke-linecap="square"></path>
        <g id="Group-3" transform="translate(945.000000, 208.000000)">
            <rect id="Rectangle" stroke="#979797" x="0" y="0" width="106" height="157"></rect>
            <text id="Title" font-family="HelveticaNeue-Bold, Helvetica Neue" font-size="16" font-weight="bold" fill="#151515">
                <tspan x="9" y="25">Title</tspan>
            </text>
            <text id="Lorem-ipsum-dolor-si" font-family="HelveticaNeue, Helvetica Neue" font-size="6" font-weight="normal" fill="#151515">
                <tspan x="9" y="44">Lorem ipsum dolor </tspan>
                <tspan x="9" y="51">sit amet, </tspan>
                <tspan x="9" y="58">consectetur </tspan>
                <tspan x="9" y="65">adipisicing elit. </tspan>
            </text>
            <text id="Items" font-family="HelveticaNeue-Bold, Helvetica Neue" font-size="6" font-weight="bold" fill="#151515">
                <tspan x="9" y="81">Items</tspan>
            </text>
            <rect id="Rectangle" fill="#D8D8D8" x="9" y="91" width="88" height="48"></rect>
        </g>
        <g id="Group-3" transform="translate(945.000000, 596.000000)">
            <rect id="Rectangle" stroke="#979797" x="0" y="0" width="106" height="157"></rect>
            <text id="Title" font-family="HelveticaNeue-Bold, Helvetica Neue" font-size="16" font-weight="bold" fill="#151515">
                <tspan x="9" y="25">Title</tspan>
            </text>
            <text id="Lorem-ipsum-dolor-si" font-family="HelveticaNeue, Helvetica Neue" font-size="6" font-weight="normal" fill="#151515">
                <tspan x="9" y="44">Lorem ipsum dolor </tspan>
                <tspan x="9" y="51">sit amet, </tspan>
                <tspan x="9" y="58">consectetur </tspan>
                <tspan x="9" y="65">adipisicing elit. </tspan>
            </text>
            <text id="Items" font-family="HelveticaNeue-Bold, Helvetica Neue" font-size="6" font-weight="bold" fill="#151515">
                <tspan x="9" y="81">Items</tspan>
            </text>
            <rect id="Rectangle" fill="#D8D8D8" x="9" y="91" width="88" height="48"></rect>
        </g>
        <text id="*-Item-1-*-Item-2-*" font-family="HelveticaNeue, Helvetica Neue" font-size="8" font-weight="normal" fill="#151515">
            <tspan x="959" y="699">* Item 1</tspan>
            <tspan x="959" y="709">* Item 2</tspan>
            <tspan x="959" y="719">* Item 3</tspan>
            <tspan x="959" y="729">* Item 4</tspan>
            <tspan x="959" y="739"></tspan>
        </text>
        <path d="M633.5,274.5 L189.5,287.5" id="Line-6" stroke="#979797" stroke-linecap="square"></path>
        <path d="M633.5,446.5 L194.5,407.5" id="Line-3" stroke="#979797" stroke-linecap="square"></path>
        <g id="Group-4" transform="translate(995.000000, 373.000000)" fill="#979797" fill-rule="nonzero">
            <path id="Line-5" d="M3.00677109,-0.00668060971 L4.00668061,0.00677108789 L1.114,215.007 L5.11393228,215.061302 L0.493274151,223.999955 L-3.88525342,214.940236 L0.114,214.994 L3.00677109,-0.00668060971 Z"></path>
        </g>
        <text id="Doesn’t-Reload-Redra" font-family="HelveticaNeue, Helvetica Neue" font-size="16" font-weight="normal" fill="#151515">
            <tspan x="940.024" y="492">Doesn’t Reload</tspan>
            <tspan x="913.816" y="510">Redraws only changes</tspan>
        </text>
    </g>
</svg>