<svg viewBox="0,0,954,1104" width="954" height="1104" class="" xmlns="http://www.w3.org/2000/svg" xmlns:xlink="http://www.w3.org/1999/xlink"><g fill="none" stroke-opacity="0.6" stroke-width="1.5"><path stroke="#ff7f0e" d="M100,174A7,7 0,0,0 100,160"/><path stroke="#ff7f0e" d="M100,132A14,14 0,0,1 100,160"/><path stroke="#ff7f0e" d="M100,146A7,7 0,0,1 100,160"/><path stroke="#ff7f0e" d="M100,146A7,7 0,0,0 100,132"/><path stroke="#ff7f0e" d="M100,90A35,35 0,0,1 100,160"/><path stroke="#ff7f0e" d="M100,118A21,21 0,0,1 100,160"/><path stroke="#ff7f0e" d="M100,62A49,49 0,0,1 100,160"/><path stroke="#ff7f0e" d="M100,104A28,28 0,0,1 100,160"/><path stroke="#ff7f0e" d="M100,76A42,42 0,0,1 100,160"/><path stroke="#ff7f0e" d="M100,188A14,14 0,0,0 100,160"/><path stroke="#2ca02c" d="M100,370A28,28 0,0,0 100,314"/><path stroke="#aaa" d="M100,370A112,112 0,0,0 100,146"/><path stroke="#aaa" d="M100,370A119,119 0,0,0 100,132"/><path stroke="#aaa" d="M100,370A105,105 0,0,0 100,160"/><path stroke="#aaa" d="M100,482A56,56 0,0,0 100,370"/><path stroke="#2ca02c" d="M100,328A21,21 0,0,1 100,370"/><path stroke="#2ca02c" d="M100,286A42,42 0,0,1 100,370"/><path stroke="#2ca02c" d="M100,272A49,49 0,0,1 100,370"/><path stroke="#d62728" d="M100,468A21,21 0,0,1 100,510"/><path stroke="#d62728" d="M100,426A42,42 0,0,1 100,510"/><path stroke="#d62728" d="M100,426A21,21 0,0,1 100,468"/><path stroke="#d62728" d="M100,398A56,56 0,0,1 100,510"/><path stroke="#d62728" d="M100,398A35,35 0,0,1 100,468"/><path stroke="#d62728" d="M100,398A14,14 0,0,1 100,426"/><path stroke="#d62728" d="M100,454A28,28 0,0,1 100,510"/><path stroke="#d62728" d="M100,454A7,7 0,0,1 100,468"/><path stroke="#d62728" d="M100,454A14,14 0,0,0 100,426"/><path stroke="#d62728" d="M100,454A28,28 0,0,0 100,398"/><path stroke="#d62728" d="M100,412A49,49 0,0,1 100,510"/><path stroke="#d62728" d="M100,412A28,28 0,0,1 100,468"/><path stroke="#d62728" d="M100,412A7,7 0,0,1 100,426"/><path stroke="#d62728" d="M100,412A7,7 0,0,0 100,398"/><path stroke="#d62728" d="M100,412A21,21 0,0,1 100,454"/><path stroke="#d62728" d="M100,524A7,7 0,0,0 100,510"/><path stroke="#d62728" d="M100,524A28,28 0,0,0 100,468"/><path stroke="#d62728" d="M100,524A49,49 0,0,0 100,426"/><path stroke="#d62728" d="M100,524A63,63 0,0,0 100,398"/><path stroke="#d62728" d="M100,524A35,35 0,0,0 100,454"/><path stroke="#d62728" d="M100,524A56,56 0,0,0 100,412"/><path stroke="#d62728" d="M100,440A35,35 0,0,1 100,510"/><path stroke="#d62728" d="M100,440A14,14 0,0,1 100,468"/><path stroke="#d62728" d="M100,440A7,7 0,0,0 100,426"/><path stroke="#d62728" d="M100,440A21,21 0,0,0 100,398"/><path stroke="#d62728" d="M100,440A7,7 0,0,1 100,454"/><path stroke="#d62728" d="M100,440A14,14 0,0,0 100,412"/><path stroke="#d62728" d="M100,440A42,42 0,0,1 100,524"/><path stroke="#d62728" d="M100,440A21,21 0,0,1 100,482"/><path stroke="#aaa" d="M100,440A35,35 0,0,0 100,370"/><path stroke="#aaa" d="M100,636A98,98 0,0,0 100,440"/><path stroke="#aaa" d="M100,636A133,133 0,0,0 100,370"/><path stroke="#9467bd" d="M100,678A21,21 0,0,0 100,636"/><path stroke="#aaa" d="M100,678A119,119 0,0,0 100,440"/><path stroke="#aaa" d="M100,678A154,154 0,0,0 100,370"/><path stroke="#aaa" d="M100,706A35,35 0,0,0 100,636"/><path stroke="#aaa" d="M100,706A168,168 0,0,0 100,370"/><path stroke="#aaa" d="M100,706A98,98 0,0,0 100,510"/><path stroke="#aaa" d="M100,706A14,14 0,0,0 100,678"/><path stroke="#aaa" d="M100,622A126,126 0,0,0 100,370"/><path stroke="#aaa" d="M100,622A91,91 0,0,0 100,440"/><path stroke="#9467bd" d="M100,622A28,28 0,0,1 100,678"/><path stroke="#9467bd" d="M100,622A7,7 0,0,1 100,636"/><path stroke="#aaa" d="M100,622A42,42 0,0,1 100,706"/><path stroke="#aaa" d="M100,20A175,175 0,0,1 100,370"/><path stroke="#aaa" d="M100,20A301,301 0,0,1 100,622"/><path stroke="#aaa" d="M100,202A119,119 0,0,1 100,440"/><path stroke="#aaa" d="M100,202A210,210 0,0,1 100,622"/><path stroke="#2ca02c" d="M100,202A84,84 0,0,1 100,370"/><path stroke="#d62728" d="M100,496A28,28 0,0,0 100,440"/><path stroke="#aaa" d="M100,356A70,70 0,0,1 100,496"/><path stroke="#2ca02c" d="M100,356A7,7 0,0,1 100,370"/><path stroke="#aaa" d="M100,356A42,42 0,0,1 100,440"/><path stroke="#aaa" d="M100,356A133,133 0,0,1 100,622"/><path stroke="#2ca02c" d="M100,342A14,14 0,0,1 100,370"/><path stroke="#2ca02c" d="M100,384A7,7 0,0,0 100,370"/><path stroke="#aaa" d="M100,384A119,119 0,0,1 100,622"/><path stroke="#2ca02c" d="M100,300A35,35 0,0,1 100,370"/><path stroke="#2ca02c" d="M100,300A49,49 0,0,0 100,202"/><path stroke="#2ca02c" d="M100,230A70,70 0,0,1 100,370"/><path stroke="#2ca02c" d="M100,230A35,35 0,0,1 100,300"/><path stroke="#2ca02c" d="M100,230A14,14 0,0,0 100,202"/><path stroke="#2ca02c" d="M100,216A42,42 0,0,1 100,300"/><path stroke="#2ca02c" d="M100,216A7,7 0,0,1 100,230"/><path stroke="#2ca02c" d="M100,216A77,77 0,0,1 100,370"/><path stroke="#2ca02c" d="M100,216A7,7 0,0,0 100,202"/><path stroke="#2ca02c" d="M100,244A28,28 0,0,1 100,300"/><path stroke="#2ca02c" d="M100,244A7,7 0,0,0 100,230"/><path stroke="#2ca02c" d="M100,244A14,14 0,0,0 100,216"/><path stroke="#2ca02c" d="M100,244A63,63 0,0,1 100,370"/><path stroke="#2ca02c" d="M100,244A21,21 0,0,0 100,202"/><path stroke="#2ca02c" d="M100,258A21,21 0,0,1 100,300"/><path stroke="#2ca02c" d="M100,258A14,14 0,0,0 100,230"/><path stroke="#2ca02c" d="M100,258A21,21 0,0,0 100,216"/><path stroke="#2ca02c" d="M100,258A7,7 0,0,0 100,244"/><path stroke="#2ca02c" d="M100,258A56,56 0,0,1 100,370"/><path stroke="#2ca02c" d="M100,258A28,28 0,0,0 100,202"/><path stroke="#9467bd" d="M100,664A7,7 0,0,1 100,678"/><path stroke="#aaa" d="M100,832A77,77 0,0,0 100,678"/><path stroke="#9467bd" d="M100,594A21,21 0,0,1 100,636"/><path stroke="#9467bd" d="M100,594A42,42 0,0,1 100,678"/><path stroke="#9467bd" d="M100,538A28,28 0,0,1 100,594"/><path stroke="#9467bd" d="M100,538A70,70 0,0,1 100,678"/><path stroke="#9467bd" d="M100,538A49,49 0,0,1 100,636"/><path stroke="#aaa" d="M100,818A224,224 0,0,0 100,370"/><path stroke="#8c564b" d="M100,818A56,56 0,0,0 100,706"/><path stroke="#aaa" d="M100,818A98,98 0,0,0 100,622"/><path stroke="#1f77b4" d="M100,48A14,14 0,0,0 100,20"/><path stroke="#aaa" d="M100,48A161,161 0,0,1 100,370"/><path stroke="#1f77b4" d="M100,34A7,7 0,0,0 100,20"/><path stroke="#7f7f7f" d="M100,860A7,7 0,0,0 100,846"/><path stroke="#aaa" d="M100,958A49,49 0,0,0 100,860"/><path stroke="#aaa" d="M100,958A140,140 0,0,0 100,678"/><path stroke="#aaa" d="M100,958A168,168 0,0,0 100,622"/><path stroke="#aaa" d="M100,958A294,294 0,0,0 100,370"/><path stroke="#8c564b" d="M100,720A7,7 0,0,0 100,706"/><path stroke="#aaa" d="M100,720A175,175 0,0,0 100,370"/><path stroke="#8c564b" d="M100,748A14,14 0,0,0 100,720"/><path stroke="#aaa" d="M100,748A56,56 0,0,0 100,636"/><path stroke="#8c564b" d="M100,762A21,21 0,0,0 100,720"/><path stroke="#8c564b" d="M100,762A28,28 0,0,0 100,706"/><path stroke="#aaa" d="M100,762A196,196 0,0,0 100,370"/><path stroke="#8c564b" d="M100,790A14,14 0,0,0 100,762"/><path stroke="#aaa" d="M100,790A63,63 0,0,0 100,664"/><path stroke="#8c564b" d="M100,776A7,7 0,0,0 100,762"/><path stroke="#8c564b" d="M100,734A14,14 0,0,1 100,762"/><path stroke="#8c564b" d="M100,734A7,7 0,0,0 100,720"/><path stroke="#8c564b" d="M100,734A14,14 0,0,0 100,706"/><path stroke="#aaa" d="M100,1014A126,126 0,0,0 100,762"/><path stroke="#aaa" d="M100,1014A147,147 0,0,0 100,720"/><path stroke="#aaa" d="M100,1014A175,175 0,0,0 100,664"/><path stroke="#aaa" d="M100,1014A140,140 0,0,0 100,734"/><path stroke="#aaa" d="M100,1014A154,154 0,0,0 100,706"/><path stroke="#aaa" d="M100,1014A322,322 0,0,0 100,370"/><path stroke="#aaa" d="M100,1014A252,252 0,0,0 100,510"/><path stroke="#aaa" d="M100,1014A168,168 0,0,0 100,678"/><path stroke="#aaa" d="M100,1014A210,210 0,0,0 100,594"/><path stroke="#bcbd22" d="M100,1014A28,28 0,0,0 100,958"/><path stroke="#8c564b" d="M100,692A14,14 0,0,1 100,720"/><path stroke="#aaa" d="M100,692A161,161 0,0,1 100,1014"/><path stroke="#bcbd22" d="M100,1000A7,7 0,0,1 100,1014"/><path stroke="#aaa" d="M100,1000A203,203 0,0,0 100,594"/><path stroke="#bcbd22" d="M100,1000A21,21 0,0,0 100,958"/><path stroke="#bcbd22" d="M100,930A42,42 0,0,1 100,1014"/><path stroke="#bcbd22" d="M100,930A14,14 0,0,1 100,958"/><path stroke="#aaa" d="M100,930A154,154 0,0,0 100,622"/><path stroke="#bcbd22" d="M100,930A35,35 0,0,1 100,1000"/><path stroke="#aaa" d="M100,930A280,280 0,0,0 100,370"/><path stroke="#bcbd22" d="M100,902A14,14 0,0,1 100,930"/><path stroke="#bcbd22" d="M100,902A56,56 0,0,1 100,1014"/><path stroke="#bcbd22" d="M100,902A28,28 0,0,1 100,958"/><path stroke="#bcbd22" d="M100,902A49,49 0,0,1 100,1000"/><path stroke="#bcbd22" d="M100,1042A42,42 0,0,0 100,958"/><path stroke="#bcbd22" d="M100,1042A56,56 0,0,0 100,930"/><path stroke="#bcbd22" d="M100,1042A70,70 0,0,0 100,902"/><path stroke="#bcbd22" d="M100,944A7,7 0,0,1 100,958"/><path stroke="#bcbd22" d="M100,944A7,7 0,0,0 100,930"/><path stroke="#bcbd22" d="M100,944A49,49 0,0,1 100,1042"/><path stroke="#bcbd22" d="M100,944A21,21 0,0,0 100,902"/><path stroke="#bcbd22" d="M100,944A28,28 0,0,1 100,1000"/><path stroke="#bcbd22" d="M100,944A35,35 0,0,1 100,1014"/><path stroke="#bcbd22" d="M100,916A49,49 0,0,1 100,1014"/><path stroke="#bcbd22" d="M100,916A7,7 0,0,1 100,930"/><path stroke="#bcbd22" d="M100,916A7,7 0,0,0 100,902"/><path stroke="#bcbd22" d="M100,916A21,21 0,0,1 100,958"/><path stroke="#bcbd22" d="M100,916A42,42 0,0,1 100,1000"/><path stroke="#aaa" d="M100,916A161,161 0,0,0 100,594"/><path stroke="#bcbd22" d="M100,916A14,14 0,0,1 100,944"/><path stroke="#bcbd22" d="M100,916A63,63 0,0,1 100,1042"/><path stroke="#bcbd22" d="M100,874A14,14 0,0,1 100,902"/><path stroke="#bcbd22" d="M100,874A42,42 0,0,1 100,958"/><path stroke="#bcbd22" d="M100,874A21,21 0,0,1 100,916"/><path stroke="#bcbd22" d="M100,874A63,63 0,0,1 100,1000"/><path stroke="#bcbd22" d="M100,874A28,28 0,0,1 100,930"/><path stroke="#bcbd22" d="M100,874A35,35 0,0,1 100,944"/><path stroke="#bcbd22" d="M100,874A84,84 0,0,1 100,1042"/><path stroke="#bcbd22" d="M100,874A70,70 0,0,1 100,1014"/><path stroke="#bcbd22" d="M100,888A63,63 0,0,1 100,1014"/><path stroke="#bcbd22" d="M100,888A14,14 0,0,1 100,916"/><path stroke="#bcbd22" d="M100,888A35,35 0,0,1 100,958"/><path stroke="#bcbd22" d="M100,888A7,7 0,0,0 100,874"/><path stroke="#bcbd22" d="M100,888A21,21 0,0,1 100,930"/><path stroke="#bcbd22" d="M100,888A28,28 0,0,1 100,944"/><path stroke="#bcbd22" d="M100,888A77,77 0,0,1 100,1042"/><path stroke="#bcbd22" d="M100,888A7,7 0,0,1 100,902"/><path stroke="#bcbd22" d="M100,888A56,56 0,0,1 100,1000"/><path stroke="#aaa" d="M100,888A259,259 0,0,0 100,370"/><path stroke="#bcbd22" d="M100,986A56,56 0,0,0 100,874"/><path stroke="#bcbd22" d="M100,986A49,49 0,0,0 100,888"/><path stroke="#bcbd22" d="M100,986A14,14 0,0,0 100,958"/><path stroke="#bcbd22" d="M100,986A35,35 0,0,0 100,916"/><path stroke="#bcbd22" d="M100,986A28,28 0,0,0 100,930"/><path stroke="#bcbd22" d="M100,986A21,21 0,0,0 100,944"/><path stroke="#bcbd22" d="M100,986A28,28 0,0,1 100,1042"/><path stroke="#bcbd22" d="M100,986A42,42 0,0,0 100,902"/><path stroke="#bcbd22" d="M100,986A7,7 0,0,1 100,1000"/><path stroke="#bcbd22" d="M100,986A14,14 0,0,1 100,1014"/><path stroke="#bcbd22" d="M100,972A42,42 0,0,0 100,888"/><path stroke="#bcbd22" d="M100,972A21,21 0,0,0 100,930"/><path stroke="#bcbd22" d="M100,972A35,35 0,0,0 100,902"/><path stroke="#bcbd22" d="M100,972A28,28 0,0,0 100,916"/><path stroke="#bcbd22" d="M100,972A7,7 0,0,1 100,986"/><path stroke="#bcbd22" d="M100,972A7,7 0,0,0 100,958"/><path stroke="#bcbd22" d="M100,972A49,49 0,0,0 100,874"/><path stroke="#bcbd22" d="M100,972A14,14 0,0,0 100,944"/><path stroke="#bcbd22" d="M100,972A35,35 0,0,1 100,1042"/><path stroke="#aaa" d="M100,1056A28,28 0,0,0 100,1000"/><path stroke="#9467bd" d="M100,608A35,35 0,0,1 100,678"/><path stroke="#aaa" d="M100,608A119,119 0,0,0 100,370"/><path stroke="#9467bd" d="M100,608A14,14 0,0,1 100,636"/><path stroke="#9467bd" d="M100,608A7,7 0,0,1 100,622"/><path stroke="#aaa" d="M100,608A175,175 0,0,1 100,958"/><path stroke="#9467bd" d="M100,608A7,7 0,0,0 100,594"/><path stroke="#9467bd" d="M100,552A63,63 0,0,1 100,678" class=""/><path stroke="#9467bd" d="M100,552A28,28 0,0,1 100,608" class=""/><path stroke="#aaa" d="M100,552A91,91 0,0,0 100,370" class=""/><path stroke="#9467bd" d="M100,552A42,42 0,0,1 100,636" class=""/><path stroke="#9467bd" d="M100,552A35,35 0,0,1 100,622" class=""/><path stroke="#aaa" d="M100,552A203,203 0,0,1 100,958" class=""/><path stroke="#9467bd" d="M100,552A21,21 0,0,1 100,594" class=""/><path stroke="#9467bd" d="M100,580A49,49 0,0,1 100,678"/><path stroke="#9467bd" d="M100,580A14,14 0,0,0 100,552" class=""/><path stroke="#9467bd" d="M100,580A14,14 0,0,1 100,608"/><path stroke="#aaa" d="M100,580A105,105 0,0,0 100,370"/><path stroke="#9467bd" d="M100,580A28,28 0,0,1 100,636"/><path stroke="#9467bd" d="M100,580A21,21 0,0,1 100,622"/><path stroke="#9467bd" d="M100,580A7,7 0,0,1 100,594"/><path stroke="#aaa" d="M100,580A175,175 0,0,1 100,930"/><path stroke="#9467bd" d="M100,650A14,14 0,0,0 100,622"/><path stroke="#9467bd" d="M100,650A49,49 0,0,0 100,552" class=""/><path stroke="#9467bd" d="M100,650A21,21 0,0,0 100,608"/><path stroke="#9467bd" d="M100,650A35,35 0,0,0 100,580"/><path stroke="#aaa" d="M100,650A140,140 0,0,0 100,370"/><path stroke="#aaa" d="M100,650A154,154 0,0,1 100,958"/><path stroke="#9467bd" d="M100,650A28,28 0,0,0 100,594"/><path stroke="#9467bd" d="M100,650A14,14 0,0,1 100,678"/><path stroke="#8c564b" d="M100,804A49,49 0,0,0 100,706"/><path stroke="#aaa" d="M100,804A91,91 0,0,0 100,622"/><path stroke="#aaa" d="M100,804A217,217 0,0,0 100,370"/><path stroke="#aaa" d="M100,1070A56,56 0,0,0 100,958"/><path stroke="#aaa" d="M100,1084A63,63 0,0,0 100,958"/><path stroke="#1f77b4" d="M100,1084A7,7 0,0,0 100,1070"/><path stroke="#9467bd" d="M100,566A7,7 0,0,0 100,552" class=""/><path stroke="#9467bd" d="M100,566A21,21 0,0,1 100,608"/><path stroke="#9467bd" d="M100,566A56,56 0,0,1 100,678"/><path stroke="#aaa" d="M100,566A196,196 0,0,1 100,958"/><path stroke="#9467bd" d="M100,566A14,14 0,0,1 100,594"/><path stroke="#9467bd" d="M100,566A7,7 0,0,1 100,580"/><path stroke="#9467bd" d="M100,566A42,42 0,0,1 100,650"/><path stroke="#bcbd22" d="M100,1028A70,70 0,0,0 100,888"/><path stroke="#bcbd22" d="M100,1028A21,21 0,0,0 100,986"/><path stroke="#bcbd22" d="M100,1028A28,28 0,0,0 100,972"/><path stroke="#bcbd22" d="M100,1028A77,77 0,0,0 100,874"/><path stroke="#bcbd22" d="M100,1028A56,56 0,0,0 100,916"/><path stroke="#bcbd22" d="M100,1028A35,35 0,0,0 100,958"/><path stroke="#bcbd22" d="M100,1028A49,49 0,0,0 100,930"/></g><style>

.hover path {
  stroke: #ccc;
}

.hover text {
  fill: #ccc;
}

.hover g.primary text {
  fill: black;
  font-weight: bold;
}

.hover g.secondary text {
  fill: #333;
}

.hover path.primary {
  stroke: #333;
  stroke-opacity: 1;
}

</style><g font-family="sans-serif" font-size="10" text-anchor="end"><g transform="translate(100,160)"><text x="-6" dy="0.35em" fill="rgb(144, 29, 0)">Myriel</text><circle r="3" fill="#ff7f0e"/></g><g transform="translate(100,174)"><text x="-6" dy="0.35em" fill="rgb(144, 29, 0)">Napoleon</text><circle r="3" fill="#ff7f0e"/></g><g transform="translate(100,132)"><text x="-6" dy="0.35em" fill="rgb(144, 29, 0)">Mlle.Baptistine</text><circle r="3" fill="#ff7f0e"/></g><g transform="translate(100,146)"><text x="-6" dy="0.35em" fill="rgb(144, 29, 0)">Mme.Magloire</text><circle r="3" fill="#ff7f0e"/></g><g transform="translate(100,90)"><text x="-6" dy="0.35em" fill="rgb(144, 29, 0)">CountessdeLo</text><circle r="3" fill="#ff7f0e"/></g><g transform="translate(100,118)"><text x="-6" dy="0.35em" fill="rgb(144, 29, 0)">Geborand</text><circle r="3" fill="#ff7f0e"/></g><g transform="translate(100,62)"><text x="-6" dy="0.35em" fill="rgb(144, 29, 0)">Champtercier</text><circle r="3" fill="#ff7f0e"/></g><g transform="translate(100,104)"><text x="-6" dy="0.35em" fill="rgb(144, 29, 0)">Cravatte</text><circle r="3" fill="#ff7f0e"/></g><g transform="translate(100,76)"><text x="-6" dy="0.35em" fill="rgb(144, 29, 0)">Count</text><circle r="3" fill="#ff7f0e"/></g><g transform="translate(100,188)"><text x="-6" dy="0.35em" fill="rgb(144, 29, 0)">OldMan</text><circle r="3" fill="#ff7f0e"/></g><g transform="translate(100,314)"><text x="-6" dy="0.35em" fill="rgb(0, 67, 0)">Labarre</text><circle r="3" fill="#2ca02c"/></g><g transform="translate(100,370)" class=""><text x="-6" dy="0.35em" fill="rgb(0, 67, 0)">Valjean</text><circle r="3" fill="#2ca02c"/></g><g transform="translate(100,482)"><text x="-6" dy="0.35em" fill="rgb(104, 0, 0)">Marguerite</text><circle r="3" fill="#d62728"/></g><g transform="translate(100,328)"><text x="-6" dy="0.35em" fill="rgb(0, 67, 0)">Mme.deR</text><circle r="3" fill="#2ca02c"/></g><g transform="translate(100,286)"><text x="-6" dy="0.35em" fill="rgb(0, 67, 0)">Isabeau</text><circle r="3" fill="#2ca02c"/></g><g transform="translate(100,272)"><text x="-6" dy="0.35em" fill="rgb(0, 67, 0)">Gervais</text><circle r="3" fill="#2ca02c"/></g><g transform="translate(100,510)"><text x="-6" dy="0.35em" fill="rgb(104, 0, 0)">Tholomyes</text><circle r="3" fill="#d62728"/></g><g transform="translate(100,468)"><text x="-6" dy="0.35em" fill="rgb(104, 0, 0)">Listolier</text><circle r="3" fill="#d62728"/></g><g transform="translate(100,426)"><text x="-6" dy="0.35em" fill="rgb(104, 0, 0)">Fameuil</text><circle r="3" fill="#d62728"/></g><g transform="translate(100,398)"><text x="-6" dy="0.35em" fill="rgb(104, 0, 0)">Blacheville</text><circle r="3" fill="#d62728"/></g><g transform="translate(100,454)"><text x="-6" dy="0.35em" fill="rgb(104, 0, 0)">Favourite</text><circle r="3" fill="#d62728"/></g><g transform="translate(100,412)"><text x="-6" dy="0.35em" fill="rgb(104, 0, 0)">Dahlia</text><circle r="3" fill="#d62728"/></g><g transform="translate(100,524)"><text x="-6" dy="0.35em" fill="rgb(104, 0, 0)">Zephine</text><circle r="3" fill="#d62728"/></g><g transform="translate(100,440)"><text x="-6" dy="0.35em" fill="rgb(104, 0, 0)">Fantine</text><circle r="3" fill="#d62728"/></g><g transform="translate(100,636)" class=""><text x="-6" dy="0.35em" fill="rgb(55, 17, 94)">Mme.Thenardier</text><circle r="3" fill="#9467bd"/></g><g transform="translate(100,678)" class=""><text x="-6" dy="0.35em" fill="rgb(55, 17, 94)">Thenardier</text><circle r="3" fill="#9467bd"/></g><g transform="translate(100,706)"><text x="-6" dy="0.35em" fill="rgb(49, 4, 0)">Cosette</text><circle r="3" fill="#8c564b"/></g><g transform="translate(100,622)" class=""><text x="-6" dy="0.35em" fill="rgb(55, 17, 94)">Javert</text><circle r="3" fill="#9467bd"/></g><g transform="translate(100,20)"><text x="-6" dy="0.35em" fill="rgb(0, 36, 87)">Fauchelevent</text><circle r="3" fill="#1f77b4"/></g><g transform="translate(100,202)"><text x="-6" dy="0.35em" fill="rgb(0, 67, 0)">Bamatabois</text><circle r="3" fill="#2ca02c"/></g><g transform="translate(100,496)"><text x="-6" dy="0.35em" fill="rgb(104, 0, 0)">Perpetue</text><circle r="3" fill="#d62728"/></g><g transform="translate(100,356)"><text x="-6" dy="0.35em" fill="rgb(0, 67, 0)">Simplice</text><circle r="3" fill="#2ca02c"/></g><g transform="translate(100,342)"><text x="-6" dy="0.35em" fill="rgb(0, 67, 0)">Scaufflaire</text><circle r="3" fill="#2ca02c"/></g><g transform="translate(100,384)"><text x="-6" dy="0.35em" fill="rgb(0, 67, 0)">Woman1</text><circle r="3" fill="#2ca02c"/></g><g transform="translate(100,300)"><text x="-6" dy="0.35em" fill="rgb(0, 67, 0)">Judge</text><circle r="3" fill="#2ca02c"/></g><g transform="translate(100,230)"><text x="-6" dy="0.35em" fill="rgb(0, 67, 0)">Champmathieu</text><circle r="3" fill="#2ca02c"/></g><g transform="translate(100,216)"><text x="-6" dy="0.35em" fill="rgb(0, 67, 0)">Brevet</text><circle r="3" fill="#2ca02c"/></g><g transform="translate(100,244)"><text x="-6" dy="0.35em" fill="rgb(0, 67, 0)">Chenildieu</text><circle r="3" fill="#2ca02c"/></g><g transform="translate(100,258)"><text x="-6" dy="0.35em" fill="rgb(0, 67, 0)">Cochepaille</text><circle r="3" fill="#2ca02c"/></g><g transform="translate(100,664)"><text x="-6" dy="0.35em" fill="rgb(55, 17, 94)">Pontmercy</text><circle r="3" fill="#9467bd"/></g><g transform="translate(100,832)"><text x="-6" dy="0.35em" fill="rgb(125, 16, 100)">Boulatruelle</text><circle r="3" fill="#e377c2"/></g><g transform="translate(100,594)" class=""><text x="-6" dy="0.35em" fill="rgb(55, 17, 94)">Eponine</text><circle r="3" fill="#9467bd"/></g><g transform="translate(100,538)"><text x="-6" dy="0.35em" fill="rgb(55, 17, 94)">Anzelma</text><circle r="3" fill="#9467bd"/></g><g transform="translate(100,818)"><text x="-6" dy="0.35em" fill="rgb(49, 4, 0)">Woman2</text><circle r="3" fill="#8c564b"/></g><g transform="translate(100,48)"><text x="-6" dy="0.35em" fill="rgb(0, 36, 87)">MotherInnocent</text><circle r="3" fill="#1f77b4"/></g><g transform="translate(100,34)"><text x="-6" dy="0.35em" fill="rgb(0, 36, 87)">Gribier</text><circle r="3" fill="#1f77b4"/></g><g transform="translate(100,846)"><text x="-6" dy="0.35em" fill="rgb(42, 42, 42)">Jondrette</text><circle r="3" fill="#7f7f7f"/></g><g transform="translate(100,860)"><text x="-6" dy="0.35em" fill="rgb(42, 42, 42)">Mme.Burgon</text><circle r="3" fill="#7f7f7f"/></g><g transform="translate(100,958)" class=""><text x="-6" dy="0.35em" fill="rgb(89, 96, 0)">Gavroche</text><circle r="3" fill="#bcbd22"/></g><g transform="translate(100,720)"><text x="-6" dy="0.35em" fill="rgb(49, 4, 0)">Gillenormand</text><circle r="3" fill="#8c564b"/></g><g transform="translate(100,748)"><text x="-6" dy="0.35em" fill="rgb(49, 4, 0)">Magnon</text><circle r="3" fill="#8c564b"/></g><g transform="translate(100,762)"><text x="-6" dy="0.35em" fill="rgb(49, 4, 0)">Mlle.Gillenormand</text><circle r="3" fill="#8c564b"/></g><g transform="translate(100,790)"><text x="-6" dy="0.35em" fill="rgb(49, 4, 0)">Mme.Pontmercy</text><circle r="3" fill="#8c564b"/></g><g transform="translate(100,776)"><text x="-6" dy="0.35em" fill="rgb(49, 4, 0)">Mlle.Vaubois</text><circle r="3" fill="#8c564b"/></g><g transform="translate(100,734)"><text x="-6" dy="0.35em" fill="rgb(49, 4, 0)">Lt.Gillenormand</text><circle r="3" fill="#8c564b"/></g><g transform="translate(100,1014)"><text x="-6" dy="0.35em" fill="rgb(89, 96, 0)">Marius</text><circle r="3" fill="#bcbd22"/></g><g transform="translate(100,692)"><text x="-6" dy="0.35em" fill="rgb(49, 4, 0)">BaronessT</text><circle r="3" fill="#8c564b"/></g><g transform="translate(100,1000)"><text x="-6" dy="0.35em" fill="rgb(89, 96, 0)">Mabeuf</text><circle r="3" fill="#bcbd22"/></g><g transform="translate(100,930)"><text x="-6" dy="0.35em" fill="rgb(89, 96, 0)">Enjolras</text><circle r="3" fill="#bcbd22"/></g><g transform="translate(100,902)"><text x="-6" dy="0.35em" fill="rgb(89, 96, 0)">Combeferre</text><circle r="3" fill="#bcbd22"/></g><g transform="translate(100,1042)"><text x="-6" dy="0.35em" fill="rgb(89, 96, 0)">Prouvaire</text><circle r="3" fill="#bcbd22"/></g><g transform="translate(100,944)"><text x="-6" dy="0.35em" fill="rgb(89, 96, 0)">Feuilly</text><circle r="3" fill="#bcbd22"/></g><g transform="translate(100,916)"><text x="-6" dy="0.35em" fill="rgb(89, 96, 0)">Courfeyrac</text><circle r="3" fill="#bcbd22"/></g><g transform="translate(100,874)"><text x="-6" dy="0.35em" fill="rgb(89, 96, 0)">Bahorel</text><circle r="3" fill="#bcbd22"/></g><g transform="translate(100,888)"><text x="-6" dy="0.35em" fill="rgb(89, 96, 0)">Bossuet</text><circle r="3" fill="#bcbd22"/></g><g transform="translate(100,986)"><text x="-6" dy="0.35em" fill="rgb(89, 96, 0)">Joly</text><circle r="3" fill="#bcbd22"/></g><g transform="translate(100,972)"><text x="-6" dy="0.35em" fill="rgb(89, 96, 0)">Grantaire</text><circle r="3" fill="#bcbd22"/></g><g transform="translate(100,1056)"><text x="-6" dy="0.35em" fill="rgb(0, 95, 112)">MotherPlutarch</text><circle r="3" fill="#17becf"/></g><g transform="translate(100,608)" class=""><text x="-6" dy="0.35em" fill="rgb(55, 17, 94)">Gueulemer</text><circle r="3" fill="#9467bd"/></g><g transform="translate(100,552)" class=""><text x="-6" dy="0.35em" fill="rgb(55, 17, 94)">Babet</text><circle r="3" fill="#9467bd"/></g><g transform="translate(100,580)" class=""><text x="-6" dy="0.35em" fill="rgb(55, 17, 94)">Claquesous</text><circle r="3" fill="#9467bd"/></g><g transform="translate(100,650)" class=""><text x="-6" dy="0.35em" fill="rgb(55, 17, 94)">Montparnasse</text><circle r="3" fill="#9467bd"/></g><g transform="translate(100,804)"><text x="-6" dy="0.35em" fill="rgb(49, 4, 0)">Toussaint</text><circle r="3" fill="#8c564b"/></g><g transform="translate(100,1070)"><text x="-6" dy="0.35em" fill="rgb(0, 36, 87)">Child1</text><circle r="3" fill="#1f77b4"/></g><g transform="translate(100,1084)"><text x="-6" dy="0.35em" fill="rgb(0, 36, 87)">Child2</text><circle r="3" fill="#1f77b4"/></g><g transform="translate(100,566)" class=""><text x="-6" dy="0.35em" fill="rgb(55, 17, 94)">Brujon</text><circle r="3" fill="#9467bd"/></g><g transform="translate(100,1028)"><text x="-6" dy="0.35em" fill="rgb(89, 96, 0)">Mme.Hucheloup</text><circle r="3" fill="#bcbd22"/></g></g><g fill="none" pointer-events="all"><rect width="140" height="14" y="153"/><rect width="140" height="14" y="167"/><rect width="140" height="14" y="125"/><rect width="140" height="14" y="139"/><rect width="140" height="14" y="83"/><rect width="140" height="14" y="111"/><rect width="140" height="14" y="55"/><rect width="140" height="14" y="97"/><rect width="140" height="14" y="69"/><rect width="140" height="14" y="181"/><rect width="140" height="14" y="307"/><rect width="140" height="14" y="363"/><rect width="140" height="14" y="475"/><rect width="140" height="14" y="321"/><rect width="140" height="14" y="279"/><rect width="140" height="14" y="265"/><rect width="140" height="14" y="503"/><rect width="140" height="14" y="461"/><rect width="140" height="14" y="419"/><rect width="140" height="14" y="391"/><rect width="140" height="14" y="447"/><rect width="140" height="14" y="405"/><rect width="140" height="14" y="517"/><rect width="140" height="14" y="433"/><rect width="140" height="14" y="629"/><rect width="140" height="14" y="671"/><rect width="140" height="14" y="699"/><rect width="140" height="14" y="615"/><rect width="140" height="14" y="13"/><rect width="140" height="14" y="195"/><rect width="140" height="14" y="489"/><rect width="140" height="14" y="349"/><rect width="140" height="14" y="335"/><rect width="140" height="14" y="377"/><rect width="140" height="14" y="293"/><rect width="140" height="14" y="223"/><rect width="140" height="14" y="209"/><rect width="140" height="14" y="237"/><rect width="140" height="14" y="251"/><rect width="140" height="14" y="657"/><rect width="140" height="14" y="825"/><rect width="140" height="14" y="587"/><rect width="140" height="14" y="531"/><rect width="140" height="14" y="811"/><rect width="140" height="14" y="41"/><rect width="140" height="14" y="27"/><rect width="140" height="14" y="839"/><rect width="140" height="14" y="853"/><rect width="140" height="14" y="951"/><rect width="140" height="14" y="713"/><rect width="140" height="14" y="741"/><rect width="140" height="14" y="755"/><rect width="140" height="14" y="783"/><rect width="140" height="14" y="769"/><rect width="140" height="14" y="727"/><rect width="140" height="14" y="1007"/><rect width="140" height="14" y="685"/><rect width="140" height="14" y="993"/><rect width="140" height="14" y="923"/><rect width="140" height="14" y="895"/><rect width="140" height="14" y="1035"/><rect width="140" height="14" y="937"/><rect width="140" height="14" y="909"/><rect width="140" height="14" y="867"/><rect width="140" height="14" y="881"/><rect width="140" height="14" y="979"/><rect width="140" height="14" y="965"/><rect width="140" height="14" y="1049"/><rect width="140" height="14" y="601"/><rect width="140" height="14" y="545"/><rect width="140" height="14" y="573"/><rect width="140" height="14" y="643"/><rect width="140" height="14" y="797"/><rect width="140" height="14" y="1063"/><rect width="140" height="14" y="1077"/><rect width="140" height="14" y="559"/><rect width="140" height="14" y="1021"/></g></svg>