<svg viewBox="-40,-137.5,954,245" style="font: 10px sans-serif; user-select: none;" xmlns="http://www.w3.org/2000/svg" xmlns:xlink="http://www.w3.org/1999/xlink"><g fill="none" stroke="#555" stroke-opacity="0.4" stroke-width="1.5"><path d="M0,0C79.5,0,79.5,-97.5,159,-97.5"/><path d="M0,0C79.5,0,79.5,-87.5,159,-87.5"/><path d="M0,0C79.5,0,79.5,-77.5,159,-77.5"/><path d="M0,0C79.5,0,79.5,-12.5,159,-12.5"/><path d="M0,0C79.5,0,79.5,22.5,159,22.5"/><path d="M0,0C79.5,0,79.5,57.5,159,57.5"/><path d="M0,0C79.5,0,79.5,67.5,159,67.5"/><path d="M0,0C79.5,0,79.5,77.5,159,77.5"/><path d="M0,0C79.5,0,79.5,87.5,159,87.5"/><path d="M0,0C79.5,0,79.5,97.5,159,97.5"/><path d="M159,-77.5C238.5,-77.5,238.5,-107.5,318,-107.5"/><path d="M159,-77.5C238.5,-77.5,238.5,-97.5,318,-97.5"/><path d="M159,-77.5C238.5,-77.5,238.5,-87.5,318,-87.5"/><path d="M159,-77.5C238.5,-77.5,238.5,-77.5,318,-77.5"/><path d="M159,-77.5C238.5,-77.5,238.5,-67.5,318,-67.5"/><path d="M159,-77.5C238.5,-77.5,238.5,-57.5,318,-57.5"/><path d="M159,-77.5C238.5,-77.5,238.5,-47.5,318,-47.5"/><path d="M159,-12.5C238.5,-12.5,238.5,-27.5,318,-27.5"/><path d="M159,-12.5C238.5,-12.5,238.5,-17.5,318,-17.5"/><path d="M159,-12.5C238.5,-12.5,238.5,-7.5,318,-7.5"/><path d="M159,-12.5C238.5,-12.5,238.5,2.5,318,2.5"/><path d="M159,57.5C238.5,57.5,238.5,22.5,318,22.5"/><path d="M159,57.5C238.5,57.5,238.5,32.5,318,32.5"/><path d="M159,57.5C238.5,57.5,238.5,42.5,318,42.5"/><path d="M159,57.5C238.5,57.5,238.5,52.5,318,52.5"/><path d="M159,57.5C238.5,57.5,238.5,62.5,318,62.5"/><path d="M159,57.5C238.5,57.5,238.5,72.5,318,72.5"/><path d="M159,57.5C238.5,57.5,238.5,82.5,318,82.5"/><path d="M159,57.5C238.5,57.5,238.5,92.5,318,92.5"/><path d="M318,-107.5C397.5,-107.5,397.5,-127.5,477,-127.5"/><path d="M318,-107.5C397.5,-107.5,397.5,-117.5,477,-117.5"/><path d="M318,-107.5C397.5,-107.5,397.5,-107.5,477,-107.5"/><path d="M318,-107.5C397.5,-107.5,397.5,-97.5,477,-97.5"/><path d="M318,-107.5C397.5,-107.5,397.5,-87.5,477,-87.5"/></g><g cursor="pointer" pointer-events="all"><g transform="translate(477, -87.5)" fill-opacity="1" stroke-opacity="1"><text dy="0.31em" x="6" text-anchor="start" stroke-linejoin="round" stroke-width="3" stroke="white">JSONConverter</text><circle r="2.5" fill="#999" stroke-width="10"/><text dy="0.31em" x="6" text-anchor="start">JSONConverter</text></g><g transform="translate(477, -97.5)" fill-opacity="1" stroke-opacity="1"><text dy="0.31em" x="6" text-anchor="start" stroke-linejoin="round" stroke-width="3" stroke="white">IDataConverter</text><circle r="2.5" fill="#999" stroke-width="10"/><text dy="0.31em" x="6" text-anchor="start">IDataConverter</text></g><g transform="translate(477, -107.5)" fill-opacity="1" stroke-opacity="1"><text dy="0.31em" x="6" text-anchor="start" stroke-linejoin="round" stroke-width="3" stroke="white">GraphMLConverter</text><circle r="2.5" fill="#999" stroke-width="10"/><text dy="0.31em" x="6" text-anchor="start">GraphMLConverter</text></g><g transform="translate(477, -117.5)" fill-opacity="1" stroke-opacity="1"><text dy="0.31em" x="6" text-anchor="start" stroke-linejoin="round" stroke-width="3" stroke="white">DelimitedTextConverter</text><circle r="2.5" fill="#999" stroke-width="10"/><text dy="0.31em" x="6" text-anchor="start">DelimitedTextConverter</text></g><g transform="translate(477, -127.5)" fill-opacity="1" stroke-opacity="1"><text dy="0.31em" x="6" text-anchor="start" stroke-linejoin="round" stroke-width="3" stroke="white">Converters</text><circle r="2.5" fill="#999" stroke-width="10"/><text dy="0.31em" x="6" text-anchor="start">Converters</text></g><g transform="translate(318, 92.5)" fill-opacity="1" stroke-opacity="1"><text dy="0.31em" x="6" text-anchor="start" stroke-linejoin="round" stroke-width="3" stroke="white">SpringForce</text><circle r="2.5" fill="#999" stroke-width="10"/><text dy="0.31em" x="6" text-anchor="start">SpringForce</text></g><g transform="translate(318, 82.5)" fill-opacity="1" stroke-opacity="1"><text dy="0.31em" x="6" text-anchor="start" stroke-linejoin="round" stroke-width="3" stroke="white">Spring</text><circle r="2.5" fill="#999" stroke-width="10"/><text dy="0.31em" x="6" text-anchor="start">Spring</text></g><g transform="translate(318, 72.5)" fill-opacity="1" stroke-opacity="1"><text dy="0.31em" x="6" text-anchor="start" stroke-linejoin="round" stroke-width="3" stroke="white">Simulation</text><circle r="2.5" fill="#999" stroke-width="10"/><text dy="0.31em" x="6" text-anchor="start">Simulation</text></g><g transform="translate(318, 62.5)" fill-opacity="1" stroke-opacity="1"><text dy="0.31em" x="6" text-anchor="start" stroke-linejoin="round" stroke-width="3" stroke="white">Particle</text><circle r="2.5" fill="#999" stroke-width="10"/><text dy="0.31em" x="6" text-anchor="start">Particle</text></g><g transform="translate(318, 52.5)" fill-opacity="1" stroke-opacity="1"><text dy="0.31em" x="6" text-anchor="start" stroke-linejoin="round" stroke-width="3" stroke="white">NBodyForce</text><circle r="2.5" fill="#999" stroke-width="10"/><text dy="0.31em" x="6" text-anchor="start">NBodyForce</text></g><g transform="translate(318, 42.5)" fill-opacity="1" stroke-opacity="1"><text dy="0.31em" x="6" text-anchor="start" stroke-linejoin="round" stroke-width="3" stroke="white">IForce</text><circle r="2.5" fill="#999" stroke-width="10"/><text dy="0.31em" x="6" text-anchor="start">IForce</text></g><g transform="translate(318, 32.5)" fill-opacity="1" stroke-opacity="1"><text dy="0.31em" x="6" text-anchor="start" stroke-linejoin="round" stroke-width="3" stroke="white">GravityForce</text><circle r="2.5" fill="#999" stroke-width="10"/><text dy="0.31em" x="6" text-anchor="start">GravityForce</text></g><g transform="translate(318, 22.5)" fill-opacity="1" stroke-opacity="1"><text dy="0.31em" x="6" text-anchor="start" stroke-linejoin="round" stroke-width="3" stroke="white">DragForce</text><circle r="2.5" fill="#999" stroke-width="10"/><text dy="0.31em" x="6" text-anchor="start">DragForce</text></g><g transform="translate(318, 2.5)" fill-opacity="1" stroke-opacity="1"><text dy="0.31em" x="6" text-anchor="start" stroke-linejoin="round" stroke-width="3" stroke="white">TextSprite</text><circle r="2.5" fill="#999" stroke-width="10"/><text dy="0.31em" x="6" text-anchor="start">TextSprite</text></g><g transform="translate(318, -7.5)" fill-opacity="1" stroke-opacity="1"><text dy="0.31em" x="6" text-anchor="start" stroke-linejoin="round" stroke-width="3" stroke="white">RectSprite</text><circle r="2.5" fill="#999" stroke-width="10"/><text dy="0.31em" x="6" text-anchor="start">RectSprite</text></g><g transform="translate(318, -17.5)" fill-opacity="1" stroke-opacity="1"><text dy="0.31em" x="6" text-anchor="start" stroke-linejoin="round" stroke-width="3" stroke="white">LineSprite</text><circle r="2.5" fill="#999" stroke-width="10"/><text dy="0.31em" x="6" text-anchor="start">LineSprite</text></g><g transform="translate(318, -27.5)" fill-opacity="1" stroke-opacity="1"><text dy="0.31em" x="6" text-anchor="start" stroke-linejoin="round" stroke-width="3" stroke="white">DirtySprite</text><circle r="2.5" fill="#999" stroke-width="10"/><text dy="0.31em" x="6" text-anchor="start">DirtySprite</text></g><g transform="translate(318, -47.5)" fill-opacity="1" stroke-opacity="1"><text dy="0.31em" x="6" text-anchor="start" stroke-linejoin="round" stroke-width="3" stroke="white">DataUtil</text><circle r="2.5" fill="#999" stroke-width="10"/><text dy="0.31em" x="6" text-anchor="start">DataUtil</text></g><g transform="translate(318, -57.5)" fill-opacity="1" stroke-opacity="1"><text dy="0.31em" x="6" text-anchor="start" stroke-linejoin="round" stroke-width="3" stroke="white">DataTable</text><circle r="2.5" fill="#999" stroke-width="10"/><text dy="0.31em" x="6" text-anchor="start">DataTable</text></g><g transform="translate(318, -67.5)" fill-opacity="1" stroke-opacity="1"><text dy="0.31em" x="6" text-anchor="start" stroke-linejoin="round" stroke-width="3" stroke="white">DataSource</text><circle r="2.5" fill="#999" stroke-width="10"/><text dy="0.31em" x="6" text-anchor="start">DataSource</text></g><g transform="translate(318, -77.5)" fill-opacity="1" stroke-opacity="1"><text dy="0.31em" x="6" text-anchor="start" stroke-linejoin="round" stroke-width="3" stroke="white">DataSet</text><circle r="2.5" fill="#999" stroke-width="10"/><text dy="0.31em" x="6" text-anchor="start">DataSet</text></g><g transform="translate(318, -87.5)" fill-opacity="1" stroke-opacity="1"><text dy="0.31em" x="6" text-anchor="start" stroke-linejoin="round" stroke-width="3" stroke="white">DataSchema</text><circle r="2.5" fill="#999" stroke-width="10"/><text dy="0.31em" x="6" text-anchor="start">DataSchema</text></g><g transform="translate(318, -97.5)" fill-opacity="1" stroke-opacity="1"><text dy="0.31em" x="6" text-anchor="start" stroke-linejoin="round" stroke-width="3" stroke="white">DataField</text><circle r="2.5" fill="#999" stroke-width="10"/><text dy="0.31em" x="6" text-anchor="start">DataField</text></g><g transform="translate(318, -107.5)" fill-opacity="1" stroke-opacity="1"><text dy="0.31em" x="-6" text-anchor="end" stroke-linejoin="round" stroke-width="3" stroke="white">converters</text><circle r="2.5" fill="#555" stroke-width="10"/><text dy="0.31em" x="-6" text-anchor="end">converters</text></g><g transform="translate(159, 97.5)" fill-opacity="1" stroke-opacity="1"><text dy="0.31em" x="-6" text-anchor="end" stroke-linejoin="round" stroke-width="3" stroke="white">vis</text><circle r="2.5" fill="#555" stroke-width="10"/><text dy="0.31em" x="-6" text-anchor="end">vis</text></g><g transform="translate(159, 87.5)" fill-opacity="1" stroke-opacity="1"><text dy="0.31em" x="-6" text-anchor="end" stroke-linejoin="round" stroke-width="3" stroke="white">util</text><circle r="2.5" fill="#555" stroke-width="10"/><text dy="0.31em" x="-6" text-anchor="end">util</text></g><g transform="translate(159, 77.5)" fill-opacity="1" stroke-opacity="1"><text dy="0.31em" x="-6" text-anchor="end" stroke-linejoin="round" stroke-width="3" stroke="white">scale</text><circle r="2.5" fill="#555" stroke-width="10"/><text dy="0.31em" x="-6" text-anchor="end">scale</text></g><g transform="translate(159, 67.5)" fill-opacity="1" stroke-opacity="1"><text dy="0.31em" x="-6" text-anchor="end" stroke-linejoin="round" stroke-width="3" stroke="white">query</text><circle r="2.5" fill="#555" stroke-width="10"/><text dy="0.31em" x="-6" text-anchor="end">query</text></g><g transform="translate(159, 57.5)" fill-opacity="1" stroke-opacity="1"><text dy="0.31em" x="-6" text-anchor="end" stroke-linejoin="round" stroke-width="3" stroke="white">physics</text><circle r="2.5" fill="#555" stroke-width="10"/><text dy="0.31em" x="-6" text-anchor="end">physics</text></g><g transform="translate(159, 22.5)" fill-opacity="1" stroke-opacity="1"><text dy="0.31em" x="-6" text-anchor="end" stroke-linejoin="round" stroke-width="3" stroke="white">flex</text><circle r="2.5" fill="#555" stroke-width="10"/><text dy="0.31em" x="-6" text-anchor="end">flex</text></g><g transform="translate(159, -12.5)" fill-opacity="1" stroke-opacity="1"><text dy="0.31em" x="-6" text-anchor="end" stroke-linejoin="round" stroke-width="3" stroke="white">display</text><circle r="2.5" fill="#555" stroke-width="10"/><text dy="0.31em" x="-6" text-anchor="end">display</text></g><g transform="translate(159, -77.5)" fill-opacity="1" stroke-opacity="1"><text dy="0.31em" x="-6" text-anchor="end" stroke-linejoin="round" stroke-width="3" stroke="white">data</text><circle r="2.5" fill="#555" stroke-width="10"/><text dy="0.31em" x="-6" text-anchor="end">data</text></g><g transform="translate(159, -87.5)" fill-opacity="1" stroke-opacity="1"><text dy="0.31em" x="-6" text-anchor="end" stroke-linejoin="round" stroke-width="3" stroke="white">animate</text><circle r="2.5" fill="#555" stroke-width="10"/><text dy="0.31em" x="-6" text-anchor="end">animate</text></g><g transform="translate(159, -97.5)" fill-opacity="1" stroke-opacity="1"><text dy="0.31em" x="-6" text-anchor="end" stroke-linejoin="round" stroke-width="3" stroke="white">analytics</text><circle r="2.5" fill="#555" stroke-width="10"/><text dy="0.31em" x="-6" text-anchor="end">analytics</text></g><g transform="" fill-opacity="1" stroke-opacity="1"><text dy="0.31em" x="-6" text-anchor="end" stroke-linejoin="round" stroke-width="3" stroke="white">flare</text><circle r="2.5" fill="#555" stroke-width="10"/><text dy="0.31em" x="-6" text-anchor="end">flare</text></g></g></svg>