<?xml version="1.0" encoding="UTF-8"?>
<svg width="1794px" height="512px" viewBox="0 0 1794 512" version="1.1" xmlns="http://www.w3.org/2000/svg" xmlns:xlink="http://www.w3.org/1999/xlink">
    <!-- Generator: Sketch 57.1 (83088) - https://sketch.com -->
    <title>Machine Learning Adjusted</title>
    <desc>Created with Sketch.</desc>
    <defs>
        <rect id="path-1" x="0" y="0" width="585" height="315" rx="8"></rect>
        <filter x="-1.4%" y="-2.2%" width="103.4%" height="106.3%" filterUnits="objectBoundingBox" id="filter-2">
            <feMorphology radius="2.5" operator="dilate" in="SourceAlpha" result="shadowSpreadOuter1"></feMorphology>
            <feOffset dx="2" dy="3" in="shadowSpreadOuter1" result="shadowOffsetOuter1"></feOffset>
            <feGaussianBlur stdDeviation="2" in="shadowOffsetOuter1" result="shadowBlurOuter1"></feGaussianBlur>
            <feComposite in="shadowBlurOuter1" in2="SourceAlpha" operator="out" result="shadowBlurOuter1"></feComposite>
            <feColorMatrix values="0 0 0 0 0   0 0 0 0 0   0 0 0 0 0  0 0 0 0.5 0" type="matrix" in="shadowBlurOuter1"></feColorMatrix>
        </filter>
        <rect id="path-3" x="1243" y="178" width="87" height="67" rx="8"></rect>
        <filter x="-9.2%" y="-10.4%" width="123.0%" height="129.9%" filterUnits="objectBoundingBox" id="filter-4">
            <feMorphology radius="2.5" operator="dilate" in="SourceAlpha" result="shadowSpreadOuter1"></feMorphology>
            <feOffset dx="2" dy="3" in="shadowSpreadOuter1" result="shadowOffsetOuter1"></feOffset>
            <feGaussianBlur stdDeviation="2" in="shadowOffsetOuter1" result="shadowBlurOuter1"></feGaussianBlur>
            <feComposite in="shadowBlurOuter1" in2="SourceAlpha" operator="out" result="shadowBlurOuter1"></feComposite>
            <feColorMatrix values="0 0 0 0 0   0 0 0 0 0   0 0 0 0 0  0 0 0 0.5 0" type="matrix" in="shadowBlurOuter1"></feColorMatrix>
        </filter>
    </defs>
    <g id="Machine-Learning-Adjusted" stroke="none" stroke-width="1" fill="none" fill-rule="evenodd">
        <g id="Group" transform="translate(-279.000000, -129.000000)">
            <ellipse id="Oval" fill="#ABD2FF" cx="449.5" cy="257" rx="449.5" ry="257"></ellipse>
            <text id="Data" font-family="Chalkduster" font-size="48" font-weight="normal" fill="#151515">
                <tspan x="391.047514" y="270">Data</tspan>
            </text>
        </g>
        <g id="Group-2" transform="translate(269.000000, 46.000000)">
            <g id="Rectangle">
                <use fill="black" fill-opacity="1" filter="url(#filter-2)" xlink:href="#path-1"></use>
                <use stroke="#4D4D4D" stroke-width="5" fill="#D8D8D8" fill-rule="evenodd" xlink:href="#path-1"></use>
            </g>
            <text id="Machine-Learning-Tra" font-family="Chalkduster" font-size="36" font-weight="normal">
                <tspan x="211.512707" y="115" fill="#151515">Machine</tspan>
                <tspan x="203.537017" y="169" fill="#151515">Learning</tspan>
                <tspan x="206.082873" y="223" fill="#DD0404">Training</tspan>
            </text>
        </g>
        <g id="Group" transform="translate(69.000000, 245.000000)">
            <ellipse id="Oval" fill="#B8E986" cx="101.5" cy="58" rx="101.5" ry="58"></ellipse>
            <text id="Answers" font-family="Chalkduster" font-size="40" font-weight="normal" fill="#151515">
                <tspan x="13.4696133" y="71">Answers</tspan>
            </text>
        </g>
        <path id="Line" d="M270.713922,125.448783 L375.559,152.87 L378.59632,141.260553 L402.98373,162.626514 L371.258516,169.316865 L374.294,157.707 L269.448783,130.286078 L270.713922,125.448783 Z" fill="#979797" fill-rule="nonzero"></path>
        <g id="Group" transform="translate(792.000000, 315.000000)">
            <ellipse id="Oval" fill="#ABD2FF" cx="101.5" cy="68" rx="101.5" ry="58"></ellipse>
            <text id="New-Data" font-family="Chalkduster" font-size="48" font-weight="normal" fill="#151515">
                <tspan x="50.8972376" y="47">New</tspan>
                <tspan x="43.0475138" y="108">Data</tspan>
            </text>
        </g>
        <path id="Line" d="M1111.81235,238.109566 L1105.01879,269.812839 L1095.648,262.316 L995.890434,387.01391 L991.98609,383.890434 L1091.744,259.193 L1082.37359,251.696683 L1111.81235,238.109566 Z" fill="#979797" fill-rule="nonzero"></path>
        <path id="Line" d="M1083.05799,173.88657 L1112,188.501992 L1082.94246,202.88634 L1082.99,190.886 L983.49006,190.49002 L983.50998,185.49006 L1083.009,185.886 L1083.05799,173.88657 Z" fill="#979797" fill-rule="nonzero"></path>
        <path id="Line-Copy" d="M371.663948,260.631969 L403.481865,266.86656 L379.403441,288.580139 L376.2,277.015 L271.257873,306.076523 L269.923477,301.257873 L374.866,272.196 L371.663948,260.631969 Z" fill="#979797" fill-rule="nonzero"></path>
        <path id="Line-Copy-2" d="M786.292395,188.666972 L815.249998,203.251458 L786.207847,217.666848 L786.242,205.666 L726.492722,205.492701 L726.507299,200.492722 L786.257,200.666 L786.292395,188.666972 Z" fill="#979797" fill-rule="nonzero"></path>
        <path id="Line-Copy-2" d="M1505.16739,189.791972 L1534.125,204.376458 L1505.08285,218.791848 L1505.117,206.791 L1445.36772,206.617701 L1445.3823,201.617722 L1505.132,201.791 L1505.16739,189.791972 Z" fill="#979797" fill-rule="nonzero"></path>
        <g id="Group-4" transform="translate(822.000000, 116.000000)">
            <polygon id="Path" stroke="#FFFFFF" stroke-width="2" fill="#171717" points="0 39 48.2352941 0 164 0.795918367 115.764706 39"></polygon>
            <polygon id="Path-2" stroke="#FFFFFF" stroke-width="2" fill="#171717" points="116 158 164 119.55102 164 1 116 39.4489796"></polygon>
            <rect id="Rectangle" stroke="#FFFFFF" stroke-width="2" fill="#171717" x="0" y="39" width="116" height="119"></rect>
            <text id="Models" font-family="Chalkduster" font-size="36" font-weight="normal" fill="#4A90E2">
                <tspan x="9.28121547" y="99">Models</tspan>
            </text>
        </g>
        <g id="Rectangle">
            <use fill="black" fill-opacity="1" filter="url(#filter-4)" xlink:href="#path-3"></use>
            <use stroke="#4D4D4D" stroke-width="5" fill="#F5F5F5" fill-rule="evenodd" xlink:href="#path-3"></use>
        </g>
        <text id="Machine-Learning-Pre" font-family="Chalkduster" font-size="36" font-weight="normal">
            <tspan x="1205.01271" y="167" fill="#151515">Machine</tspan>
            <tspan x="1197.03702" y="221" fill="#151515">Learning</tspan>
            <tspan x="1178.40055" y="275" fill="#D0021B">Prediction</tspan>
        </text>
        <g id="Group" transform="translate(1534.000000, 146.000000)">
            <ellipse id="Oval" fill="#B8E986" cx="101.5" cy="58" rx="101.5" ry="58"></ellipse>
            <text id="Answers" font-family="Chalkduster" font-size="40" font-weight="normal" fill="#151515">
                <tspan x="13.4696133" y="71">Answers</tspan>
            </text>
        </g>
    </g>
</svg>