<?xml version="1.0" encoding="UTF-8"?>
<svg width="1794px" height="512px" viewBox="0 0 1794 512" version="1.1" xmlns="http://www.w3.org/2000/svg" xmlns:xlink="http://www.w3.org/1999/xlink">
    <!-- Generator: Sketch 57.1 (83088) - https://sketch.com -->
    <title>Machine Learning Full</title>
    <desc>Created with Sketch.</desc>
    <defs>
        <rect id="path-1" x="0" y="0" width="319" height="217" rx="8"></rect>
        <filter x="-2.5%" y="-3.2%" width="106.3%" height="109.2%" filterUnits="objectBoundingBox" id="filter-2">
            <feMorphology radius="2.5" operator="dilate" in="SourceAlpha" result="shadowSpreadOuter1"></feMorphology>
            <feOffset dx="2" dy="3" in="shadowSpreadOuter1" result="shadowOffsetOuter1"></feOffset>
            <feGaussianBlur stdDeviation="2" in="shadowOffsetOuter1" result="shadowBlurOuter1"></feGaussianBlur>
            <feComposite in="shadowBlurOuter1" in2="SourceAlpha" operator="out" result="shadowBlurOuter1"></feComposite>
            <feColorMatrix values="0 0 0 0 0   0 0 0 0 0   0 0 0 0 0  0 0 0 0.5 0" type="matrix" in="shadowBlurOuter1"></feColorMatrix>
        </filter>
        <rect id="path-3" x="1058" y="33" width="319" height="217" rx="8"></rect>
        <filter x="-2.5%" y="-3.2%" width="106.3%" height="109.2%" filterUnits="objectBoundingBox" id="filter-4">
            <feMorphology radius="2.5" operator="dilate" in="SourceAlpha" result="shadowSpreadOuter1"></feMorphology>
            <feOffset dx="2" dy="3" in="shadowSpreadOuter1" result="shadowOffsetOuter1"></feOffset>
            <feGaussianBlur stdDeviation="2" in="shadowOffsetOuter1" result="shadowBlurOuter1"></feGaussianBlur>
            <feComposite in="shadowBlurOuter1" in2="SourceAlpha" operator="out" result="shadowBlurOuter1"></feComposite>
            <feColorMatrix values="0 0 0 0 0   0 0 0 0 0   0 0 0 0 0  0 0 0 0.5 0" type="matrix" in="shadowBlurOuter1"></feColorMatrix>
        </filter>
    </defs>
    <g id="Machine-Learning-Full" stroke="none" stroke-width="1" fill="none" fill-rule="evenodd">
        <g id="Group-3" transform="translate(69.000000, 70.000000)">
            <g id="Group-2" transform="translate(333.000000, 25.000000)">
                <g id="Rectangle">
                    <use fill="black" fill-opacity="1" filter="url(#filter-2)" xlink:href="#path-1"></use>
                    <use stroke="#4D4D4D" stroke-width="5" fill="#D8D8D8" fill-rule="evenodd" xlink:href="#path-1"></use>
                </g>
                <text id="Machine-Learning-Tra" font-family="Chalkduster" font-size="36" font-weight="normal">
                    <tspan x="78.0127072" y="68" fill="#151515">Machine</tspan>
                    <tspan x="70.0370166" y="122" fill="#151515">Learning</tspan>
                    <tspan x="72.5828729" y="176" fill="#DD0404">Training</tspan>
                </text>
            </g>
            <g id="Group">
                <ellipse id="Oval" fill="#ABD2FF" cx="101.5" cy="58" rx="101.5" ry="58"></ellipse>
                <text id="Data" font-family="Chalkduster" font-size="48" font-weight="normal" fill="#151515">
                    <tspan x="43.0475138" y="71">Data</tspan>
                </text>
            </g>
            <g id="Group" transform="translate(0.000000, 175.000000)">
                <ellipse id="Oval" fill="#B8E986" cx="101.5" cy="58" rx="101.5" ry="58"></ellipse>
                <text id="Answers" font-family="Chalkduster" font-size="40" font-weight="normal" fill="#151515">
                    <tspan x="13.4696133" y="71">Answers</tspan>
                </text>
            </g>
            <path id="Line" d="M201.713922,55.4487831 L306.559,82.87 L309.59632,71.2605535 L333.98373,92.6265139 L302.258516,99.3168651 L305.294,87.707 L200.448783,60.2860782 L201.713922,55.4487831 Z" fill="#979797" fill-rule="nonzero"></path>
            <g id="Group" transform="translate(723.000000, 245.000000)">
                <ellipse id="Oval" fill="#ABD2FF" cx="101.5" cy="68" rx="101.5" ry="58"></ellipse>
                <text id="New-Data" font-family="Chalkduster" font-size="48" font-weight="normal" fill="#151515">
                    <tspan x="50.8972376" y="47">New</tspan>
                    <tspan x="43.0475138" y="108">Data</tspan>
                </text>
            </g>
            <path id="Line" d="M1042.81235,168.109566 L1036.01879,199.812839 L1026.648,192.316 L926.890434,317.01391 L922.98609,313.890434 L1022.744,189.193 L1013.37359,181.696683 L1042.81235,168.109566 Z" fill="#979797" fill-rule="nonzero"></path>
            <path id="Line" d="M1014.05799,103.88657 L1043,118.501992 L1013.94246,132.88634 L1013.99,120.886 L914.49006,120.49002 L914.50998,115.49006 L1014.009,115.886 L1014.05799,103.88657 Z" fill="#979797" fill-rule="nonzero"></path>
            <path id="Line-Copy" d="M302.663948,190.631969 L334.481865,196.86656 L310.403441,218.580139 L307.2,207.015 L202.257873,236.076523 L200.923477,231.257873 L305.866,202.196 L302.663948,190.631969 Z" fill="#979797" fill-rule="nonzero"></path>
            <path id="Line-Copy-2" d="M717.292395,118.666972 L746.249998,133.251458 L717.207847,147.666848 L717.242,135.666 L657.492722,135.492701 L657.507299,130.492722 L717.257,130.666 L717.292395,118.666972 Z" fill="#979797" fill-rule="nonzero"></path>
            <path id="Line-Copy-2" d="M1436.16739,119.791972 L1465.125,134.376458 L1436.08285,148.791848 L1436.117,136.791 L1376.36772,136.617701 L1376.3823,131.617722 L1436.132,131.791 L1436.16739,119.791972 Z" fill="#979797" fill-rule="nonzero"></path>
            <g id="Group-4" transform="translate(753.000000, 46.000000)">
                <polygon id="Path" stroke="#FFFFFF" stroke-width="2" fill="#171717" points="0 39 48.2352941 0 164 0.795918367 115.764706 39"></polygon>
                <polygon id="Path-2" stroke="#FFFFFF" stroke-width="2" fill="#171717" points="116 158 164 119.55102 164 1 116 39.4489796"></polygon>
                <rect id="Rectangle" stroke="#FFFFFF" stroke-width="2" fill="#171717" x="0" y="39" width="116" height="119"></rect>
                <text id="Models" font-family="Chalkduster" font-size="36" font-weight="normal" fill="#4A90E2">
                    <tspan x="9.28121547" y="99">Models</tspan>
                </text>
            </g>
            <g id="Rectangle">
                <use fill="black" fill-opacity="1" filter="url(#filter-4)" xlink:href="#path-3"></use>
                <use stroke="#4D4D4D" stroke-width="5" fill="#F5F5F5" fill-rule="evenodd" xlink:href="#path-3"></use>
            </g>
            <text id="Machine-Learning-Pre" font-family="Chalkduster" font-size="36" font-weight="normal">
                <tspan x="1136.01271" y="97" fill="#151515">Machine</tspan>
                <tspan x="1128.03702" y="151" fill="#151515">Learning</tspan>
                <tspan x="1109.40055" y="205" fill="#D0021B">Prediction</tspan>
            </text>
            <g id="Group" transform="translate(1465.000000, 76.000000)">
                <ellipse id="Oval" fill="#B8E986" cx="101.5" cy="58" rx="101.5" ry="58"></ellipse>
                <text id="Answers" font-family="Chalkduster" font-size="40" font-weight="normal" fill="#151515">
                    <tspan x="13.4696133" y="71">Answers</tspan>
                </text>
            </g>
        </g>
    </g>
</svg>