<svg style="max-width: 100%; height: auto; font: 10px sans-serif; margin: 5px;" viewBox="-474.9798583984375,-481.74810791015625,964.5263061523438,909.4223022460938" xmlns="http://www.w3.org/2000/svg" xmlns:xlink="http://www.w3.org/1999/xlink"><g fill="none" stroke="#555" stroke-opacity="0.4" stroke-width="1.5"><path d="M0,0C145.2762481023433,-3.245673051371963,9.12424736910337,-145.0257589747332,18.24849473820674,-290.0515179494664"/><path d="M0,0C145.2762481023433,-3.245673051371963,21.82965591911001,-143.66345665722812,43.65931183822002,-287.32691331445625"/><path d="M0,0C145.2762481023433,-3.245673051371963,41.41686157766841,-139.28519746658742,82.83372315533683,-278.57039493317484"/><path d="M0,0C145.2762481023433,-3.245673051371963,74.75449475262515,-124.60934222814011,149.5089895052503,-249.21868445628022"/><path d="M0,0C96.85083206822885,-2.1637820342479754,73.86161825423402,-62.68354627703991,147.72323650846803,-125.36709255407982"/><path d="M0,0C96.85083206822885,-2.1637820342479754,89.53960281734027,-36.978712150546166,179.07920563468053,-73.95742430109233"/><path d="M0,0C96.85083206822885,-2.1637820342479754,96.40317831301014,9.54949402586172,192.8063566260203,19.09898805172344"/><path d="M0,0C96.85083206822885,-2.1637820342479754,73.75285843678436,62.81147584162982,147.50571687356873,125.62295168325964"/><path d="M0,0C96.85083206822885,-2.1637820342479754,-52.28634729299674,81.55307174935922,-104.57269458599347,163.10614349871844"/><path d="M0,0C48.42541603411443,-1.0818910171239877,-48.42178066606719,-1.2339219494284743,-96.84356133213439,-2.4678438988569487"/><path d="M18.24849473820674,-290.0515179494664C21.289910527907864,-338.39343760771084,8.520672986256631,-338.9554204288689,9.737911984293293,-387.3776233472787"/><path d="M18.24849473820674,-290.0515179494664C21.289910527907864,-338.39343760771084,17.03596413282813,-338.6342493492278,19.46967329466072,-387.01057068483175"/><path d="M18.24849473820674,-290.0515179494664C21.289910527907864,-338.39343760771084,25.5404949993147,-338.09918961961444,29.18913714207394,-386.3990738509879"/><path d="M18.24849473820674,-290.0515179494664C21.289910527907864,-338.39343760771084,34.02889394174006,-337.3505791952221,38.89016450484578,-385.5435190802538"/><path d="M43.65931183822002,-287.32691331445625C50.935863811256695,-335.21473220019897,50.935863811256695,-335.21473220019897,58.21241578429336,-383.1025510859417"/><path d="M82.83372315533683,-278.57039493317484C96.6393436812263,-324.998794088704,67.71416526816613,-332.2321036990337,77.38761744933271,-379.69383279889564"/><path d="M82.83372315533683,-278.57039493317484C96.6393436812263,-324.998794088704,76.04180488439954,-330.4255178041988,86.9049198678852,-377.62916320479866"/><path d="M82.83372315533683,-278.57039493317484C96.6393436812263,-324.998794088704,84.32141486683356,-328.41022807017646,96.36733127638121,-375.32597493734454"/><path d="M82.83372315533683,-278.57039493317484C96.6393436812263,-324.998794088704,92.54776563634306,-326.1875073971573,105.7688750129635,-372.7857227396083"/><path d="M82.83372315533683,-278.57039493317484C96.6393436812263,-324.998794088704,100.71566125346338,-323.7587597031586,115.10361286110101,-370.01001108932417"/><path d="M82.83372315533683,-278.57039493317484C96.6393436812263,-324.998794088704,108.81994270025702,-321.12551903728047,124.36564880029374,-367.0005931854634"/><path d="M82.83372315533683,-278.57039493317484C96.6393436812263,-324.998794088704,116.85549113885968,-318.28944861076667,133.54913273012534,-363.7593698408762"/><path d="M82.83372315533683,-278.57039493317484C96.6393436812263,-324.998794088704,124.81723114464866,-315.25233974648523,142.64826416531275,-360.2883882816974"/><path d="M149.5089895052503,-249.21868445628022C174.42715442279203,-290.75513186566025,140.49922043053544,-308.58280568538135,160.57053763489765,-352.6660636404358"/><path d="M149.5089895052503,-249.21868445628022C174.42715442279203,-290.75513186566025,148.2095646300819,-304.9545931092227,169.38235957723646,-348.5195349819688"/><path d="M149.5089895052503,-249.21868445628022C174.42715442279203,-290.75513186566025,155.82629649197324,-301.13376467584243,178.08719599082656,-344.1528739152485"/><path d="M149.5089895052503,-249.21868445628022C174.42715442279203,-290.75513186566025,163.34460512511288,-297.12273370237244,186.67954871441472,-339.5688385169971"/><path d="M149.5089895052503,-249.21868445628022C174.42715442279203,-290.75513186566025,170.75974180462518,-292.9240336419457,195.15399063385735,-334.7703241622237"/><path d="M149.5089895052503,-249.21868445628022C174.42715442279203,-290.75513186566025,178.0670229712518,-288.54031648351275,203.50516911000204,-329.7603616954431"/><path d="M149.5089895052503,-249.21868445628022C174.42715442279203,-290.75513186566025,185.26183318958812,-283.97435107678865,211.7278093595293,-324.5421155163299"/><path d="M149.5089895052503,-249.21868445628022C174.42715442279203,-290.75513186566025,192.33962806329092,-279.22902138338867,219.8167177866182,-319.1188815810156"/><path d="M149.5089895052503,-249.21868445628022C174.42715442279203,-290.75513186566025,199.2959371054167,-274.30732465525557,227.7667852633334,-313.4940853202921"/><path d="M149.5089895052503,-249.21868445628022C174.42715442279203,-290.75513186566025,206.12636656207718,-269.21236954153164,235.57299035665963,-307.67127947603615"/><path d="M147.72323650846803,-125.36709255407982C184.65404563558505,-156.70886569259977,163.5571644668106,-178.61645811018275,196.26859736017275,-214.3397497322193"/><path d="M147.72323650846803,-125.36709255407982C184.65404563558505,-156.70886569259977,186.60867598476148,-154.37612251726077,223.9304111817138,-185.25134702071293"/><path d="M147.72323650846803,-125.36709255407982C184.65404563558505,-156.70886569259977,201.1599443364859,-134.86831336823303,241.39193320378305,-161.84197604187963"/><path d="M179.07920563468053,-73.95742430109233C268.6188084520208,-110.93613645163849,249.21868445628022,-149.5089895052503,332.29157927504025,-199.34531934033373"/><path d="M179.07920563468053,-73.95742430109233C268.6188084520208,-110.93613645163849,252.8971537008309,-143.19888363747222,337.1962049344412,-190.93184484996297"/><path d="M179.07920563468053,-73.95742430109233C268.6188084520208,-110.93613645163849,256.41588768265825,-136.7983302855498,341.88785024354434,-182.3977737140664"/><path d="M179.07920563468053,-73.95742430109233C268.6188084520208,-110.93613645163849,259.772663893961,-130.31137217616566,346.36355185861464,-173.74849623488757"/><path d="M179.07920563468053,-73.95742430109233C268.6188084520208,-110.93613645163849,262.96536212293694,-123.74210661109923,350.6204828305826,-164.98947548146563"/><path d="M179.07920563468053,-73.95742430109233C268.6188084520208,-110.93613645163849,265.99196579295415,-117.0946828792832,354.65595439060553,-156.12624383904426"/><path d="M179.07920563468053,-73.95742430109233C268.6188084520208,-110.93613645163849,268.85056323626435,-110.37329963602343,358.46741764835247,-147.16439951469792"/><path d="M179.07920563468053,-73.95742430109233C268.6188084520208,-110.93613645163849,271.53934890145285,-103.58220225103848,362.05246520193714,-138.10960300138464"/><path d="M179.07920563468053,-73.95742430109233C268.6188084520208,-110.93613645163849,274.05662449386375,-96.72568012699298,365.408832658485,-128.9675735026573"/><path d="M179.07920563468053,-73.95742430109233C268.6188084520208,-110.93613645163849,276.400800048279,-89.80806399021908,368.534400064372,-119.74408532029211"/><path d="M179.07920563468053,-73.95742430109233C268.6188084520208,-110.93613645163849,278.57039493317484,-82.83372315533681,371.42719324423314,-110.44496420711575"/><path d="M179.07920563468053,-73.95742430109233C223.84900704335067,-92.44678037636541,239.87737653590773,-33.37108602518575,287.8528518430893,-40.04530323022289"/><path d="M192.8063566260203,19.09898805172344C289.20953493903045,28.648482077585157,290.60205347173405,3.6520053410993825,387.46940462897874,4.869340454799176"/><path d="M192.8063566260203,19.09898805172344C289.20953493903045,28.648482077585157,290.41850298617123,10.953709338449753,387.2246706482283,14.604945784599673"/><path d="M192.8063566260203,19.09898805172344C289.20953493903045,28.648482077585157,290.0515179494664,18.248494738206723,386.7353572659552,24.331326317608966"/><path d="M192.8063566260203,19.09898805172344C289.20953493903045,28.648482077585157,289.5013301572345,25.531753997559758,386.0017735429793,34.04233866341301"/><path d="M192.8063566260203,19.09898805172344C289.20953493903045,28.648482077585157,288.7682871198774,32.798886853855635,385.02438282650326,43.731849138474175"/><path d="M192.8063566260203,19.09898805172344C289.20953493903045,28.648482077585157,287.85285184308924,40.045303230222956,383.8038024574523,53.393737640297275"/><path d="M192.8063566260203,19.09898805172344C241.00794578252538,23.873735064654298,235.3170603152726,57.27710084168327,282.3804723783271,68.73252101001992"/><path d="M147.50571687356873,125.62295168325964C221.25857531035308,188.43442752488946,274.05662449386375,96.72568012699298,365.408832658485,128.9675735026573"/><path d="M147.50571687356873,125.62295168325964C221.25857531035308,188.43442752488946,271.53934890145285,103.58220225103848,362.05246520193714,138.10960300138464"/><path d="M147.50571687356873,125.62295168325964C221.25857531035308,188.43442752488946,268.85056323626435,110.37329963602343,358.46741764835247,147.16439951469792"/><path d="M147.50571687356873,125.62295168325964C221.25857531035308,188.43442752488946,265.99196579295415,117.0946828792832,354.65595439060553,156.12624383904426"/><path d="M147.50571687356873,125.62295168325964C221.25857531035308,188.43442752488946,262.9653621229369,123.74210661109927,350.62048283058255,164.9894754814657"/><path d="M147.50571687356873,125.62295168325964C221.25857531035308,188.43442752488946,259.772663893961,130.3113721761656,346.3635518586147,173.74849623488745"/><path d="M147.50571687356873,125.62295168325964C221.25857531035308,188.43442752488946,256.41588768265825,136.7983302855498,341.88785024354434,182.3977737140664"/><path d="M147.50571687356873,125.62295168325964C221.25857531035308,188.43442752488946,252.8971537008309,143.19888363747222,337.1962049344412,190.93184484996297"/><path d="M147.50571687356873,125.62295168325964C221.25857531035308,188.43442752488946,249.21868445628016,149.50898950525033,332.29157927504025,199.3453193403338"/><path d="M147.50571687356873,125.62295168325964C221.25857531035308,188.43442752488946,245.38280334902308,155.72466229077097,327.17707113203073,207.6328830543613"/><path d="M147.50571687356873,125.62295168325964C221.25857531035308,188.43442752488946,241.3919332037831,161.84197604187955,321.8559109383775,215.78930138917275"/><path d="M147.50571687356873,125.62295168325964C221.25857531035308,188.43442752488946,237.2485947396816,167.8570669320965,316.33145965290885,223.80942257612867"/><path d="M147.50571687356873,125.62295168325964C221.25857531035308,188.43442752488946,232.95540497809858,173.76613570109134,310.6072066374648,231.68818093478845"/><path d="M147.50571687356873,125.62295168325964C221.25857531035308,188.43442752488946,228.5150755897049,179.56545005437837,304.6867674529399,239.4206000725045"/><path d="M147.50571687356873,125.62295168325964C221.25857531035308,188.43442752488946,223.9304111817137,185.25134702071296,298.5738815756183,247.00179602761727"/><path d="M147.50571687356873,125.62295168325964C221.25857531035308,188.43442752488946,219.2043075264302,190.82023526570293,292.2724100352402,254.42698035427057"/><path d="M147.50571687356873,125.62295168325964C221.25857531035308,188.43442752488946,214.3397497322193,196.26859736017275,285.7863329762924,261.691463146897"/><path d="M147.50571687356873,125.62295168325964C221.25857531035308,188.43442752488946,209.339810358048,201.5929920018464,279.119747144064,268.79065600246184"/><path d="M147.50571687356873,125.62295168325964C221.25857531035308,188.43442752488946,204.20764747279054,206.79005618894854,272.27686329705404,275.7200749185981"/><path d="M147.50571687356873,125.62295168325964C221.25857531035308,188.43442752488946,198.9465026605252,211.85650734434768,265.26200354736693,282.4753431257969"/><path d="M147.50571687356873,125.62295168325964C221.25857531035308,188.43442752488946,193.55969897307938,216.78914538890294,258.0795986307725,289.0521938518706"/><path d="M147.50571687356873,125.62295168325964C221.25857531035308,188.43442752488946,188.05063883111973,221.58485476270207,250.73418510815964,295.4464730169361"/><path d="M147.50571687356873,125.62295168325964C221.25857531035308,188.43442752488946,182.42280187510985,226.24060639291616,243.23040250014648,301.65414185722153"/><path d="M147.50571687356873,125.62295168325964C221.25857531035308,188.43442752488946,176.67974276749464,230.75345960702717,235.57299035665955,307.6712794760362"/><path d="M147.50571687356873,125.62295168325964C221.25857531035308,188.43442752488946,170.82508894750003,235.12056399021907,227.7667852633334,313.4940853202921"/><path d="M147.50571687356873,125.62295168325964C221.25857531035308,188.43442752488946,164.86253833996358,239.33916118576175,219.8167177866181,319.11888158101567"/><path d="M147.50571687356873,125.62295168325964C221.25857531035308,188.43442752488946,158.79585701964697,243.40658663724741,211.7278093595293,324.5421155163299"/><path d="M147.50571687356873,125.62295168325964C221.25857531035308,188.43442752488946,152.62887683250167,247.32027127158227,203.5051691100022,329.76036169544307"/><path d="M147.50571687356873,125.62295168325964C184.3821460919609,157.02868960407454,27.332405711546375,240.64023926656452,32.79888685385565,288.7682871198774"/><path d="M-104.57269458599347,163.10614349871844C-156.8590418789902,244.65921524807766,-93.27423660022028,275.25044488909754,-124.3656488002937,367.0005931854634"/><path d="M-104.57269458599347,163.10614349871844C-156.8590418789902,244.65921524807766,-100.16184954759409,272.8195273806571,-133.54913273012545,363.75936984087616"/><path d="M-104.57269458599347,163.10614349871844C-156.8590418789902,244.65921524807766,-106.98619812398465,270.216291211273,-142.64826416531287,360.28838828169734"/><path d="M-104.57269458599347,163.10614349871844C-156.8590418789902,244.65921524807766,-113.74297192456189,267.44238064070606,-151.65729589941586,356.58984085427477"/><path d="M-104.57269458599347,163.10614349871844C-156.8590418789902,244.65921524807766,-120.42790322617309,264.4995477303269,-160.57053763489745,352.6660636404359"/><path d="M-104.57269458599347,163.10614349871844C-156.8590418789902,244.65921524807766,-127.03676968292731,261.3896512364766,-169.38235957723643,348.5195349819688"/><path d="M-104.57269458599347,163.10614349871844C-156.8590418789902,244.65921524807766,-133.56539699311978,258.1146554364364,-178.0871959908264,344.15287391524856"/><path d="M-104.57269458599347,163.10614349871844C-156.8590418789902,244.65921524807766,-140.00966153581092,254.67662888774788,-186.67954871441455,339.5688385169972"/><path d="M-104.57269458599347,163.10614349871844C-156.8590418789902,244.65921524807766,-146.36549297539284,251.07774312166785,-195.15399063385715,334.7703241622238"/><path d="M-104.57269458599347,163.10614349871844C-156.8590418789902,244.65921524807766,-152.62887683250148,247.32027127158238,-203.50516911000196,329.7603616954432"/><path d="M-104.57269458599347,163.10614349871844C-156.8590418789902,244.65921524807766,-158.79585701964692,243.40658663724744,-211.72780935952923,324.54211551632994"/><path d="M-104.57269458599347,163.10614349871844C-156.8590418789902,244.65921524807766,-164.86253833996352,239.33916118576178,-219.81671778661803,319.1188815810157"/><path d="M-104.57269458599347,163.10614349871844C-156.8590418789902,244.65921524807766,-170.82508894749998,235.1205639902191,-227.7667852633333,313.49408532029213"/><path d="M-104.57269458599347,163.10614349871844C-156.8590418789902,244.65921524807766,-176.6797427674946,230.75345960702722,-235.57299035665946,307.6712794760363"/><path d="M-104.57269458599347,163.10614349871844C-156.8590418789902,244.65921524807766,-182.4228018751098,226.24060639291622,-243.2304025001464,301.65414185722165"/><path d="M-104.57269458599347,163.10614349871844C-156.8590418789902,244.65921524807766,-188.05063883111967,221.5848547627021,-250.73418510815955,295.4464730169361"/><path d="M-104.57269458599347,163.10614349871844C-130.71586823249186,203.88267937339805,-167.99416000153863,174.44984196504,-201.59299200184637,209.33981035804803"/><path d="M-104.57269458599347,163.10614349871844C-130.71586823249186,203.88267937339805,-182.67025627202514,159.01686272141913,-219.2043075264302,190.82023526570296"/><path d="M-104.57269458599347,163.10614349871844C-130.71586823249186,203.88267937339805,-199.4493009881348,137.38544861663632,-239.33916118576175,164.86253833996358"/><path d="M-96.84356133213439,-2.4678438988569487C-242.10890333033598,-6.169609747142372,-210.74762808402576,119.33240303122686,-337.1962049344412,190.93184484996297"/><path d="M-96.84356133213439,-2.4678438988569487C-193.68712266426877,-4.935687797713897,-177.32797719530276,78.06312191952215,-265.99196579295415,117.09468287928323"/><path d="M-96.84356133213439,-2.4678438988569487C-193.68712266426877,-4.935687797713897,-190.31815482868345,36.30512970098413,-285.4772322430252,54.457694551476195"/><path d="M-96.84356133213439,-2.4678438988569487C-193.68712266426877,-4.935687797713897,-193.68881167363935,-4.868955992146654,-290.53321751045905,-7.3034339882199815"/><path d="M-96.84356133213439,-2.4678438988569487C-193.68712266426877,-4.935687797713897,-191.90190122872616,-26.696868820148655,-287.85285184308924,-40.045303230222984"/><path d="M-96.84356133213439,-2.4678438988569487C-145.2653419982016,-3.701765848285423,-137.88354544209093,-45.86775068137575,-183.84472725612125,-61.157000908501004"/><path d="M-96.84356133213439,-2.4678438988569487C-145.2653419982016,-3.701765848285423,-99.95625970578709,-105.47259739799361,-133.27501294104945,-140.63012986399147"/><path d="M196.26859736017275,-214.3397497322193C228.98003025353486,-250.06304135425586,219.3924119696397,-258.51566388981905,250.7341851081597,-295.44647301693607"/><path d="M196.26859736017275,-214.3397497322193C228.98003025353486,-250.06304135425586,225.819648801926,-252.92066962038672,258.0795986307726,-289.0521938518705"/><path d="M196.26859736017275,-214.3397497322193C228.98003025353486,-250.06304135425586,232.104253103946,-247.16592523507236,265.2620035473669,-282.475343125797"/><path d="M196.26859736017275,-214.3397497322193C228.98003025353486,-250.06304135425586,238.24225538492232,-241.2550655537733,272.27686329705404,-275.7200749185981"/><path d="M223.9304111817138,-185.25134702071293C261.25214637866605,-216.1265715241651,250.06304135425586,-228.98003025353484,285.7863329762924,-261.6914631468969"/><path d="M223.9304111817138,-185.25134702071293C261.25214637866605,-216.1265715241651,255.73835878083523,-222.6236078099868,292.2724100352402,-254.4269803542706"/><path d="M223.9304111817138,-185.25134702071293C261.25214637866605,-216.1265715241651,261.25214637866605,-216.1265715241651,298.5738815756184,-247.00179602761725"/><path d="M223.9304111817138,-185.25134702071293C261.25214637866605,-216.1265715241651,266.60092152132233,-209.4930250634415,304.68676745293976,-239.42060007250458"/><path d="M223.9304111817138,-185.25134702071293C261.25214637866605,-216.1265715241651,271.7813058077816,-202.72715831793997,310.6072066374647,-231.68818093478853"/><path d="M241.39193320378305,-161.84197604187963C281.62392207108024,-188.81563871552623,281.62392207108024,-188.81563871552623,321.8559109383774,-215.78930138917283"/><path d="M287.8528518430893,-40.04530323022289C335.8283271502708,-46.719520435260044,329.44388444138167,-80.18794117835665,376.50729650443617,-91.64336134669333"/><path d="M287.8528518430893,-40.04530323022289C335.8283271502708,-46.719520435260044,331.3549731473406,-71.88366070794666,378.69139788267495,-82.15275509479619"/><path d="M287.8528518430893,-40.04530323022289C335.8283271502708,-46.719520435260044,333.05677095019604,-63.533976976722265,380.6363096573669,-72.6102594019683"/><path d="M287.8528518430893,-40.04530323022289C335.8283271502708,-46.719520435260044,334.54820295798027,-55.14416382389023,382.3408033805489,-63.02190151301741"/><path d="M287.8528518430893,-40.04530323022289C335.8283271502708,-46.719520435260044,335.8283271502708,-46.719520435260044,383.8038024574524,-53.39373764029719"/><path d="M287.8528518430893,-40.04530323022289C335.8283271502708,-46.719520435260044,336.89633497319033,-38.265367996164834,385.02438282650326,-43.73184913847409"/><path d="M287.8528518430893,-40.04530323022289C335.8283271502708,-46.719520435260044,337.7515518501069,-29.787046330486383,386.0017735429793,-34.04233866341301"/><path d="M287.8528518430893,-40.04530323022289C335.8283271502708,-46.719520435260044,338.39343760771084,-21.289910527907843,386.7353572659552,-24.331326317608966"/><path d="M287.8528518430893,-40.04530323022289C335.8283271502708,-46.719520435260044,338.8215868171998,-12.779327561524713,387.2246706482283,-14.604945784599673"/><path d="M282.3804723783271,68.73252101001992C329.44388444138167,80.18794117835658,333.056770950196,63.53397697672234,380.63630965736684,72.61025940196839"/><path d="M282.3804723783271,68.73252101001992C329.44388444138167,80.18794117835658,331.3549731473406,71.88366070794659,378.69139788267495,82.1527550947961"/><path d="M282.3804723783271,68.73252101001992C329.44388444138167,80.18794117835658,329.44388444138167,80.18794117835658,376.50729650443617,91.64336134669324"/><path d="M282.3804723783271,68.73252101001992C329.44388444138167,80.18794117835658,327.32471191690695,88.4415732264181,374.0853850478936,101.07608368733497"/><path d="M282.3804723783271,68.73252101001992C329.44388444138167,80.18794117835658,324.998794088704,96.63934368122628,371.42719324423314,110.44496420711575"/><path d="M32.79888685385565,288.7682871198774C38.265367996164926,336.89633497319033,163.34460512511293,297.12273370237244,186.6795487144148,339.5688385169971"/><path d="M32.79888685385565,288.7682871198774C38.265367996164926,336.89633497319033,155.82629649197324,301.13376467584243,178.08719599082656,344.1528739152485"/><path d="M32.79888685385565,288.7682871198774C38.265367996164926,336.89633497319033,148.2095646300819,304.9545931092227,169.38235957723646,348.5195349819688"/><path d="M32.79888685385565,288.7682871198774C38.265367996164926,336.89633497319033,140.49922043053544,308.58280568538135,160.57053763489765,352.6660636404358"/><path d="M32.79888685385565,288.7682871198774C38.265367996164926,336.89633497319033,132.7001339119889,312.0161107474904,151.65729589941589,356.58984085427477"/><path d="M32.79888685385565,288.7682871198774C38.265367996164926,336.89633497319033,124.81723114464866,315.25233974648523,142.64826416531275,360.2883882816974"/><path d="M32.79888685385565,288.7682871198774C38.265367996164926,336.89633497319033,116.85549113885968,318.28944861076667,133.54913273012534,363.7593698408762"/><path d="M32.79888685385565,288.7682871198774C38.265367996164926,336.89633497319033,108.81994270025702,321.12551903728047,124.36564880029374,367.0005931854634"/><path d="M32.79888685385565,288.7682871198774C38.265367996164926,336.89633497319033,100.71566125346338,323.7587597031586,115.10361286110101,370.01001108932417"/><path d="M32.79888685385565,288.7682871198774C38.265367996164926,336.89633497319033,92.547765636343,326.1875073971573,105.76887501296343,372.7857227396083"/><path d="M32.79888685385565,288.7682871198774C38.265367996164926,336.89633497319033,84.32141486683356,328.41022807017646,96.36733127638121,375.32597493734454"/><path d="M32.79888685385565,288.7682871198774C38.265367996164926,336.89633497319033,76.04180488439948,330.4255178041988,86.90491986788511,377.62916320479866"/><path d="M32.79888685385565,288.7682871198774C38.265367996164926,336.89633497319033,67.71416526816613,332.2321036990337,77.38761744933271,379.69383279889564"/><path d="M32.79888685385565,288.7682871198774C38.265367996164926,336.89633497319033,59.34375593380461,333.8288446763087,67.82143535291955,381.5186796300671"/><path d="M32.79888685385565,288.7682871198774C38.265367996164926,336.89633497319033,50.935863811256695,335.21473220019897,58.21241578429336,383.1025510859417"/><path d="M32.79888685385565,288.7682871198774C38.265367996164926,336.89633497319033,42.49579950539699,336.38889091444014,48.56662800616799,384.4444467593601"/><path d="M32.79888685385565,288.7682871198774C38.265367996164926,336.89633497319033,34.02889394174006,337.3505791952221,38.89016450484578,385.5435190802538"/><path d="M32.79888685385565,288.7682871198774C38.265367996164926,336.89633497319033,25.540494999314774,338.09918961961444,29.189137142074028,386.3990738509879"/><path d="M32.79888685385565,288.7682871198774C38.265367996164926,336.89633497319033,17.03596413282813,338.6342493492278,19.46967329466072,387.01057068483175"/><path d="M32.79888685385565,288.7682871198774C38.265367996164926,336.89633497319033,8.520672986256708,338.9554204288689,9.73791198429338,387.3776233472787"/><path d="M32.79888685385565,288.7682871198774C38.265367996164926,336.89633497319033,2.0761590266794972e-14,339.0625,2.372753173347997e-14,387.5"/><path d="M32.79888685385565,288.7682871198774C38.265367996164926,336.89633497319033,-8.520672986256665,338.9554204288689,-9.737911984293332,387.3776233472787"/><path d="M32.79888685385565,288.7682871198774C38.265367996164926,336.89633497319033,-17.035964132828088,338.6342493492278,-19.46967329466067,387.01057068483175"/><path d="M32.79888685385565,288.7682871198774C38.265367996164926,336.89633497319033,-25.540494999314735,338.09918961961444,-29.189137142073985,386.3990738509879"/><path d="M32.79888685385565,288.7682871198774C38.265367996164926,336.89633497319033,-34.028893941740016,337.3505791952221,-38.890164504845735,385.5435190802538"/><path d="M32.79888685385565,288.7682871198774C38.265367996164926,336.89633497319033,-42.49579950539695,336.38889091444014,-48.566628006167946,384.4444467593601"/><path d="M32.79888685385565,288.7682871198774C38.265367996164926,336.89633497319033,-50.93586381125665,335.21473220019897,-58.21241578429332,383.1025510859417"/><path d="M32.79888685385565,288.7682871198774C38.265367996164926,336.89633497319033,-59.343755933804566,333.8288446763087,-67.82143535291951,381.5186796300671"/><path d="M32.79888685385565,288.7682871198774C38.265367996164926,336.89633497319033,-67.71416526816624,332.23210369903364,-77.38761744933284,379.69383279889564"/><path d="M32.79888685385565,288.7682871198774C38.265367996164926,336.89633497319033,-76.04180488439958,330.4255178041988,-86.90491986788524,377.62916320479866"/><path d="M32.79888685385565,288.7682871198774C38.265367996164926,336.89633497319033,-84.32141486683368,328.41022807017646,-96.36733127638134,375.32597493734454"/><path d="M32.79888685385565,288.7682871198774C38.265367996164926,336.89633497319033,-92.5477656363431,326.1875073971572,-105.76887501296355,372.7857227396083"/><path d="M-201.59299200184637,209.33981035804803C-235.1918240021541,244.22977875105602,-232.104253103946,247.16592523507236,-265.2620035473669,282.475343125797"/><path d="M-201.59299200184637,209.33981035804803C-235.1918240021541,244.22977875105602,-238.24225538492226,241.2550655537734,-272.27686329705404,275.72007491859813"/><path d="M-219.2043075264302,190.82023526570296C-255.73835878083523,222.6236078099868,-250.06304135425577,228.9800302535349,-285.78633297629233,261.69146314689704"/><path d="M-219.2043075264302,190.82023526570296C-255.73835878083523,222.6236078099868,-255.73835878083523,222.6236078099868,-292.2724100352402,254.4269803542706"/><path d="M-219.2043075264302,190.82023526570296C-255.73835878083523,222.6236078099868,-261.2521463786661,216.12657152416503,-298.57388157561843,247.0017960276172"/><path d="M-239.33916118576175,164.86253833996358C-279.2290213833887,192.33962806329083,-271.7813058077815,202.72715831794005,-310.6072066374646,231.68818093478862"/><path d="M-239.33916118576175,164.86253833996358C-279.2290213833887,192.33962806329083,-276.7900271962952,195.83324475411263,-316.33145965290885,223.8094225761287"/><path d="M-239.33916118576175,164.86253833996358C-279.2290213833887,192.33962806329083,-281.62392207108024,188.81563871552618,-321.85591093837746,215.78930138917278"/><path d="M-239.33916118576175,164.86253833996358C-279.2290213833887,192.33962806329083,-286.2799372405271,181.6787726725659,-327.1770711320309,207.63288305436103"/><path d="M-265.99196579295415,117.09468287928323C-310.32396009177984,136.61046335916376,-303.06810787628797,152.02993420552644,-346.3635518586148,173.74849623488737"/><path d="M-265.99196579295415,117.09468287928323C-310.32396009177984,136.61046335916376,-306.7929224767598,144.36579104628225,-350.62048283058266,164.98947548146543"/><path d="M-265.99196579295415,117.09468287928323C-310.32396009177984,136.61046335916376,-310.32396009177984,136.61046335916376,-354.65595439060553,156.1262438390443"/><path d="M-265.99196579295415,117.09468287928323C-310.32396009177984,136.61046335916376,-313.6589904423083,128.76884957536092,-358.46741764835235,147.1643995146982"/><path d="M-265.99196579295415,117.09468287928323C-310.32396009177984,136.61046335916376,-316.795907051695,120.84590262621174,-362.05246520193714,138.10960300138484"/><path d="M-285.4772322430252,54.457694551476195C-333.05677095019604,63.53397697672223,-322.46760005632547,104.77607465525564,-368.534400064372,119.74408532029216"/><path d="M-285.4772322430252,54.457694551476195C-333.05677095019604,63.53397697672223,-324.9987940887039,96.63934368122653,-371.427193244233,110.44496420711604"/><path d="M-285.4772322430252,54.457694551476195C-333.05677095019604,63.53397697672223,-327.3247119169069,88.44157322641837,-374.08538504789357,101.07608368733528"/><path d="M-285.4772322430252,54.457694551476195C-333.05677095019604,63.53397697672223,-329.4438844413816,80.18794117835677,-376.5072965044361,91.64336134669345"/><path d="M-285.4772322430252,54.457694551476195C-333.05677095019604,63.53397697672223,-331.3549731473406,71.88366070794669,-378.69139788267495,82.15275509479622"/><path d="M-285.4772322430252,54.457694551476195C-333.05677095019604,63.53397697672223,-333.05677095019604,63.53397697672223,-380.6363096573669,72.61025940196826"/><path d="M-285.4772322430252,54.457694551476195C-333.05677095019604,63.53397697672223,-334.5482029579802,55.14416382389042,-382.34080338054883,63.021901513017625"/><path d="M-285.4772322430252,54.457694551476195C-333.05677095019604,63.53397697672223,-335.8283271502708,46.71952043526022,-383.8038024574523,53.393737640297395"/><path d="M-285.4772322430252,54.457694551476195C-333.05677095019604,63.53397697672223,-336.89633497319033,38.26536799616495,-385.02438282650326,43.731849138474225"/><path d="M-285.4772322430252,54.457694551476195C-333.05677095019604,63.53397697672223,-337.7515518501069,29.78704633048635,-386.0017735429793,34.04233866341297"/><path d="M-285.4772322430252,54.457694551476195C-333.05677095019604,63.53397697672223,-338.39343760771084,21.289910527907736,-386.7353572659552,24.33132631760884"/><path d="M-290.53321751045905,-7.3034339882199815C-338.9554204288689,-8.520672986256645,-339.0357290503564,4.260672897949321,-387.46940462897874,4.869340454799224"/><path d="M-290.53321751045905,-7.3034339882199815C-338.9554204288689,-8.520672986256645,-339.0357290503564,-4.260672897949237,-387.46940462897874,-4.869340454799128"/><path d="M-290.53321751045905,-7.3034339882199815C-338.9554204288689,-8.520672986256645,-338.8215868171998,-12.779327561524743,-387.2246706482283,-14.604945784599707"/><path d="M-290.53321751045905,-7.3034339882199815C-338.9554204288689,-8.520672986256645,-338.39343760771084,-21.28991052790765,-386.7353572659552,-24.331326317608745"/><path d="M-287.85285184308924,-40.045303230222984C-335.8283271502708,-46.719520435260144,-336.89633497319033,-38.26536799616486,-385.02438282650326,-43.73184913847413"/><path d="M-287.85285184308924,-40.045303230222984C-335.8283271502708,-46.719520435260144,-335.8283271502708,-46.719520435260144,-383.8038024574523,-53.39373764029731"/><path d="M-287.85285184308924,-40.045303230222984C-335.8283271502708,-46.719520435260144,-334.54820295798027,-55.144163823890345,-382.3408033805489,-63.02190151301754"/><path d="M-183.84472725612125,-61.157000908501004C-275.76709088418187,-91.7355013627515,-284.0185484120062,-61.61456632109711,-378.69139788267495,-82.15275509479615"/><path d="M-183.84472725612125,-61.157000908501004C-275.76709088418187,-91.7355013627515,-282.3804723783271,-68.73252101002002,-376.5072965044361,-91.64336134669337"/><path d="M-183.84472725612125,-61.157000908501004C-275.76709088418187,-91.7355013627515,-280.56403878592016,-75.8070627655014,-374.08538504789357,-101.0760836873352"/><path d="M-183.84472725612125,-61.157000908501004C-275.76709088418187,-91.7355013627515,-278.57039493317484,-82.83372315533697,-371.4271932442331,-110.44496420711596"/><path d="M-183.84472725612125,-61.157000908501004C-275.76709088418187,-91.7355013627515,-276.40080004827905,-89.80806399021905,-368.53440006437205,-119.74408532029207"/><path d="M-183.84472725612125,-61.157000908501004C-275.76709088418187,-91.7355013627515,-274.0566244938637,-96.72568012699301,-365.408832658485,-128.96757350265736"/><path d="M-183.84472725612125,-61.157000908501004C-275.76709088418187,-91.7355013627515,-271.53934890145285,-103.58220225103857,-362.05246520193714,-138.10960300138476"/><path d="M-183.84472725612125,-61.157000908501004C-275.76709088418187,-91.7355013627515,-268.8505632362643,-110.37329963602357,-358.4674176483524,-147.1643995146981"/><path d="M-183.84472725612125,-61.157000908501004C-229.80590907015156,-76.44625113562626,-215.0955461970304,-111.30449749426647,-258.11465543643646,-133.56539699311978"/><path d="M-133.27501294104945,-140.63012986399147C-199.91251941157418,-210.94519479598722,-245.38280334902322,-155.72466229077074,-327.17707113203096,-207.632883054361"/><path d="M-133.27501294104945,-140.63012986399147C-199.91251941157418,-210.94519479598722,-241.3919332037831,-161.84197604187952,-321.8559109383775,-215.7893013891727"/><path d="M-133.27501294104945,-140.63012986399147C-199.91251941157418,-210.94519479598722,-237.2485947396816,-167.85706693209647,-316.33145965290885,-223.8094225761286"/><path d="M-133.27501294104945,-140.63012986399147C-199.91251941157418,-210.94519479598722,-232.95540497809853,-173.7661357010914,-310.6072066374647,-231.68818093478853"/><path d="M-133.27501294104945,-140.63012986399147C-199.91251941157418,-210.94519479598722,-228.51507558970485,-179.56545005437846,-304.68676745293976,-239.42060007250458"/><path d="M-133.27501294104945,-140.63012986399147C-199.91251941157418,-210.94519479598722,-223.93041118171385,-185.25134702071284,-298.5738815756185,-247.0017960276171"/><path d="M-133.27501294104945,-140.63012986399147C-166.59376617631182,-175.78766232998933,-174.4498419650399,-167.99416000153872,-209.33981035804788,-201.59299200184645"/><path d="M-133.27501294104945,-140.63012986399147C-166.59376617631182,-175.78766232998933,-152.01900156259146,-188.5338386607635,-182.42280187510977,-226.24060639291622"/><path d="M-133.27501294104945,-140.63012986399147C-166.59376617631182,-175.78766232998933,-127.19073069375122,-206.100226059652,-152.62887683250148,-247.32027127158238"/><path d="M-133.27501294104945,-140.63012986399147C-166.59376617631182,-175.78766232998933,-105.86397473577271,-217.82470936373053,-127.03676968292726,-261.38965123647665"/><path d="M-133.27501294104945,-140.63012986399147C-166.59376617631182,-175.78766232998933,-48.36726090583298,-237.3086454993098,-58.040713086999574,-284.77037459917176"/><path d="M-258.11465543643646,-133.56539699311978C-301.13376467584254,-155.82629649197307,-306.7929224767599,-144.3657910462822,-350.6204828305827,-164.98947548146535"/><path d="M-258.11465543643646,-133.56539699311978C-301.13376467584254,-155.82629649197307,-303.06810787628797,-152.02993420552636,-346.36355185861487,-173.74849623488728"/><path d="M-258.11465543643646,-133.56539699311978C-301.13376467584254,-155.82629649197307,-299.15186896310144,-159.59805199980795,-341.8878502435445,-182.39777371406623"/><path d="M-258.11465543643646,-133.56539699311978C-301.13376467584254,-155.82629649197307,-295.0466793176361,-167.06536424371754,-337.19620493444125,-190.9318448499629"/><path d="M-209.33981035804788,-201.59299200184645C-244.22977875105587,-235.19182400215422,-250.06304135425586,-228.98003025353484,-285.7863329762924,-261.6914631468969"/><path d="M-209.33981035804788,-201.59299200184645C-244.22977875105587,-235.19182400215422,-244.22977875105587,-235.19182400215422,-279.11974714406387,-268.79065600246196"/><path d="M-209.33981035804788,-201.59299200184645C-244.22977875105587,-235.19182400215422,-238.24225538492246,-241.25506555377316,-272.27686329705426,-275.7200749185979"/><path d="M-182.42280187510977,-226.24060639291622C-212.82660218762805,-263.9473741250689,-225.819648801926,-252.92066962038672,-258.0795986307726,-289.0521938518705"/><path d="M-182.42280187510977,-226.24060639291622C-212.82660218762805,-263.9473741250689,-219.39241196963968,-258.51566388981905,-250.73418510815964,-295.44647301693607"/><path d="M-182.42280187510977,-226.24060639291622C-212.82660218762805,-263.9473741250689,-212.82660218762805,-263.9473741250689,-243.23040250014634,-301.65414185722165"/><path d="M-182.42280187510977,-226.24060639291622C-212.82660218762805,-263.9473741250689,-206.12636656207724,-269.2123695415316,-235.57299035665972,-307.6712794760361"/><path d="M-182.42280187510977,-226.24060639291622C-212.82660218762805,-263.9473741250689,-199.2959371054167,-274.30732465525557,-227.7667852633334,-313.4940853202921"/><path d="M-152.62887683250148,-247.32027127158238C-178.0670229712517,-288.54031648351275,-185.26183318958806,-283.9743510767887,-211.7278093595292,-324.54211551633"/><path d="M-152.62887683250148,-247.32027127158238C-178.0670229712517,-288.54031648351275,-178.0670229712517,-288.54031648351275,-203.50516911000196,-329.7603616954432"/><path d="M-152.62887683250148,-247.32027127158238C-178.0670229712517,-288.54031648351275,-170.7597418046252,-292.9240336419457,-195.1539906338574,-334.77032416222363"/><path d="M-127.03676968292726,-261.38965123647665C-148.2095646300818,-304.95459310922274,-155.82629649197315,-301.1337646758425,-178.08719599082647,-344.1528739152485"/><path d="M-127.03676968292726,-261.38965123647665C-148.2095646300818,-304.95459310922274,-148.2095646300818,-304.95459310922274,-169.38235957723634,-348.51953498196883"/><path d="M-127.03676968292726,-261.38965123647665C-148.2095646300818,-304.95459310922274,-140.49922043053547,-308.58280568538135,-160.5705376348977,-352.6660636404358"/><path d="M-58.040713086999574,-284.77037459917176C-67.71416526816617,-332.2321036990337,-124.81723114464883,-315.2523397464851,-142.64826416531295,-360.28838828169734"/><path d="M-58.040713086999574,-284.77037459917176C-67.71416526816617,-332.2321036990337,-116.85549113885985,-318.2894486107666,-133.54913273012554,-363.75936984087616"/><path d="M-58.040713086999574,-284.77037459917176C-67.71416526816617,-332.2321036990337,-108.81994270025706,-321.12551903728047,-124.36564880029378,-367.0005931854634"/><path d="M-58.040713086999574,-284.77037459917176C-67.71416526816617,-332.2321036990337,-100.71566125346342,-323.7587597031586,-115.10361286110106,-370.01001108932417"/><path d="M-58.040713086999574,-284.77037459917176C-67.71416526816617,-332.2321036990337,-92.54776563634333,-326.18750739715716,-105.7688750129638,-372.7857227396082"/><path d="M-58.040713086999574,-284.77037459917176C-67.71416526816617,-332.2321036990337,-84.32141486683375,-328.41022807017646,-96.36733127638142,-375.3259749373445"/><path d="M-58.040713086999574,-284.77037459917176C-67.71416526816617,-332.2321036990337,-76.04180488439967,-330.4255178041988,-86.90491986788533,-377.62916320479866"/><path d="M-58.040713086999574,-284.77037459917176C-67.71416526816617,-332.2321036990337,-67.71416526816617,-332.2321036990337,-77.38761744933277,-379.69383279889564"/><path d="M-58.040713086999574,-284.77037459917176C-67.71416526816617,-332.2321036990337,-59.3437559338045,-333.82884467630873,-67.82143535291944,-381.5186796300671"/><path d="M-58.040713086999574,-284.77037459917176C-67.71416526816617,-332.2321036990337,-50.93586381125688,-335.21473220019897,-58.212415784293576,-383.1025510859417"/><path d="M-58.040713086999574,-284.77037459917176C-67.71416526816617,-332.2321036990337,-42.49579950539704,-336.38889091444014,-48.56662800616804,-384.4444467593601"/><path d="M-58.040713086999574,-284.77037459917176C-67.71416526816617,-332.2321036990337,-34.028893941740094,-337.3505791952221,-38.89016450484583,-385.5435190802538"/><path d="M-58.040713086999574,-284.77037459917176C-67.71416526816617,-332.2321036990337,-25.540494999314664,-338.09918961961444,-29.189137142073903,-386.3990738509879"/><path d="M-58.040713086999574,-284.77037459917176C-67.71416526816617,-332.2321036990337,-17.03596413282832,-338.6342493492278,-19.469673294660936,-387.01057068483175"/><path d="M-58.040713086999574,-284.77037459917176C-67.71416526816617,-332.2321036990337,-8.520672986256749,-338.9554204288689,-9.737911984293426,-387.3776233472787"/></g><g stroke-linejoin="round" stroke-width="3"><g transform="&#xA;        rotate(268.56)&#xA;        translate(387.5,0)&#xA;      "><circle fill="#999" r="2.5"/><text dy="0.31em" x="-6" text-anchor="end" transform="rotate(180)">TreeMapLayout</text></g><g transform="&#xA;        rotate(267.12)&#xA;        translate(387.5,0)&#xA;      "><circle fill="#999" r="2.5"/><text dy="0.31em" x="-6" text-anchor="end" transform="rotate(180)">StackedAreaLayout</text></g><g transform="&#xA;        rotate(265.68)&#xA;        translate(387.5,0)&#xA;      "><circle fill="#999" r="2.5"/><text dy="0.31em" x="-6" text-anchor="end" transform="rotate(180)">RandomLayout</text></g><g transform="&#xA;        rotate(264.24)&#xA;        translate(387.5,0)&#xA;      "><circle fill="#999" r="2.5"/><text dy="0.31em" x="-6" text-anchor="end" transform="rotate(180)">RadialTreeLayout</text></g><g transform="&#xA;        rotate(262.8)&#xA;        translate(387.5,0)&#xA;      "><circle fill="#999" r="2.5"/><text dy="0.31em" x="-6" text-anchor="end" transform="rotate(180)">PieLayout</text></g><g transform="&#xA;        rotate(261.36)&#xA;        translate(387.5,0)&#xA;      "><circle fill="#999" r="2.5"/><text dy="0.31em" x="-6" text-anchor="end" transform="rotate(180)">NodeLinkTreeLayout</text></g><g transform="&#xA;        rotate(259.92)&#xA;        translate(387.5,0)&#xA;      "><circle fill="#999" r="2.5"/><text dy="0.31em" x="-6" text-anchor="end" transform="rotate(180)">Layout</text></g><g transform="&#xA;        rotate(258.48)&#xA;        translate(387.5,0)&#xA;      "><circle fill="#999" r="2.5"/><text dy="0.31em" x="-6" text-anchor="end" transform="rotate(180)">IndentedTreeLayout</text></g><g transform="&#xA;        rotate(257.04)&#xA;        translate(387.5,0)&#xA;      "><circle fill="#999" r="2.5"/><text dy="0.31em" x="-6" text-anchor="end" transform="rotate(180)">IcicleTreeLayout</text></g><g transform="&#xA;        rotate(255.60000000000002)&#xA;        translate(387.5,0)&#xA;      "><circle fill="#999" r="2.5"/><text dy="0.31em" x="-6" text-anchor="end" transform="rotate(180)">ForceDirectedLayout</text></g><g transform="&#xA;        rotate(254.16000000000003)&#xA;        translate(387.5,0)&#xA;      "><circle fill="#999" r="2.5"/><text dy="0.31em" x="-6" text-anchor="end" transform="rotate(180)">DendrogramLayout</text></g><g transform="&#xA;        rotate(252.71999999999997)&#xA;        translate(387.5,0)&#xA;      "><circle fill="#999" r="2.5"/><text dy="0.31em" x="-6" text-anchor="end" transform="rotate(180)">CirclePackingLayout</text></g><g transform="&#xA;        rotate(251.27999999999997)&#xA;        translate(387.5,0)&#xA;      "><circle fill="#999" r="2.5"/><text dy="0.31em" x="-6" text-anchor="end" transform="rotate(180)">CircleLayout</text></g><g transform="&#xA;        rotate(249.83999999999997)&#xA;        translate(387.5,0)&#xA;      "><circle fill="#999" r="2.5"/><text dy="0.31em" x="-6" text-anchor="end" transform="rotate(180)">BundledEdgeRouter</text></g><g transform="&#xA;        rotate(248.39999999999998)&#xA;        translate(387.5,0)&#xA;      "><circle fill="#999" r="2.5"/><text dy="0.31em" x="-6" text-anchor="end" transform="rotate(180)">AxisLayout</text></g><g transform="&#xA;        rotate(245.51999999999998)&#xA;        translate(387.5,0)&#xA;      "><circle fill="#999" r="2.5"/><text dy="0.31em" x="-6" text-anchor="end" transform="rotate(180)">StackedAreaLabeler</text></g><g transform="&#xA;        rotate(244.08000000000004)&#xA;        translate(387.5,0)&#xA;      "><circle fill="#999" r="2.5"/><text dy="0.31em" x="-6" text-anchor="end" transform="rotate(180)">RadialLabeler</text></g><g transform="&#xA;        rotate(242.64)&#xA;        translate(387.5,0)&#xA;      "><circle fill="#999" r="2.5"/><text dy="0.31em" x="-6" text-anchor="end" transform="rotate(180)">Labeler</text></g><g transform="&#xA;        rotate(239.76)&#xA;        translate(387.5,0)&#xA;      "><circle fill="#999" r="2.5"/><text dy="0.31em" x="-6" text-anchor="end" transform="rotate(180)">VisibilityFilter</text></g><g transform="&#xA;        rotate(238.32000000000005)&#xA;        translate(387.5,0)&#xA;      "><circle fill="#999" r="2.5"/><text dy="0.31em" x="-6" text-anchor="end" transform="rotate(180)">GraphDistanceFilter</text></g><g transform="&#xA;        rotate(236.88000000000005)&#xA;        translate(387.5,0)&#xA;      "><circle fill="#999" r="2.5"/><text dy="0.31em" x="-6" text-anchor="end" transform="rotate(180)">FisheyeTreeFilter</text></g><g transform="&#xA;        rotate(234)&#xA;        translate(387.5,0)&#xA;      "><circle fill="#999" r="2.5"/><text dy="0.31em" x="-6" text-anchor="end" transform="rotate(180)">SizeEncoder</text></g><g transform="&#xA;        rotate(232.56)&#xA;        translate(387.5,0)&#xA;      "><circle fill="#999" r="2.5"/><text dy="0.31em" x="-6" text-anchor="end" transform="rotate(180)">ShapeEncoder</text></g><g transform="&#xA;        rotate(231.12)&#xA;        translate(387.5,0)&#xA;      "><circle fill="#999" r="2.5"/><text dy="0.31em" x="-6" text-anchor="end" transform="rotate(180)">PropertyEncoder</text></g><g transform="&#xA;        rotate(229.68)&#xA;        translate(387.5,0)&#xA;      "><circle fill="#999" r="2.5"/><text dy="0.31em" x="-6" text-anchor="end" transform="rotate(180)">Encoder</text></g><g transform="&#xA;        rotate(228.24)&#xA;        translate(387.5,0)&#xA;      "><circle fill="#999" r="2.5"/><text dy="0.31em" x="-6" text-anchor="end" transform="rotate(180)">ColorEncoder</text></g><g transform="&#xA;        rotate(225.35999999999996)&#xA;        translate(387.5,0)&#xA;      "><circle fill="#999" r="2.5"/><text dy="0.31em" x="-6" text-anchor="end" transform="rotate(180)">FisheyeDistortion</text></g><g transform="&#xA;        rotate(223.92000000000002)&#xA;        translate(387.5,0)&#xA;      "><circle fill="#999" r="2.5"/><text dy="0.31em" x="-6" text-anchor="end" transform="rotate(180)">Distortion</text></g><g transform="&#xA;        rotate(222.48000000000002)&#xA;        translate(387.5,0)&#xA;      "><circle fill="#999" r="2.5"/><text dy="0.31em" x="-6" text-anchor="end" transform="rotate(180)">BifocalDistortion</text></g><g transform="&#xA;        rotate(209.51999999999998)&#xA;        translate(387.5,0)&#xA;      "><circle fill="#999" r="2.5"/><text dy="0.31em" x="-6" text-anchor="end" transform="rotate(180)">ShapeRenderer</text></g><g transform="&#xA;        rotate(208.07999999999998)&#xA;        translate(387.5,0)&#xA;      "><circle fill="#999" r="2.5"/><text dy="0.31em" x="-6" text-anchor="end" transform="rotate(180)">IRenderer</text></g><g transform="&#xA;        rotate(206.64)&#xA;        translate(387.5,0)&#xA;      "><circle fill="#999" r="2.5"/><text dy="0.31em" x="-6" text-anchor="end" transform="rotate(180)">EdgeRenderer</text></g><g transform="&#xA;        rotate(205.2)&#xA;        translate(387.5,0)&#xA;      "><circle fill="#999" r="2.5"/><text dy="0.31em" x="-6" text-anchor="end" transform="rotate(180)">ArrowType</text></g><g transform="&#xA;        rotate(258.48)&#xA;        translate(290.625,0)&#xA;      "><text dy="0.31em" x="6" text-anchor="start" transform="rotate(180)" stroke="white">layout</text><circle fill="#555" r="2.5"/><text dy="0.31em" x="6" text-anchor="start" transform="rotate(180)">layout</text></g><g transform="&#xA;        rotate(244.08000000000004)&#xA;        translate(290.625,0)&#xA;      "><text dy="0.31em" x="6" text-anchor="start" transform="rotate(180)" stroke="white">label</text><circle fill="#555" r="2.5"/><text dy="0.31em" x="6" text-anchor="start" transform="rotate(180)">label</text></g><g transform="&#xA;        rotate(238.32000000000005)&#xA;        translate(290.625,0)&#xA;      "><text dy="0.31em" x="6" text-anchor="start" transform="rotate(180)" stroke="white">filter</text><circle fill="#555" r="2.5"/><text dy="0.31em" x="6" text-anchor="start" transform="rotate(180)">filter</text></g><g transform="&#xA;        rotate(231.12)&#xA;        translate(290.625,0)&#xA;      "><text dy="0.31em" x="6" text-anchor="start" transform="rotate(180)" stroke="white">encoder</text><circle fill="#555" r="2.5"/><text dy="0.31em" x="6" text-anchor="start" transform="rotate(180)">encoder</text></g><g transform="&#xA;        rotate(223.92000000000002)&#xA;        translate(290.625,0)&#xA;      "><text dy="0.31em" x="6" text-anchor="start" transform="rotate(180)" stroke="white">distortion</text><circle fill="#555" r="2.5"/><text dy="0.31em" x="6" text-anchor="start" transform="rotate(180)">distortion</text></g><g transform="&#xA;        rotate(219.59999999999997)&#xA;        translate(387.5,0)&#xA;      "><circle fill="#999" r="2.5"/><text dy="0.31em" x="-6" text-anchor="end" transform="rotate(180)">SortOperator</text></g><g transform="&#xA;        rotate(218.16000000000003)&#xA;        translate(387.5,0)&#xA;      "><circle fill="#999" r="2.5"/><text dy="0.31em" x="-6" text-anchor="end" transform="rotate(180)">OperatorSwitch</text></g><g transform="&#xA;        rotate(216.72000000000003)&#xA;        translate(387.5,0)&#xA;      "><circle fill="#999" r="2.5"/><text dy="0.31em" x="-6" text-anchor="end" transform="rotate(180)">OperatorSequence</text></g><g transform="&#xA;        rotate(215.28000000000003)&#xA;        translate(387.5,0)&#xA;      "><circle fill="#999" r="2.5"/><text dy="0.31em" x="-6" text-anchor="end" transform="rotate(180)">OperatorList</text></g><g transform="&#xA;        rotate(213.83999999999997)&#xA;        translate(387.5,0)&#xA;      "><circle fill="#999" r="2.5"/><text dy="0.31em" x="-6" text-anchor="end" transform="rotate(180)">Operator</text></g><g transform="&#xA;        rotate(212.39999999999998)&#xA;        translate(387.5,0)&#xA;      "><circle fill="#999" r="2.5"/><text dy="0.31em" x="-6" text-anchor="end" transform="rotate(180)">IOperator</text></g><g transform="&#xA;        rotate(207.35999999999996)&#xA;        translate(290.625,0)&#xA;      "><text dy="0.31em" x="6" text-anchor="start" transform="rotate(180)" stroke="white">render</text><circle fill="#555" r="2.5"/><text dy="0.31em" x="6" text-anchor="start" transform="rotate(180)">render</text></g><g transform="&#xA;        rotate(202.32000000000005)&#xA;        translate(387.5,0)&#xA;      "><circle fill="#999" r="2.5"/><text dy="0.31em" x="-6" text-anchor="end" transform="rotate(180)">TreeBuilder</text></g><g transform="&#xA;        rotate(200.88000000000005)&#xA;        translate(387.5,0)&#xA;      "><circle fill="#999" r="2.5"/><text dy="0.31em" x="-6" text-anchor="end" transform="rotate(180)">Tree</text></g><g transform="&#xA;        rotate(199.44)&#xA;        translate(387.5,0)&#xA;      "><circle fill="#999" r="2.5"/><text dy="0.31em" x="-6" text-anchor="end" transform="rotate(180)">ScaleBinding</text></g><g transform="&#xA;        rotate(198)&#xA;        translate(387.5,0)&#xA;      "><circle fill="#999" r="2.5"/><text dy="0.31em" x="-6" text-anchor="end" transform="rotate(180)">NodeSprite</text></g><g transform="&#xA;        rotate(196.56000000000006)&#xA;        translate(387.5,0)&#xA;      "><circle fill="#999" r="2.5"/><text dy="0.31em" x="-6" text-anchor="end" transform="rotate(180)">EdgeSprite</text></g><g transform="&#xA;        rotate(195.12000000000006)&#xA;        translate(387.5,0)&#xA;      "><circle fill="#999" r="2.5"/><text dy="0.31em" x="-6" text-anchor="end" transform="rotate(180)">DataSprite</text></g><g transform="&#xA;        rotate(193.68)&#xA;        translate(387.5,0)&#xA;      "><circle fill="#999" r="2.5"/><text dy="0.31em" x="-6" text-anchor="end" transform="rotate(180)">DataList</text></g><g transform="&#xA;        rotate(192.24)&#xA;        translate(387.5,0)&#xA;      "><circle fill="#999" r="2.5"/><text dy="0.31em" x="-6" text-anchor="end" transform="rotate(180)">Data</text></g><g transform="&#xA;        rotate(189.36)&#xA;        translate(387.5,0)&#xA;      "><circle fill="#999" r="2.5"/><text dy="0.31em" x="-6" text-anchor="end" transform="rotate(180)">LegendRange</text></g><g transform="&#xA;        rotate(187.92000000000002)&#xA;        translate(387.5,0)&#xA;      "><circle fill="#999" r="2.5"/><text dy="0.31em" x="-6" text-anchor="end" transform="rotate(180)">LegendItem</text></g><g transform="&#xA;        rotate(186.48000000000002)&#xA;        translate(387.5,0)&#xA;      "><circle fill="#999" r="2.5"/><text dy="0.31em" x="-6" text-anchor="end" transform="rotate(180)">Legend</text></g><g transform="&#xA;        rotate(183.59999999999997)&#xA;        translate(387.5,0)&#xA;      "><circle fill="#999" r="2.5"/><text dy="0.31em" x="-6" text-anchor="end" transform="rotate(180)">VisualizationEvent</text></g><g transform="&#xA;        rotate(182.16000000000003)&#xA;        translate(387.5,0)&#xA;      "><circle fill="#999" r="2.5"/><text dy="0.31em" x="-6" text-anchor="end" transform="rotate(180)">TooltipEvent</text></g><g transform="&#xA;        rotate(180.71999999999997)&#xA;        translate(387.5,0)&#xA;      "><circle fill="#999" r="2.5"/><text dy="0.31em" x="-6" text-anchor="end" transform="rotate(180)">SelectionEvent</text></g><g transform="&#xA;        rotate(179.27999999999997)&#xA;        translate(387.5,0)&#xA;      "><circle fill="#999" r="2.5"/><text dy="0.31em" x="-6" text-anchor="end" transform="rotate(180)">DataEvent</text></g><g transform="&#xA;        rotate(176.40000000000003)&#xA;        translate(387.5,0)&#xA;      "><circle fill="#999" r="2.5"/><text dy="0.31em" x="-6" text-anchor="end" transform="rotate(180)">TooltipControl</text></g><g transform="&#xA;        rotate(174.96000000000004)&#xA;        translate(387.5,0)&#xA;      "><circle fill="#999" r="2.5"/><text dy="0.31em" x="-6" text-anchor="end" transform="rotate(180)">SelectionControl</text></g><g transform="&#xA;        rotate(173.51999999999998)&#xA;        translate(387.5,0)&#xA;      "><circle fill="#999" r="2.5"/><text dy="0.31em" x="-6" text-anchor="end" transform="rotate(180)">PanZoomControl</text></g><g transform="&#xA;        rotate(172.07999999999998)&#xA;        translate(387.5,0)&#xA;      "><circle fill="#999" r="2.5"/><text dy="0.31em" x="-6" text-anchor="end" transform="rotate(180)">IControl</text></g><g transform="&#xA;        rotate(170.64)&#xA;        translate(387.5,0)&#xA;      "><circle fill="#999" r="2.5"/><text dy="0.31em" x="-6" text-anchor="end" transform="rotate(180)">HoverControl</text></g><g transform="&#xA;        rotate(169.20000000000005)&#xA;        translate(387.5,0)&#xA;      "><circle fill="#999" r="2.5"/><text dy="0.31em" x="-6" text-anchor="end" transform="rotate(180)">ExpandControl</text></g><g transform="&#xA;        rotate(167.76)&#xA;        translate(387.5,0)&#xA;      "><circle fill="#999" r="2.5"/><text dy="0.31em" x="-6" text-anchor="end" transform="rotate(180)">DragControl</text></g><g transform="&#xA;        rotate(166.32)&#xA;        translate(387.5,0)&#xA;      "><circle fill="#999" r="2.5"/><text dy="0.31em" x="-6" text-anchor="end" transform="rotate(180)">ControlList</text></g><g transform="&#xA;        rotate(164.87999999999997)&#xA;        translate(387.5,0)&#xA;      "><circle fill="#999" r="2.5"/><text dy="0.31em" x="-6" text-anchor="end" transform="rotate(180)">Control</text></g><g transform="&#xA;        rotate(163.43999999999997)&#xA;        translate(387.5,0)&#xA;      "><circle fill="#999" r="2.5"/><text dy="0.31em" x="-6" text-anchor="end" transform="rotate(180)">ClickControl</text></g><g transform="&#xA;        rotate(162)&#xA;        translate(387.5,0)&#xA;      "><circle fill="#999" r="2.5"/><text dy="0.31em" x="-6" text-anchor="end" transform="rotate(180)">AnchorControl</text></g><g transform="&#xA;        rotate(159.11999999999998)&#xA;        translate(387.5,0)&#xA;      "><circle fill="#999" r="2.5"/><text dy="0.31em" x="-6" text-anchor="end" transform="rotate(180)">CartesianAxes</text></g><g transform="&#xA;        rotate(157.67999999999998)&#xA;        translate(387.5,0)&#xA;      "><circle fill="#999" r="2.5"/><text dy="0.31em" x="-6" text-anchor="end" transform="rotate(180)">AxisLabel</text></g><g transform="&#xA;        rotate(156.24)&#xA;        translate(387.5,0)&#xA;      "><circle fill="#999" r="2.5"/><text dy="0.31em" x="-6" text-anchor="end" transform="rotate(180)">AxisGridLine</text></g><g transform="&#xA;        rotate(154.80000000000004)&#xA;        translate(387.5,0)&#xA;      "><circle fill="#999" r="2.5"/><text dy="0.31em" x="-6" text-anchor="end" transform="rotate(180)">Axis</text></g><g transform="&#xA;        rotate(153.36000000000004)&#xA;        translate(387.5,0)&#xA;      "><circle fill="#999" r="2.5"/><text dy="0.31em" x="-6" text-anchor="end" transform="rotate(180)">Axes</text></g><g transform="&#xA;        rotate(147.60000000000005)&#xA;        translate(387.5,0)&#xA;      "><circle fill="#999" r="2.5"/><text dy="0.31em" x="-6" text-anchor="end" transform="rotate(180)">SizePalette</text></g><g transform="&#xA;        rotate(146.16)&#xA;        translate(387.5,0)&#xA;      "><circle fill="#999" r="2.5"/><text dy="0.31em" x="-6" text-anchor="end" transform="rotate(180)">ShapePalette</text></g><g transform="&#xA;        rotate(144.72)&#xA;        translate(387.5,0)&#xA;      "><circle fill="#999" r="2.5"/><text dy="0.31em" x="-6" text-anchor="end" transform="rotate(180)">Palette</text></g><g transform="&#xA;        rotate(143.28)&#xA;        translate(387.5,0)&#xA;      "><circle fill="#999" r="2.5"/><text dy="0.31em" x="-6" text-anchor="end" transform="rotate(180)">ColorPalette</text></g><g transform="&#xA;        rotate(140.40000000000003)&#xA;        translate(387.5,0)&#xA;      "><circle fill="#999" r="2.5"/><text dy="0.31em" x="-6" text-anchor="end" transform="rotate(180)">SparseMatrix</text></g><g transform="&#xA;        rotate(138.96)&#xA;        translate(387.5,0)&#xA;      "><circle fill="#999" r="2.5"/><text dy="0.31em" x="-6" text-anchor="end" transform="rotate(180)">IMatrix</text></g><g transform="&#xA;        rotate(137.52)&#xA;        translate(387.5,0)&#xA;      "><circle fill="#999" r="2.5"/><text dy="0.31em" x="-6" text-anchor="end" transform="rotate(180)">DenseMatrix</text></g><g transform="&#xA;        rotate(134.64)&#xA;        translate(387.5,0)&#xA;      "><circle fill="#999" r="2.5"/><text dy="0.31em" x="-6" text-anchor="end" transform="rotate(180)">HeapNode</text></g><g transform="&#xA;        rotate(133.2)&#xA;        translate(387.5,0)&#xA;      "><circle fill="#999" r="2.5"/><text dy="0.31em" x="-6" text-anchor="end" transform="rotate(180)">FibonacciHeap</text></g><g transform="&#xA;        rotate(105.84)&#xA;        translate(387.5,0)&#xA;      "><circle fill="#999" r="2.5"/><text dy="0.31em" x="-6" text-anchor="end" transform="rotate(180)">xor</text></g><g transform="&#xA;        rotate(104.4)&#xA;        translate(387.5,0)&#xA;      "><circle fill="#999" r="2.5"/><text dy="0.31em" x="-6" text-anchor="end" transform="rotate(180)">where</text></g><g transform="&#xA;        rotate(102.96000000000001)&#xA;        translate(387.5,0)&#xA;      "><circle fill="#999" r="2.5"/><text dy="0.31em" x="-6" text-anchor="end" transform="rotate(180)">variance</text></g><g transform="&#xA;        rotate(101.52000000000001)&#xA;        translate(387.5,0)&#xA;      "><circle fill="#999" r="2.5"/><text dy="0.31em" x="-6" text-anchor="end" transform="rotate(180)">update</text></g><g transform="&#xA;        rotate(100.08000000000001)&#xA;        translate(387.5,0)&#xA;      "><circle fill="#999" r="2.5"/><text dy="0.31em" x="-6" text-anchor="end" transform="rotate(180)">sum</text></g><g transform="&#xA;        rotate(98.64000000000001)&#xA;        translate(387.5,0)&#xA;      "><circle fill="#999" r="2.5"/><text dy="0.31em" x="-6" text-anchor="end" transform="rotate(180)">sub</text></g><g transform="&#xA;        rotate(97.20000000000002)&#xA;        translate(387.5,0)&#xA;      "><circle fill="#999" r="2.5"/><text dy="0.31em" x="-6" text-anchor="end" transform="rotate(180)">stddev</text></g><g transform="&#xA;        rotate(95.76000000000002)&#xA;        translate(387.5,0)&#xA;      "><circle fill="#999" r="2.5"/><text dy="0.31em" x="-6" text-anchor="end" transform="rotate(180)">select</text></g><g transform="&#xA;        rotate(94.32)&#xA;        translate(387.5,0)&#xA;      "><circle fill="#999" r="2.5"/><text dy="0.31em" x="-6" text-anchor="end" transform="rotate(180)">range</text></g><g transform="&#xA;        rotate(92.88)&#xA;        translate(387.5,0)&#xA;      "><circle fill="#999" r="2.5"/><text dy="0.31em" x="-6" text-anchor="end" transform="rotate(180)">orderby</text></g><g transform="&#xA;        rotate(91.44)&#xA;        translate(387.5,0)&#xA;      "><circle fill="#999" r="2.5"/><text dy="0.31em" x="-6" text-anchor="end" transform="rotate(180)">or</text></g><g transform="&#xA;        rotate(90)&#xA;        translate(387.5,0)&#xA;      "><circle fill="#999" r="2.5"/><text dy="0.31em" x="-6" text-anchor="end" transform="rotate(180)">not</text></g><g transform="&#xA;        rotate(88.56)&#xA;        translate(387.5,0)&#xA;      "><circle fill="#999" r="2.5"/><text dy="0.31em" x="6" text-anchor="start">neq</text></g><g transform="&#xA;        rotate(87.12)&#xA;        translate(387.5,0)&#xA;      "><circle fill="#999" r="2.5"/><text dy="0.31em" x="6" text-anchor="start">mul</text></g><g transform="&#xA;        rotate(85.68)&#xA;        translate(387.5,0)&#xA;      "><circle fill="#999" r="2.5"/><text dy="0.31em" x="6" text-anchor="start">mod</text></g><g transform="&#xA;        rotate(84.24000000000001)&#xA;        translate(387.5,0)&#xA;      "><circle fill="#999" r="2.5"/><text dy="0.31em" x="6" text-anchor="start">min</text></g><g transform="&#xA;        rotate(82.80000000000001)&#xA;        translate(387.5,0)&#xA;      "><circle fill="#999" r="2.5"/><text dy="0.31em" x="6" text-anchor="start">max</text></g><g transform="&#xA;        rotate(81.35999999999999)&#xA;        translate(387.5,0)&#xA;      "><circle fill="#999" r="2.5"/><text dy="0.31em" x="6" text-anchor="start">lte</text></g><g transform="&#xA;        rotate(79.91999999999999)&#xA;        translate(387.5,0)&#xA;      "><circle fill="#999" r="2.5"/><text dy="0.31em" x="6" text-anchor="start">lt</text></g><g transform="&#xA;        rotate(78.47999999999999)&#xA;        translate(387.5,0)&#xA;      "><circle fill="#999" r="2.5"/><text dy="0.31em" x="6" text-anchor="start">isa</text></g><g transform="&#xA;        rotate(77.04000000000002)&#xA;        translate(387.5,0)&#xA;      "><circle fill="#999" r="2.5"/><text dy="0.31em" x="6" text-anchor="start">iff</text></g><g transform="&#xA;        rotate(75.6)&#xA;        translate(387.5,0)&#xA;      "><circle fill="#999" r="2.5"/><text dy="0.31em" x="6" text-anchor="start">gte</text></g><g transform="&#xA;        rotate(74.16000000000003)&#xA;        translate(387.5,0)&#xA;      "><circle fill="#999" r="2.5"/><text dy="0.31em" x="6" text-anchor="start">gt</text></g><g transform="&#xA;        rotate(72.72)&#xA;        translate(387.5,0)&#xA;      "><circle fill="#999" r="2.5"/><text dy="0.31em" x="6" text-anchor="start">fn</text></g><g transform="&#xA;        rotate(71.28)&#xA;        translate(387.5,0)&#xA;      "><circle fill="#999" r="2.5"/><text dy="0.31em" x="6" text-anchor="start">eq</text></g><g transform="&#xA;        rotate(69.84)&#xA;        translate(387.5,0)&#xA;      "><circle fill="#999" r="2.5"/><text dy="0.31em" x="6" text-anchor="start">div</text></g><g transform="&#xA;        rotate(68.39999999999998)&#xA;        translate(387.5,0)&#xA;      "><circle fill="#999" r="2.5"/><text dy="0.31em" x="6" text-anchor="start">distinct</text></g><g transform="&#xA;        rotate(66.96000000000001)&#xA;        translate(387.5,0)&#xA;      "><circle fill="#999" r="2.5"/><text dy="0.31em" x="6" text-anchor="start">count</text></g><g transform="&#xA;        rotate(65.51999999999998)&#xA;        translate(387.5,0)&#xA;      "><circle fill="#999" r="2.5"/><text dy="0.31em" x="6" text-anchor="start">average</text></g><g transform="&#xA;        rotate(64.08000000000001)&#xA;        translate(387.5,0)&#xA;      "><circle fill="#999" r="2.5"/><text dy="0.31em" x="6" text-anchor="start">and</text></g><g transform="&#xA;        rotate(62.640000000000015)&#xA;        translate(387.5,0)&#xA;      "><circle fill="#999" r="2.5"/><text dy="0.31em" x="6" text-anchor="start">add</text></g><g transform="&#xA;        rotate(61.19999999999999)&#xA;        translate(387.5,0)&#xA;      "><circle fill="#999" r="2.5"/><text dy="0.31em" x="6" text-anchor="start">_</text></g><g transform="&#xA;        rotate(16.559999999999988)&#xA;        translate(387.5,0)&#xA;      "><circle fill="#999" r="2.5"/><text dy="0.31em" x="6" text-anchor="start">JSONConverter</text></g><g transform="&#xA;        rotate(15.11999999999999)&#xA;        translate(387.5,0)&#xA;      "><circle fill="#999" r="2.5"/><text dy="0.31em" x="6" text-anchor="start">IDataConverter</text></g><g transform="&#xA;        rotate(13.679999999999993)&#xA;        translate(387.5,0)&#xA;      "><circle fill="#999" r="2.5"/><text dy="0.31em" x="6" text-anchor="start">GraphMLConverter</text></g><g transform="&#xA;        rotate(12.239999999999995)&#xA;        translate(387.5,0)&#xA;      "><circle fill="#999" r="2.5"/><text dy="0.31em" x="6" text-anchor="start">DelimitedTextConverter</text></g><g transform="&#xA;        rotate(10.800000000000011)&#xA;        translate(387.5,0)&#xA;      "><circle fill="#999" r="2.5"/><text dy="0.31em" x="6" text-anchor="start">Converters</text></g><g transform="&#xA;        rotate(-2.1599999999999966)&#xA;        translate(387.5,0)&#xA;      "><circle fill="#999" r="2.5"/><text dy="0.31em" x="6" text-anchor="start">RectangleInterpolator</text></g><g transform="&#xA;        rotate(-3.5999999999999943)&#xA;        translate(387.5,0)&#xA;      "><circle fill="#999" r="2.5"/><text dy="0.31em" x="6" text-anchor="start">PointInterpolator</text></g><g transform="&#xA;        rotate(-5.040000000000006)&#xA;        translate(387.5,0)&#xA;      "><circle fill="#999" r="2.5"/><text dy="0.31em" x="6" text-anchor="start">ObjectInterpolator</text></g><g transform="&#xA;        rotate(-6.47999999999999)&#xA;        translate(387.5,0)&#xA;      "><circle fill="#999" r="2.5"/><text dy="0.31em" x="6" text-anchor="start">NumberInterpolator</text></g><g transform="&#xA;        rotate(-7.9199999999999875)&#xA;        translate(387.5,0)&#xA;      "><circle fill="#999" r="2.5"/><text dy="0.31em" x="6" text-anchor="start">MatrixInterpolator</text></g><g transform="&#xA;        rotate(-9.36)&#xA;        translate(387.5,0)&#xA;      "><circle fill="#999" r="2.5"/><text dy="0.31em" x="6" text-anchor="start">Interpolator</text></g><g transform="&#xA;        rotate(-10.800000000000011)&#xA;        translate(387.5,0)&#xA;      "><circle fill="#999" r="2.5"/><text dy="0.31em" x="6" text-anchor="start">DateInterpolator</text></g><g transform="&#xA;        rotate(-12.240000000000009)&#xA;        translate(387.5,0)&#xA;      "><circle fill="#999" r="2.5"/><text dy="0.31em" x="6" text-anchor="start">ColorInterpolator</text></g><g transform="&#xA;        rotate(-13.679999999999993)&#xA;        translate(387.5,0)&#xA;      "><circle fill="#999" r="2.5"/><text dy="0.31em" x="6" text-anchor="start">ArrayInterpolator</text></g><g transform="&#xA;        rotate(-33.84)&#xA;        translate(387.5,0)&#xA;      "><circle fill="#999" r="2.5"/><text dy="0.31em" x="6" text-anchor="start">AspectRatioBanker</text></g><g transform="&#xA;        rotate(-36.720000000000006)&#xA;        translate(387.5,0)&#xA;      "><circle fill="#999" r="2.5"/><text dy="0.31em" x="6" text-anchor="start">SpanningTree</text></g><g transform="&#xA;        rotate(-38.160000000000004)&#xA;        translate(387.5,0)&#xA;      "><circle fill="#999" r="2.5"/><text dy="0.31em" x="6" text-anchor="start">ShortestPaths</text></g><g transform="&#xA;        rotate(-39.599999999999994)&#xA;        translate(387.5,0)&#xA;      "><circle fill="#999" r="2.5"/><text dy="0.31em" x="6" text-anchor="start">MaxFlowMinCut</text></g><g transform="&#xA;        rotate(-41.04)&#xA;        translate(387.5,0)&#xA;      "><circle fill="#999" r="2.5"/><text dy="0.31em" x="6" text-anchor="start">LinkDistance</text></g><g transform="&#xA;        rotate(-42.48)&#xA;        translate(387.5,0)&#xA;      "><circle fill="#999" r="2.5"/><text dy="0.31em" x="6" text-anchor="start">BetweennessCentrality</text></g><g transform="&#xA;        rotate(-45.36)&#xA;        translate(387.5,0)&#xA;      "><circle fill="#999" r="2.5"/><text dy="0.31em" x="6" text-anchor="start">MergeEdge</text></g><g transform="&#xA;        rotate(-46.8)&#xA;        translate(387.5,0)&#xA;      "><circle fill="#999" r="2.5"/><text dy="0.31em" x="6" text-anchor="start">HierarchicalCluster</text></g><g transform="&#xA;        rotate(-48.239999999999995)&#xA;        translate(387.5,0)&#xA;      "><circle fill="#999" r="2.5"/><text dy="0.31em" x="6" text-anchor="start">CommunityStructure</text></g><g transform="&#xA;        rotate(-49.68)&#xA;        translate(387.5,0)&#xA;      "><circle fill="#999" r="2.5"/><text dy="0.31em" x="6" text-anchor="start">AgglomerativeCluster</text></g><g transform="&#xA;        rotate(226.53818181818178)&#xA;        translate(193.75,0)&#xA;      "><text dy="0.31em" x="6" text-anchor="start" transform="rotate(180)" stroke="white">operator</text><circle fill="#555" r="2.5"/><text dy="0.31em" x="6" text-anchor="start" transform="rotate(180)">operator</text></g><g transform="&#xA;        rotate(198.39999999999998)&#xA;        translate(193.75,0)&#xA;      "><text dy="0.31em" x="6" text-anchor="start" transform="rotate(180)" stroke="white">data</text><circle fill="#555" r="2.5"/><text dy="0.31em" x="6" text-anchor="start" transform="rotate(180)">data</text></g><g transform="&#xA;        rotate(187.92000000000002)&#xA;        translate(290.625,0)&#xA;      "><text dy="0.31em" x="6" text-anchor="start" transform="rotate(180)" stroke="white">legend</text><circle fill="#555" r="2.5"/><text dy="0.31em" x="6" text-anchor="start" transform="rotate(180)">legend</text></g><g transform="&#xA;        rotate(181.44)&#xA;        translate(290.625,0)&#xA;      "><text dy="0.31em" x="6" text-anchor="start" transform="rotate(180)" stroke="white">events</text><circle fill="#555" r="2.5"/><text dy="0.31em" x="6" text-anchor="start" transform="rotate(180)">events</text></g><g transform="&#xA;        rotate(169.20000000000005)&#xA;        translate(290.625,0)&#xA;      "><text dy="0.31em" x="6" text-anchor="start" transform="rotate(180)" stroke="white">controls</text><circle fill="#555" r="2.5"/><text dy="0.31em" x="6" text-anchor="start" transform="rotate(180)">controls</text></g><g transform="&#xA;        rotate(156.24)&#xA;        translate(290.625,0)&#xA;      "><text dy="0.31em" x="6" text-anchor="start" transform="rotate(180)" stroke="white">axis</text><circle fill="#555" r="2.5"/><text dy="0.31em" x="6" text-anchor="start" transform="rotate(180)">axis</text></g><g transform="&#xA;        rotate(150.48000000000002)&#xA;        translate(387.5,0)&#xA;      "><circle fill="#999" r="2.5"/><text dy="0.31em" x="-6" text-anchor="end" transform="rotate(180)">Visualization</text></g><g transform="&#xA;        rotate(145.44)&#xA;        translate(290.625,0)&#xA;      "><text dy="0.31em" x="6" text-anchor="start" transform="rotate(180)" stroke="white">palette</text><circle fill="#555" r="2.5"/><text dy="0.31em" x="6" text-anchor="start" transform="rotate(180)">palette</text></g><g transform="&#xA;        rotate(138.96)&#xA;        translate(290.625,0)&#xA;      "><text dy="0.31em" x="6" text-anchor="start" transform="rotate(180)" stroke="white">math</text><circle fill="#555" r="2.5"/><text dy="0.31em" x="6" text-anchor="start" transform="rotate(180)">math</text></g><g transform="&#xA;        rotate(133.92)&#xA;        translate(290.625,0)&#xA;      "><text dy="0.31em" x="6" text-anchor="start" transform="rotate(180)" stroke="white">heap</text><circle fill="#555" r="2.5"/><text dy="0.31em" x="6" text-anchor="start" transform="rotate(180)">heap</text></g><g transform="&#xA;        rotate(130.32)&#xA;        translate(387.5,0)&#xA;      "><circle fill="#999" r="2.5"/><text dy="0.31em" x="-6" text-anchor="end" transform="rotate(180)">Strings</text></g><g transform="&#xA;        rotate(128.88)&#xA;        translate(387.5,0)&#xA;      "><circle fill="#999" r="2.5"/><text dy="0.31em" x="-6" text-anchor="end" transform="rotate(180)">Stats</text></g><g transform="&#xA;        rotate(127.44)&#xA;        translate(387.5,0)&#xA;      "><circle fill="#999" r="2.5"/><text dy="0.31em" x="-6" text-anchor="end" transform="rotate(180)">Sort</text></g><g transform="&#xA;        rotate(126)&#xA;        translate(387.5,0)&#xA;      "><circle fill="#999" r="2.5"/><text dy="0.31em" x="-6" text-anchor="end" transform="rotate(180)">Shapes</text></g><g transform="&#xA;        rotate(124.56)&#xA;        translate(387.5,0)&#xA;      "><circle fill="#999" r="2.5"/><text dy="0.31em" x="-6" text-anchor="end" transform="rotate(180)">Property</text></g><g transform="&#xA;        rotate(123.11999999999998)&#xA;        translate(387.5,0)&#xA;      "><circle fill="#999" r="2.5"/><text dy="0.31em" x="-6" text-anchor="end" transform="rotate(180)">Orientation</text></g><g transform="&#xA;        rotate(121.67999999999998)&#xA;        translate(387.5,0)&#xA;      "><circle fill="#999" r="2.5"/><text dy="0.31em" x="-6" text-anchor="end" transform="rotate(180)">Maths</text></g><g transform="&#xA;        rotate(120.23999999999998)&#xA;        translate(387.5,0)&#xA;      "><circle fill="#999" r="2.5"/><text dy="0.31em" x="-6" text-anchor="end" transform="rotate(180)">IValueProxy</text></g><g transform="&#xA;        rotate(118.79999999999998)&#xA;        translate(387.5,0)&#xA;      "><circle fill="#999" r="2.5"/><text dy="0.31em" x="-6" text-anchor="end" transform="rotate(180)">IPredicate</text></g><g transform="&#xA;        rotate(117.35999999999999)&#xA;        translate(387.5,0)&#xA;      "><circle fill="#999" r="2.5"/><text dy="0.31em" x="-6" text-anchor="end" transform="rotate(180)">IEvaluable</text></g><g transform="&#xA;        rotate(115.91999999999999)&#xA;        translate(387.5,0)&#xA;      "><circle fill="#999" r="2.5"/><text dy="0.31em" x="-6" text-anchor="end" transform="rotate(180)">Geometry</text></g><g transform="&#xA;        rotate(114.47999999999999)&#xA;        translate(387.5,0)&#xA;      "><circle fill="#999" r="2.5"/><text dy="0.31em" x="-6" text-anchor="end" transform="rotate(180)">Filter</text></g><g transform="&#xA;        rotate(113.03999999999999)&#xA;        translate(387.5,0)&#xA;      "><circle fill="#999" r="2.5"/><text dy="0.31em" x="-6" text-anchor="end" transform="rotate(180)">Displays</text></g><g transform="&#xA;        rotate(111.60000000000002)&#xA;        translate(387.5,0)&#xA;      "><circle fill="#999" r="2.5"/><text dy="0.31em" x="-6" text-anchor="end" transform="rotate(180)">Dates</text></g><g transform="&#xA;        rotate(110.16000000000003)&#xA;        translate(387.5,0)&#xA;      "><circle fill="#999" r="2.5"/><text dy="0.31em" x="-6" text-anchor="end" transform="rotate(180)">Colors</text></g><g transform="&#xA;        rotate(108.72000000000003)&#xA;        translate(387.5,0)&#xA;      "><circle fill="#999" r="2.5"/><text dy="0.31em" x="-6" text-anchor="end" transform="rotate(180)">Arrays</text></g><g transform="&#xA;        rotate(83.52000000000001)&#xA;        translate(290.625,0)&#xA;      "><text dy="0.31em" x="-6" text-anchor="end" stroke="white">methods</text><circle fill="#555" r="2.5"/><text dy="0.31em" x="-6" text-anchor="end">methods</text></g><g transform="&#xA;        rotate(58.31999999999999)&#xA;        translate(387.5,0)&#xA;      "><circle fill="#999" r="2.5"/><text dy="0.31em" x="6" text-anchor="start">Xor</text></g><g transform="&#xA;        rotate(56.879999999999995)&#xA;        translate(387.5,0)&#xA;      "><circle fill="#999" r="2.5"/><text dy="0.31em" x="6" text-anchor="start">Variance</text></g><g transform="&#xA;        rotate(55.440000000000026)&#xA;        translate(387.5,0)&#xA;      "><circle fill="#999" r="2.5"/><text dy="0.31em" x="6" text-anchor="start">Variable</text></g><g transform="&#xA;        rotate(54)&#xA;        translate(387.5,0)&#xA;      "><circle fill="#999" r="2.5"/><text dy="0.31em" x="6" text-anchor="start">Sum</text></g><g transform="&#xA;        rotate(52.56000000000003)&#xA;        translate(387.5,0)&#xA;      "><circle fill="#999" r="2.5"/><text dy="0.31em" x="6" text-anchor="start">StringUtil</text></g><g transform="&#xA;        rotate(51.120000000000005)&#xA;        translate(387.5,0)&#xA;      "><circle fill="#999" r="2.5"/><text dy="0.31em" x="6" text-anchor="start">Range</text></g><g transform="&#xA;        rotate(49.68000000000001)&#xA;        translate(387.5,0)&#xA;      "><circle fill="#999" r="2.5"/><text dy="0.31em" x="6" text-anchor="start">Query</text></g><g transform="&#xA;        rotate(48.24000000000001)&#xA;        translate(387.5,0)&#xA;      "><circle fill="#999" r="2.5"/><text dy="0.31em" x="6" text-anchor="start">Or</text></g><g transform="&#xA;        rotate(46.79999999999998)&#xA;        translate(387.5,0)&#xA;      "><circle fill="#999" r="2.5"/><text dy="0.31em" x="6" text-anchor="start">Not</text></g><g transform="&#xA;        rotate(45.359999999999985)&#xA;        translate(387.5,0)&#xA;      "><circle fill="#999" r="2.5"/><text dy="0.31em" x="6" text-anchor="start">Minimum</text></g><g transform="&#xA;        rotate(43.91999999999999)&#xA;        translate(387.5,0)&#xA;      "><circle fill="#999" r="2.5"/><text dy="0.31em" x="6" text-anchor="start">Maximum</text></g><g transform="&#xA;        rotate(42.48000000000002)&#xA;        translate(387.5,0)&#xA;      "><circle fill="#999" r="2.5"/><text dy="0.31em" x="6" text-anchor="start">Match</text></g><g transform="&#xA;        rotate(41.03999999999999)&#xA;        translate(387.5,0)&#xA;      "><circle fill="#999" r="2.5"/><text dy="0.31em" x="6" text-anchor="start">Literal</text></g><g transform="&#xA;        rotate(39.60000000000002)&#xA;        translate(387.5,0)&#xA;      "><circle fill="#999" r="2.5"/><text dy="0.31em" x="6" text-anchor="start">IsA</text></g><g transform="&#xA;        rotate(38.16)&#xA;        translate(387.5,0)&#xA;      "><circle fill="#999" r="2.5"/><text dy="0.31em" x="6" text-anchor="start">If</text></g><g transform="&#xA;        rotate(36.719999999999985)&#xA;        translate(387.5,0)&#xA;      "><circle fill="#999" r="2.5"/><text dy="0.31em" x="6" text-anchor="start">Fn</text></g><g transform="&#xA;        rotate(35.27999999999999)&#xA;        translate(387.5,0)&#xA;      "><circle fill="#999" r="2.5"/><text dy="0.31em" x="6" text-anchor="start">ExpressionIterator</text></g><g transform="&#xA;        rotate(33.83999999999999)&#xA;        translate(387.5,0)&#xA;      "><circle fill="#999" r="2.5"/><text dy="0.31em" x="6" text-anchor="start">Expression</text></g><g transform="&#xA;        rotate(32.40000000000002)&#xA;        translate(387.5,0)&#xA;      "><circle fill="#999" r="2.5"/><text dy="0.31em" x="6" text-anchor="start">Distinct</text></g><g transform="&#xA;        rotate(30.960000000000008)&#xA;        translate(387.5,0)&#xA;      "><circle fill="#999" r="2.5"/><text dy="0.31em" x="6" text-anchor="start">DateUtil</text></g><g transform="&#xA;        rotate(29.519999999999996)&#xA;        translate(387.5,0)&#xA;      "><circle fill="#999" r="2.5"/><text dy="0.31em" x="6" text-anchor="start">Count</text></g><g transform="&#xA;        rotate(28.08)&#xA;        translate(387.5,0)&#xA;      "><circle fill="#999" r="2.5"/><text dy="0.31em" x="6" text-anchor="start">CompositeExpression</text></g><g transform="&#xA;        rotate(26.64)&#xA;        translate(387.5,0)&#xA;      "><circle fill="#999" r="2.5"/><text dy="0.31em" x="6" text-anchor="start">Comparison</text></g><g transform="&#xA;        rotate(25.200000000000017)&#xA;        translate(387.5,0)&#xA;      "><circle fill="#999" r="2.5"/><text dy="0.31em" x="6" text-anchor="start">BinaryExpression</text></g><g transform="&#xA;        rotate(23.760000000000005)&#xA;        translate(387.5,0)&#xA;      "><circle fill="#999" r="2.5"/><text dy="0.31em" x="6" text-anchor="start">Average</text></g><g transform="&#xA;        rotate(22.319999999999993)&#xA;        translate(387.5,0)&#xA;      "><circle fill="#999" r="2.5"/><text dy="0.31em" x="6" text-anchor="start">Arithmetic</text></g><g transform="&#xA;        rotate(20.879999999999995)&#xA;        translate(387.5,0)&#xA;      "><circle fill="#999" r="2.5"/><text dy="0.31em" x="6" text-anchor="start">And</text></g><g transform="&#xA;        rotate(19.439999999999998)&#xA;        translate(387.5,0)&#xA;      "><circle fill="#999" r="2.5"/><text dy="0.31em" x="6" text-anchor="start">AggregateExpression</text></g><g transform="&#xA;        rotate(13.679999999999993)&#xA;        translate(290.625,0)&#xA;      "><text dy="0.31em" x="-6" text-anchor="end" stroke="white">converters</text><circle fill="#555" r="2.5"/><text dy="0.31em" x="-6" text-anchor="end">converters</text></g><g transform="&#xA;        rotate(7.920000000000002)&#xA;        translate(387.5,0)&#xA;      "><circle fill="#999" r="2.5"/><text dy="0.31em" x="6" text-anchor="start">DataUtil</text></g><g transform="&#xA;        rotate(6.480000000000004)&#xA;        translate(387.5,0)&#xA;      "><circle fill="#999" r="2.5"/><text dy="0.31em" x="6" text-anchor="start">DataTable</text></g><g transform="&#xA;        rotate(5.040000000000006)&#xA;        translate(387.5,0)&#xA;      "><circle fill="#999" r="2.5"/><text dy="0.31em" x="6" text-anchor="start">DataSource</text></g><g transform="&#xA;        rotate(3.6000000000000085)&#xA;        translate(387.5,0)&#xA;      "><circle fill="#999" r="2.5"/><text dy="0.31em" x="6" text-anchor="start">DataSet</text></g><g transform="&#xA;        rotate(2.1599999999999966)&#xA;        translate(387.5,0)&#xA;      "><circle fill="#999" r="2.5"/><text dy="0.31em" x="6" text-anchor="start">DataSchema</text></g><g transform="&#xA;        rotate(0.7199999999999989)&#xA;        translate(387.5,0)&#xA;      "><circle fill="#999" r="2.5"/><text dy="0.31em" x="6" text-anchor="start">DataField</text></g><g transform="&#xA;        rotate(-7.9199999999999875)&#xA;        translate(290.625,0)&#xA;      "><text dy="0.31em" x="-6" text-anchor="end" stroke="white">interpolate</text><circle fill="#555" r="2.5"/><text dy="0.31em" x="-6" text-anchor="end">interpolate</text></g><g transform="&#xA;        rotate(-16.560000000000002)&#xA;        translate(387.5,0)&#xA;      "><circle fill="#999" r="2.5"/><text dy="0.31em" x="6" text-anchor="start">Tween</text></g><g transform="&#xA;        rotate(-18)&#xA;        translate(387.5,0)&#xA;      "><circle fill="#999" r="2.5"/><text dy="0.31em" x="6" text-anchor="start">TransitionEvent</text></g><g transform="&#xA;        rotate(-19.439999999999998)&#xA;        translate(387.5,0)&#xA;      "><circle fill="#999" r="2.5"/><text dy="0.31em" x="6" text-anchor="start">Transitioner</text></g><g transform="&#xA;        rotate(-20.879999999999995)&#xA;        translate(387.5,0)&#xA;      "><circle fill="#999" r="2.5"/><text dy="0.31em" x="6" text-anchor="start">Transition</text></g><g transform="&#xA;        rotate(-22.320000000000007)&#xA;        translate(387.5,0)&#xA;      "><circle fill="#999" r="2.5"/><text dy="0.31em" x="6" text-anchor="start">Sequence</text></g><g transform="&#xA;        rotate(-23.75999999999999)&#xA;        translate(387.5,0)&#xA;      "><circle fill="#999" r="2.5"/><text dy="0.31em" x="6" text-anchor="start">Scheduler</text></g><g transform="&#xA;        rotate(-25.19999999999999)&#xA;        translate(387.5,0)&#xA;      "><circle fill="#999" r="2.5"/><text dy="0.31em" x="6" text-anchor="start">Pause</text></g><g transform="&#xA;        rotate(-26.640000000000008)&#xA;        translate(387.5,0)&#xA;      "><circle fill="#999" r="2.5"/><text dy="0.31em" x="6" text-anchor="start">Parallel</text></g><g transform="&#xA;        rotate(-28.080000000000005)&#xA;        translate(387.5,0)&#xA;      "><circle fill="#999" r="2.5"/><text dy="0.31em" x="6" text-anchor="start">ISchedulable</text></g><g transform="&#xA;        rotate(-29.519999999999996)&#xA;        translate(387.5,0)&#xA;      "><circle fill="#999" r="2.5"/><text dy="0.31em" x="6" text-anchor="start">FunctionSequence</text></g><g transform="&#xA;        rotate(-30.96)&#xA;        translate(387.5,0)&#xA;      "><circle fill="#999" r="2.5"/><text dy="0.31em" x="6" text-anchor="start">Easing</text></g><g transform="&#xA;        rotate(-33.84)&#xA;        translate(290.625,0)&#xA;      "><text dy="0.31em" x="-6" text-anchor="end" stroke="white">optimization</text><circle fill="#555" r="2.5"/><text dy="0.31em" x="-6" text-anchor="end">optimization</text></g><g transform="&#xA;        rotate(-39.599999999999994)&#xA;        translate(290.625,0)&#xA;      "><text dy="0.31em" x="-6" text-anchor="end" stroke="white">graph</text><circle fill="#555" r="2.5"/><text dy="0.31em" x="-6" text-anchor="end">graph</text></g><g transform="&#xA;        rotate(-47.52)&#xA;        translate(290.625,0)&#xA;      "><text dy="0.31em" x="-6" text-anchor="end" stroke="white">cluster</text><circle fill="#555" r="2.5"/><text dy="0.31em" x="-6" text-anchor="end">cluster</text></g><g transform="&#xA;        rotate(-52.56)&#xA;        translate(387.5,0)&#xA;      "><circle fill="#999" r="2.5"/><text dy="0.31em" x="6" text-anchor="start">TimeScale</text></g><g transform="&#xA;        rotate(-54)&#xA;        translate(387.5,0)&#xA;      "><circle fill="#999" r="2.5"/><text dy="0.31em" x="6" text-anchor="start">ScaleType</text></g><g transform="&#xA;        rotate(-55.44)&#xA;        translate(387.5,0)&#xA;      "><circle fill="#999" r="2.5"/><text dy="0.31em" x="6" text-anchor="start">Scale</text></g><g transform="&#xA;        rotate(-56.879999999999995)&#xA;        translate(387.5,0)&#xA;      "><circle fill="#999" r="2.5"/><text dy="0.31em" x="6" text-anchor="start">RootScale</text></g><g transform="&#xA;        rotate(-58.32000000000001)&#xA;        translate(387.5,0)&#xA;      "><circle fill="#999" r="2.5"/><text dy="0.31em" x="6" text-anchor="start">QuantitativeScale</text></g><g transform="&#xA;        rotate(-59.76)&#xA;        translate(387.5,0)&#xA;      "><circle fill="#999" r="2.5"/><text dy="0.31em" x="6" text-anchor="start">QuantileScale</text></g><g transform="&#xA;        rotate(-61.199999999999996)&#xA;        translate(387.5,0)&#xA;      "><circle fill="#999" r="2.5"/><text dy="0.31em" x="6" text-anchor="start">OrdinalScale</text></g><g transform="&#xA;        rotate(-62.64)&#xA;        translate(387.5,0)&#xA;      "><circle fill="#999" r="2.5"/><text dy="0.31em" x="6" text-anchor="start">LogScale</text></g><g transform="&#xA;        rotate(-64.08)&#xA;        translate(387.5,0)&#xA;      "><circle fill="#999" r="2.5"/><text dy="0.31em" x="6" text-anchor="start">LinearScale</text></g><g transform="&#xA;        rotate(-65.52)&#xA;        translate(387.5,0)&#xA;      "><circle fill="#999" r="2.5"/><text dy="0.31em" x="6" text-anchor="start">IScaleMap</text></g><g transform="&#xA;        rotate(-68.4)&#xA;        translate(387.5,0)&#xA;      "><circle fill="#999" r="2.5"/><text dy="0.31em" x="6" text-anchor="start">SpringForce</text></g><g transform="&#xA;        rotate(-69.84)&#xA;        translate(387.5,0)&#xA;      "><circle fill="#999" r="2.5"/><text dy="0.31em" x="6" text-anchor="start">Spring</text></g><g transform="&#xA;        rotate(-71.28)&#xA;        translate(387.5,0)&#xA;      "><circle fill="#999" r="2.5"/><text dy="0.31em" x="6" text-anchor="start">Simulation</text></g><g transform="&#xA;        rotate(-72.72)&#xA;        translate(387.5,0)&#xA;      "><circle fill="#999" r="2.5"/><text dy="0.31em" x="6" text-anchor="start">Particle</text></g><g transform="&#xA;        rotate(-74.16)&#xA;        translate(387.5,0)&#xA;      "><circle fill="#999" r="2.5"/><text dy="0.31em" x="6" text-anchor="start">NBodyForce</text></g><g transform="&#xA;        rotate(-75.6)&#xA;        translate(387.5,0)&#xA;      "><circle fill="#999" r="2.5"/><text dy="0.31em" x="6" text-anchor="start">IForce</text></g><g transform="&#xA;        rotate(-77.04)&#xA;        translate(387.5,0)&#xA;      "><circle fill="#999" r="2.5"/><text dy="0.31em" x="6" text-anchor="start">GravityForce</text></g><g transform="&#xA;        rotate(-78.48)&#xA;        translate(387.5,0)&#xA;      "><circle fill="#999" r="2.5"/><text dy="0.31em" x="6" text-anchor="start">DragForce</text></g><g transform="&#xA;        rotate(-81.36)&#xA;        translate(387.5,0)&#xA;      "><circle fill="#999" r="2.5"/><text dy="0.31em" x="6" text-anchor="start">FlareVis</text></g><g transform="&#xA;        rotate(-84.24)&#xA;        translate(387.5,0)&#xA;      "><circle fill="#999" r="2.5"/><text dy="0.31em" x="6" text-anchor="start">TextSprite</text></g><g transform="&#xA;        rotate(-85.68)&#xA;        translate(387.5,0)&#xA;      "><circle fill="#999" r="2.5"/><text dy="0.31em" x="6" text-anchor="start">RectSprite</text></g><g transform="&#xA;        rotate(-87.12)&#xA;        translate(387.5,0)&#xA;      "><circle fill="#999" r="2.5"/><text dy="0.31em" x="6" text-anchor="start">LineSprite</text></g><g transform="&#xA;        rotate(-88.56)&#xA;        translate(387.5,0)&#xA;      "><circle fill="#999" r="2.5"/><text dy="0.31em" x="6" text-anchor="start">DirtySprite</text></g><g transform="&#xA;        rotate(181.45974025974022)&#xA;        translate(96.875,0)&#xA;      "><text dy="0.31em" x="6" text-anchor="start" transform="rotate(180)" stroke="white">vis</text><circle fill="#555" r="2.5"/><text dy="0.31em" x="6" text-anchor="start" transform="rotate(180)">vis</text></g><g transform="&#xA;        rotate(122.66526315789471)&#xA;        translate(193.75,0)&#xA;      "><text dy="0.31em" x="6" text-anchor="start" transform="rotate(180)" stroke="white">util</text><circle fill="#555" r="2.5"/><text dy="0.31em" x="6" text-anchor="start" transform="rotate(180)">util</text></g><g transform="&#xA;        rotate(40.41931034482755)&#xA;        translate(193.75,0)&#xA;      "><text dy="0.31em" x="-6" text-anchor="end" stroke="white">query</text><circle fill="#555" r="2.5"/><text dy="0.31em" x="-6" text-anchor="end">query</text></g><g transform="&#xA;        rotate(5.657142857142858)&#xA;        translate(193.75,0)&#xA;      "><text dy="0.31em" x="-6" text-anchor="end" stroke="white">data</text><circle fill="#555" r="2.5"/><text dy="0.31em" x="-6" text-anchor="end">data</text></g><g transform="&#xA;        rotate(-22.439999999999998)&#xA;        translate(193.75,0)&#xA;      "><text dy="0.31em" x="-6" text-anchor="end" stroke="white">animate</text><circle fill="#555" r="2.5"/><text dy="0.31em" x="-6" text-anchor="end">animate</text></g><g transform="&#xA;        rotate(-40.31999999999999)&#xA;        translate(193.75,0)&#xA;      "><text dy="0.31em" x="-6" text-anchor="end" stroke="white">analytics</text><circle fill="#555" r="2.5"/><text dy="0.31em" x="-6" text-anchor="end">analytics</text></g><g transform="&#xA;        rotate(-59.040000000000006)&#xA;        translate(290.625,0)&#xA;      "><text dy="0.31em" x="-6" text-anchor="end" stroke="white">scale</text><circle fill="#555" r="2.5"/><text dy="0.31em" x="-6" text-anchor="end">scale</text></g><g transform="&#xA;        rotate(-73.44)&#xA;        translate(290.625,0)&#xA;      "><text dy="0.31em" x="-6" text-anchor="end" stroke="white">physics</text><circle fill="#555" r="2.5"/><text dy="0.31em" x="-6" text-anchor="end">physics</text></g><g transform="&#xA;        rotate(-81.36)&#xA;        translate(290.625,0)&#xA;      "><text dy="0.31em" x="-6" text-anchor="end" stroke="white">flex</text><circle fill="#555" r="2.5"/><text dy="0.31em" x="-6" text-anchor="end">flex</text></g><g transform="&#xA;        rotate(-86.4)&#xA;        translate(290.625,0)&#xA;      "><text dy="0.31em" x="-6" text-anchor="end" stroke="white">display</text><circle fill="#555" r="2.5"/><text dy="0.31em" x="-6" text-anchor="end">display</text></g><g transform="&#xA;        rotate(-1.2798543380394563)&#xA;        translate(0,0)&#xA;      "><text dy="0.31em" x="-6" text-anchor="end" stroke="white">flare</text><circle fill="#555" r="2.5"/><text dy="0.31em" x="-6" text-anchor="end">flare</text></g></g></svg>