<?xml version="1.0" encoding="UTF-8"?>
<svg width="1200px" height="900px" viewBox="0 0 1200 900" version="1.1" xmlns="http://www.w3.org/2000/svg" xmlns:xlink="http://www.w3.org/1999/xlink">
    <!-- Generator: Sketch 57.1 (83088) - https://sketch.com -->
    <title>Static HTML</title>
    <desc>Created with Sketch.</desc>
    <g id="Static-HTML" stroke="none" stroke-width="1" fill="none" fill-rule="evenodd">
        <text font-family="HelveticaNeue, Helvetica Neue" font-size="48" font-weight="normal" fill="#151515">
            <tspan x="63" y="85">Static HTML</tspan>
        </text>
        <rect id="Rectangle" stroke="#494949" stroke-width="5" x="898" y="189" width="200" height="554"></rect>
        <rect id="Rectangle" stroke="#494949" stroke-width="5" x="63" y="189" width="577" height="632"></rect>
        <text id="Server-(Apache/http-" font-family="HelveticaNeue-Italic, Helvetica Neue" font-size="16" font-style="italic" font-weight="normal" fill="#151515">
            <tspan x="63" y="162">Server (Apache/http-server)</tspan>
        </text>
        <text id="Client-(browser)" font-family="HelveticaNeue-Italic, Helvetica Neue" font-size="16" font-style="italic" font-weight="normal" fill="#151515">
            <tspan x="898" y="162">Client (browser)</tspan>
        </text>
        <g id="Group-2" transform="translate(646.000000, 237.000000)">
            <path id="Line" d="M24.5,17.5 L24.5,27.5 L246.5,27.5 L246.5,31.5 L24.5,31.5 L24.5,41.5 L0.5,29.5 L24.5,17.5 Z" fill="#373737" fill-rule="nonzero"></path>
            <path id="Line" d="M228,45 L252,57 L228,69 L228,59 L-1,59 L-1,55 L228,55 L228,45 Z" fill="#373737" fill-rule="nonzero"></path>
            <text id="GET-/" font-family="HelveticaNeue-Italic, Helvetica Neue" font-size="16" font-style="italic" font-weight="normal" fill="#151515">
                <tspan x="62" y="15">GET /</tspan>
            </text>
        </g>
        <g id="Group-2" transform="translate(645.000000, 577.000000)">
            <path id="Line" d="M24.5,17.5 L24.5,27.5 L246.5,27.5 L246.5,31.5 L24.5,31.5 L24.5,41.5 L0.5,29.5 L24.5,17.5 Z" fill="#373737" fill-rule="nonzero"></path>
            <path id="Line" d="M228,45 L252,57 L228,69 L228,59 L-1,59 L-1,55 L228,55 L228,45 Z" fill="#373737" fill-rule="nonzero"></path>
            <text id="GET-/logo.png" font-family="HelveticaNeue-Italic, Helvetica Neue" font-size="16" font-style="italic" font-weight="normal" fill="#151515">
                <tspan x="62" y="15">GET /logo.png</tspan>
            </text>
        </g>
        <g id="Group-2" transform="translate(646.000000, 407.000000)">
            <path id="Line" d="M24.5,17.5 L24.5,27.5 L246.5,27.5 L246.5,31.5 L24.5,31.5 L24.5,41.5 L0.5,29.5 L24.5,17.5 Z" fill="#373737" fill-rule="nonzero"></path>
            <path id="Line" d="M228,45 L252,57 L228,69 L228,59 L-1,59 L-1,55 L228,55 L228,45 Z" fill="#373737" fill-rule="nonzero"></path>
            <text id="GET-/main.js" font-family="HelveticaNeue-Italic, Helvetica Neue" font-size="16" font-style="italic" font-weight="normal" fill="#151515">
                <tspan x="62" y="15">GET /main.js</tspan>
            </text>
        </g>
        <g id="Group" transform="translate(731.000000, 301.000000)">
            <g id="File" transform="translate(13.000000, 0.000000)" stroke="#979797">
                <rect id="Rectangle" fill="#50E3C2" x="0" y="0" width="48" height="63"></rect>
                <path d="M8.5,9.5 L40.5,9.5" id="Line-2" stroke-linecap="square"></path>
                <path d="M8.5,24.5 L40.5,24.5" id="Line-2" stroke-linecap="square"></path>
                <path d="M8.5,39.5 L40.5,39.5" id="Line-2" stroke-linecap="square"></path>
                <path d="M8.5,54.5 L40.5,54.5" id="Line-2" stroke-linecap="square"></path>
            </g>
            <text id="index.html" font-family="HelveticaNeue-Italic, Helvetica Neue" font-size="16" font-style="italic" font-weight="normal" fill="#151515">
                <tspan x="0.104" y="78">index.html</tspan>
            </text>
        </g>
        <g id="Group" transform="translate(125.000000, 254.000000)">
            <g id="File" transform="translate(13.000000, 0.000000)" stroke="#979797">
                <rect id="Rectangle" fill="#50E3C2" x="0" y="0" width="48" height="63"></rect>
                <path d="M8.5,9.5 L40.5,9.5" id="Line-2" stroke-linecap="square"></path>
                <path d="M8.5,24.5 L40.5,24.5" id="Line-2" stroke-linecap="square"></path>
                <path d="M8.5,39.5 L40.5,39.5" id="Line-2" stroke-linecap="square"></path>
                <path d="M8.5,54.5 L40.5,54.5" id="Line-2" stroke-linecap="square"></path>
            </g>
            <text id="index.html" font-family="HelveticaNeue-Italic, Helvetica Neue" font-size="16" font-style="italic" font-weight="normal" fill="#151515">
                <tspan x="0" y="78">index.html</tspan>
            </text>
        </g>
        <g id="Group" transform="translate(136.000000, 365.000000)">
            <g id="File" transform="translate(2.000000, 0.000000)" stroke="#979797">
                <rect id="Rectangle" fill="#F8E71C" x="0" y="0" width="48" height="63"></rect>
                <path d="M8.5,9.5 L40.5,9.5" id="Line-2" stroke-linecap="square"></path>
                <path d="M8.5,24.5 L40.5,24.5" id="Line-2" stroke-linecap="square"></path>
                <path d="M8.5,39.5 L40.5,39.5" id="Line-2" stroke-linecap="square"></path>
                <path d="M8.5,54.5 L40.5,54.5" id="Line-2" stroke-linecap="square"></path>
            </g>
            <text id="main.js" font-family="HelveticaNeue-Italic, Helvetica Neue" font-size="16" font-style="italic" font-weight="normal" fill="#151515">
                <tspan x="0.96" y="78">main.js</tspan>
            </text>
        </g>
        <g id="Group" transform="translate(136.000000, 365.000000)">
            <g id="File" transform="translate(2.000000, 0.000000)" stroke="#979797">
                <rect id="Rectangle" fill="#F8E71C" x="0" y="0" width="48" height="63"></rect>
                <path d="M8.5,9.5 L40.5,9.5" id="Line-2" stroke-linecap="square"></path>
                <path d="M8.5,24.5 L40.5,24.5" id="Line-2" stroke-linecap="square"></path>
                <path d="M8.5,39.5 L40.5,39.5" id="Line-2" stroke-linecap="square"></path>
                <path d="M8.5,54.5 L40.5,54.5" id="Line-2" stroke-linecap="square"></path>
            </g>
            <text id="main.js" font-family="HelveticaNeue-Italic, Helvetica Neue" font-size="16" font-style="italic" font-weight="normal" fill="#151515">
                <tspan x="0.96" y="78">main.js</tspan>
            </text>
        </g>
        <g id="Group" transform="translate(745.000000, 470.000000)">
            <g id="File" transform="translate(2.000000, 0.000000)" stroke="#979797">
                <rect id="Rectangle" fill="#F8E71C" x="0" y="0" width="48" height="63"></rect>
                <path d="M8.5,9.5 L40.5,9.5" id="Line-2" stroke-linecap="square"></path>
                <path d="M8.5,24.5 L40.5,24.5" id="Line-2" stroke-linecap="square"></path>
                <path d="M8.5,39.5 L40.5,39.5" id="Line-2" stroke-linecap="square"></path>
                <path d="M8.5,54.5 L40.5,54.5" id="Line-2" stroke-linecap="square"></path>
            </g>
            <text id="main.js" font-family="HelveticaNeue-Italic, Helvetica Neue" font-size="16" font-style="italic" font-weight="normal" fill="#151515">
                <tspan x="0.96" y="78">main.js</tspan>
            </text>
        </g>
        <g id="Group" transform="translate(130.000000, 472.000000)">
            <g id="File" transform="translate(8.000000, 0.000000)" stroke="#979797">
                <rect id="Rectangle" fill="#B8E986" x="0" y="0" width="48" height="63"></rect>
                <path d="M8.5,9.5 L40.5,9.5" id="Line-2" stroke-linecap="square"></path>
                <path d="M8.5,24.5 L40.5,24.5" id="Line-2" stroke-linecap="square"></path>
                <path d="M8.5,39.5 L40.5,39.5" id="Line-2" stroke-linecap="square"></path>
                <path d="M8.5,54.5 L40.5,54.5" id="Line-2" stroke-linecap="square"></path>
            </g>
            <text id="logo.png" font-family="HelveticaNeue-Italic, Helvetica Neue" font-size="16" font-style="italic" font-weight="normal" fill="#151515">
                <tspan x="0.44" y="78">logo.png</tspan>
            </text>
        </g>
        <g id="Group" transform="translate(741.000000, 641.000000)">
            <g id="File" transform="translate(8.000000, 0.000000)" stroke="#979797">
                <rect id="Rectangle" fill="#B8E986" x="0" y="0" width="48" height="63"></rect>
                <path d="M8.5,9.5 L40.5,9.5" id="Line-2" stroke-linecap="square"></path>
                <path d="M8.5,24.5 L40.5,24.5" id="Line-2" stroke-linecap="square"></path>
                <path d="M8.5,39.5 L40.5,39.5" id="Line-2" stroke-linecap="square"></path>
                <path d="M8.5,54.5 L40.5,54.5" id="Line-2" stroke-linecap="square"></path>
            </g>
            <text id="logo.png" font-family="HelveticaNeue-Italic, Helvetica Neue" font-size="16" font-style="italic" font-weight="normal" fill="#151515">
                <tspan x="0.44" y="78">logo.png</tspan>
            </text>
        </g>
        <g id="Group-3" transform="translate(945.000000, 208.000000)">
            <rect id="Rectangle" stroke="#979797" x="0" y="0" width="106" height="157"></rect>
            <rect id="Rectangle" stroke="#979797" fill="#D8D8D8" x="65" y="9" width="32" height="57"></rect>
            <text id="Title" font-family="HelveticaNeue-Bold, Helvetica Neue" font-size="16" font-weight="bold" fill="#151515">
                <tspan x="9" y="25">Title</tspan>
            </text>
            <text id="Lorem-ipsum-dolor-si" font-family="HelveticaNeue, Helvetica Neue" font-size="6" font-weight="normal" fill="#151515">
                <tspan x="9" y="44">Lorem ipsum dolor </tspan>
                <tspan x="9" y="51">sit amet, </tspan>
                <tspan x="9" y="58">consectetur </tspan>
                <tspan x="9" y="65">adipisicing elit. </tspan>
                <tspan x="9" y="72">Provident, </tspan>
                <tspan x="9" y="79">quibusdam iure. </tspan>
                <tspan x="9" y="86">Itaque distinctio et </tspan>
                <tspan x="9" y="93">necessitatibus </tspan>
                <tspan x="9" y="100">possimus a ea aut </tspan>
                <tspan x="9" y="107">dolores odio eaque </tspan>
                <tspan x="9" y="114">blanditiis officia </tspan>
                <tspan x="9" y="121">dolorem fuga </tspan>
                <tspan x="9" y="128">nostrum quas </tspan>
                <tspan x="9" y="135">dolor, modi?</tspan>
            </text>
        </g>
        <g id="Group-3" transform="translate(945.000000, 557.000000)">
            <rect id="Rectangle" stroke="#979797" x="0" y="0" width="106" height="157"></rect>
            <rect id="Rectangle" stroke="#979797" x="65" y="9" width="32" height="57"></rect>
            <text id="Title" font-family="HelveticaNeue-Bold, Helvetica Neue" font-size="16" font-weight="bold" fill="#151515">
                <tspan x="9" y="25">Title</tspan>
            </text>
            <text id="Lorem-ipsum-dolor-si" font-family="HelveticaNeue, Helvetica Neue" font-size="6" font-weight="normal" fill="#151515">
                <tspan x="9" y="44">Lorem ipsum dolor </tspan>
                <tspan x="9" y="51">sit amet, </tspan>
                <tspan x="9" y="58">consectetur </tspan>
                <tspan x="9" y="65">adipisicing elit. </tspan>
                <tspan x="9" y="72">Provident, </tspan>
                <tspan x="9" y="79">quibusdam iure. </tspan>
                <tspan x="9" y="86">Itaque distinctio et </tspan>
                <tspan x="9" y="93">necessitatibus </tspan>
                <tspan x="9" y="100">possimus a ea aut </tspan>
                <tspan x="9" y="107">dolores odio eaque </tspan>
                <tspan x="9" y="114">blanditiis officia </tspan>
                <tspan x="9" y="121">dolorem fuga </tspan>
                <tspan x="9" y="128">nostrum quas </tspan>
                <tspan x="9" y="135">dolor, modi?</tspan>
            </text>
        </g>
        <g id="Group-4" transform="translate(1013.000000, 572.000000)">
            <circle id="Oval" fill="#4A4A4A" cx="9" cy="9" r="9"></circle>
            <circle id="Oval" fill="#888888" cx="18" cy="16" r="9"></circle>
            <circle id="Oval" fill="#9D9D9D" cx="9" cy="23" r="9"></circle>
        </g>
        <path d="M626.5,263.5 L198.5,295.5" id="Line-3" stroke="#979797" stroke-linecap="square"></path>
        <path d="M626.5,437.5 L197.5,404.5" id="Line-4" stroke="#979797" stroke-linecap="square"></path>
        <path d="M640.5,622.5 L199.5,505.5" id="Line-5" stroke="#979797" stroke-linecap="square"></path>
    </g>
</svg>