<?xml version="1.0" encoding="UTF-8" standalone="no"?>
<svg width="326px" height="255px" viewBox="0 0 326 255" version="1.1" xmlns="http://www.w3.org/2000/svg" xmlns:xlink="http://www.w3.org/1999/xlink" xmlns:sketch="http://www.bohemiancoding.com/sketch/ns">
    <!-- Generator: Sketch 3.5.2 (25235) - http://www.bohemiancoding.com/sketch -->
    <title>Traditional Data Science@2x</title>
    <desc>Created with Sketch.</desc>
    <defs></defs>
    <g id="Page-1" stroke="none" stroke-width="1" fill="none" fill-rule="evenodd" sketch:type="MSPage">
        <g id="CV_JohnGuerra" sketch:type="MSArtboardGroup" transform="translate(-634.000000, -212.000000)">
            <g id="Traditional-data-sci-+-Traditional-data-sci-+-Group" sketch:type="MSLayerGroup" transform="translate(626.000000, 146.000000)">
                <g id="Traditional-Data-Science" transform="translate(8.000000, 64.000000)">
                    <g id="Stick-Figure-2" transform="translate(31.069232, 101.614783)" stroke="#979797" stroke-width="2" sketch:type="MSShapeGroup">
                        <ellipse id="Oval-9" cx="14.4653842" cy="11.8396239" rx="11.9496652" ry="11.8396239"></ellipse>
                        <path d="M15.0997654,23.7520587 L15.0997654,56.126169" id="Path-1"></path>
                        <path d="M2.57963947,70.2298044 L15.1641031,55.684194 L28.2010756,69.6178497" id="Path-2"></path>
                        <path d="M0.280637242,42.3210586 L15.0793918,34.0086742 L28.8069228,41.5996745" id="Path-3"></path>
                        <path d="M7.29130727,14.9945198 C7.29130727,14.9945198 15.0751028,24.3788875 21.0574409,14.7448508" id="Path-6" transform="translate(14.465384, 16.824729) scale(1, -1) translate(-14.465384, -16.824729) "></path>
                        <path d="M18.9947958,6.54295814 L18.9947958,9.96607964" id="Path-5"></path>
                        <path d="M8.93191987,6.54295814 L8.93191987,9.96607964" id="Path"></path>
                    </g>
                    <g id="Group-2" transform="translate(86.830601, 22.000000)" stroke="#979797" fill="#D8D8D8" sketch:type="MSShapeGroup">
                        <rect id="Oval-14" x="0" y="8.500625" width="47.1693989" height="44.931875"></rect>
                        <path d="M47.1868067,52.218125 C47.1868067,56.9128906 36.6101693,60.71875 23.5846995,60.71875 C10.5592296,60.71875 0,56.9128906 0,52.218125" id="Path"></path>
                        <path d="M23.5846995,17.00125 C36.6101693,17.00125 47.1693989,13.1953906 47.1693989,8.500625 C47.1693989,3.80585945 36.6101693,0 23.5846995,0 C10.5592296,0 0,3.80585945 0,8.500625 C0,13.1953906 10.5592296,17.00125 23.5846995,17.00125 Z" id="Oval-10"></path>
                    </g>
                    <rect id="Rectangle-13" stroke="#979797" sketch:type="MSShapeGroup" x="131" y="190" width="34" height="49"></rect>
                    <g id="Path-8-+-Triangle-20" transform="translate(172.827185, 67.667801) rotate(55.000000) translate(-172.827185, -67.667801) translate(149.827185, 48.667801)" sketch:type="MSShapeGroup">
                        <path d="M0.205792584,37.8221292 C5.06051729,26.8547929 18.3824631,12.8504856 36.5591341,10.2603013" id="Path-8" stroke="#86C6D7" stroke-width="10"></path>
                        <polygon id="Triangle-2" fill="#86C6D7" transform="translate(36.992927, 9.394440) rotate(72.000000) translate(-36.992927, -9.394440) " points="36.9929266 2.0221681 44.7421849 16.7667118 29.2436682 16.7667118 "></polygon>
                    </g>
                    <g id="Path-8-+-Triangle-15" transform="translate(191.510188, 180.589332) rotate(-200.000000) translate(-191.510188, -180.589332) translate(168.510188, 161.589332)" sketch:type="MSShapeGroup">
                        <path d="M0.205792584,37.8221292 C5.06051729,26.8547929 18.3824631,12.8504856 36.5591341,10.2603013" id="Path-8" stroke="#86C6D7" stroke-width="10"></path>
                        <polygon id="Triangle-2" fill="#86C6D7" transform="translate(36.992927, 9.394440) rotate(72.000000) translate(-36.992927, -9.394440) " points="36.9929266 2.0221681 44.7421849 16.7667118 29.2436682 16.7667118 "></polygon>
                    </g>
                    <g id="Path-8-+-Triangle-16" transform="translate(90.566022, 186.719784) rotate(258.000000) translate(-90.566022, -186.719784) translate(67.566022, 167.719784)" sketch:type="MSShapeGroup">
                        <path d="M0.205792584,37.8221292 C5.06051729,26.8547929 18.3824631,12.8504856 36.5591341,10.2603013" id="Path-8" stroke="#86C6D7" stroke-width="10"></path>
                        <polygon id="Triangle-2" fill="#86C6D7" transform="translate(36.992927, 9.394440) rotate(72.000000) translate(-36.992927, -9.394440) " points="36.9929266 2.0221681 44.7421849 16.7667118 29.2436682 16.7667118 "></polygon>
                    </g>
                    <text id="Machine-" sketch:type="MSTextLayer" font-family="Helvetica Neue" font-size="13" font-weight="normal" fill="#333333">
                        <tspan x="270.5" y="102">Machine </tspan>
                        <tspan x="270.5" y="118.363998">Learning/</tspan>
                        <tspan x="270.5" y="134.727997">Statistics</tspan>
                    </text>
                    <text id="Outliers-/-Clusters-" sketch:type="MSTextLayer" font-family="Helvetica Neue" font-size="13" font-weight="normal" fill="#333333">
                        <tspan x="97.4579115" y="256">Outliers / Clusters …</tspan>
                    </text>
                    <text id="Data" sketch:type="MSTextLayer" font-family="Helvetica Neue" font-size="13" font-weight="normal" fill="#333333">
                        <tspan x="94" y="11.6152779">Data</tspan>
                    </text>
                    <text id="User" sketch:type="MSTextLayer" font-family="Helvetica Neue" font-size="13" font-weight="normal" fill="#333333">
                        <tspan x="-0.0292869102" y="124.285496">User</tspan>
                    </text>
                    <g id="Rectangle-11-+-Rectangle-11-+-Rectangle-12" transform="translate(191.000000, 86.000000)" stroke="#A2A2A2" fill="#171717" sketch:type="MSShapeGroup">
                        <path d="M47.25,62.0156919 L62.9896482,48.9993965 L62.9896482,0.476669237 L47.25,13.4929647 L47.25,62.0156919 Z" id="Rectangle-11"></path>
                        <path d="M63.2348723,0.462264071 L15.9848723,0.462264071 L0,13.4897325 L47.25,13.4897325 L63.2348723,0.462264071 Z" id="Rectangle-12"></path>
                        <path d="M0,62 L47.25,62 L47.25,13.4772727 L0,13.4772727 L0,62 Z" id="Rectangle-10"></path>
                    </g>
                    <path d="M138,198 L157.210848,198" id="Path-44" stroke="#979797" sketch:type="MSShapeGroup"></path>
                    <path d="M138,205 L157.210848,205" id="Path-45" stroke="#979797" sketch:type="MSShapeGroup"></path>
                    <path d="M138,212 L157.210848,212" id="Path-46" stroke="#979797" sketch:type="MSShapeGroup"></path>
                    <path d="M138,219 L157.210848,219" id="Path-47" stroke="#979797" sketch:type="MSShapeGroup"></path>
                    <path d="M138,226 L157.210848,226" id="Path-48" stroke="#979797" sketch:type="MSShapeGroup"></path>
                    <path d="M138,233 L157.210848,233" id="Path-49" stroke="#979797" sketch:type="MSShapeGroup"></path>
                </g>
            </g>
        </g>
    </g>
</svg>