<?xml version="1.0" encoding="UTF-8"?>
<svg width="1024px" height="1024px" viewBox="0 0 1024 1024" version="1.1" xmlns="http://www.w3.org/2000/svg" xmlns:xlink="http://www.w3.org/1999/xlink">
    <!-- Generator: Sketch 57.1 (83088) - https://sketch.com -->
    <title>Traditional Programming vs Machine Learning</title>
    <desc>Created with Sketch.</desc>
    <defs>
        <rect id="path-1" x="0" y="0" width="319" height="217" rx="8"></rect>
        <filter x="-2.5%" y="-3.2%" width="106.3%" height="109.2%" filterUnits="objectBoundingBox" id="filter-2">
            <feMorphology radius="2.5" operator="dilate" in="SourceAlpha" result="shadowSpreadOuter1"></feMorphology>
            <feOffset dx="2" dy="3" in="shadowSpreadOuter1" result="shadowOffsetOuter1"></feOffset>
            <feGaussianBlur stdDeviation="2" in="shadowOffsetOuter1" result="shadowBlurOuter1"></feGaussianBlur>
            <feComposite in="shadowBlurOuter1" in2="SourceAlpha" operator="out" result="shadowBlurOuter1"></feComposite>
            <feColorMatrix values="0 0 0 0 0   0 0 0 0 0   0 0 0 0 0  0 0 0 0.5 0" type="matrix" in="shadowBlurOuter1"></feColorMatrix>
        </filter>
        <rect id="path-3" x="0" y="0" width="319" height="217" rx="8"></rect>
        <filter x="-2.5%" y="-3.2%" width="106.3%" height="109.2%" filterUnits="objectBoundingBox" id="filter-4">
            <feMorphology radius="2.5" operator="dilate" in="SourceAlpha" result="shadowSpreadOuter1"></feMorphology>
            <feOffset dx="2" dy="3" in="shadowSpreadOuter1" result="shadowOffsetOuter1"></feOffset>
            <feGaussianBlur stdDeviation="2" in="shadowOffsetOuter1" result="shadowBlurOuter1"></feGaussianBlur>
            <feComposite in="shadowBlurOuter1" in2="SourceAlpha" operator="out" result="shadowBlurOuter1"></feComposite>
            <feColorMatrix values="0 0 0 0 0   0 0 0 0 0   0 0 0 0 0  0 0 0 0.5 0" type="matrix" in="shadowBlurOuter1"></feColorMatrix>
        </filter>
    </defs>
    <g id="Traditional-Programming-vs-Machine-Learning" stroke="none" stroke-width="1" fill="none" fill-rule="evenodd">
        <g id="Group-2" transform="translate(396.000000, 175.000000)">
            <g id="Rectangle">
                <use fill="black" fill-opacity="1" filter="url(#filter-2)" xlink:href="#path-1"></use>
                <use stroke="#4D4D4D" stroke-width="5" fill="#D8D8D8" fill-rule="evenodd" xlink:href="#path-1"></use>
            </g>
            <text id="Traditional-Programm" font-family="Chalkduster" font-size="36" font-weight="normal" fill="#151515">
                <tspan x="41.5751381" y="91">Traditional</tspan>
                <tspan x="21.1287293" y="145">Programming</tspan>
            </text>
        </g>
        <g id="Group" transform="translate(63.000000, 150.000000)">
            <ellipse id="Oval" fill="#ABD2FF" cx="101.5" cy="58" rx="101.5" ry="58"></ellipse>
            <text id="Data" font-family="Chalkduster" font-size="48" font-weight="normal" fill="#151515">
                <tspan x="43.0475138" y="71">Data</tspan>
            </text>
        </g>
        <g id="Group" transform="translate(808.000000, 226.000000)">
            <ellipse id="Oval" fill="#B8E986" cx="101.5" cy="58" rx="101.5" ry="58"></ellipse>
            <text id="Answers" font-family="Chalkduster" font-size="40" font-weight="normal" fill="#151515">
                <tspan x="13.4696133" y="71">Answers</tspan>
            </text>
        </g>
        <g id="Group" transform="translate(63.000000, 324.000000)">
            <ellipse id="Oval" fill="#E8C6EF" cx="101.5" cy="58" rx="101.5" ry="58"></ellipse>
            <text id="Rules" font-family="Chalkduster" font-size="48" font-weight="normal" fill="#151515">
                <tspan x="28.7005525" y="71">Rules</tspan>
            </text>
        </g>
        <path id="Line" d="M264.713922,205.448783 L369.559,232.87 L372.59632,221.260553 L396.98373,242.626514 L365.258516,249.316865 L368.294,237.707 L263.448783,210.286078 L264.713922,205.448783 Z" fill="#979797" fill-rule="nonzero"></path>
        <path id="Line-Copy" d="M365.163948,340.131969 L396.981865,346.36656 L372.903441,368.080139 L369.7,356.515 L264.757873,385.576523 L263.423477,380.757873 L368.366,351.696 L365.163948,340.131969 Z" fill="#979797" fill-rule="nonzero"></path>
        <path id="Line-Copy-2" d="M780.042395,268.916972 L808.999998,283.501458 L779.957847,297.916848 L779.992,285.916 L720.242722,285.742701 L720.257299,280.742722 L780.007,280.916 L780.042395,268.916972 Z" fill="#979797" fill-rule="nonzero"></path>
        <g id="Group-2" transform="translate(396.000000, 561.000000)">
            <g id="Rectangle">
                <use fill="black" fill-opacity="1" filter="url(#filter-4)" xlink:href="#path-3"></use>
                <use stroke="#4D4D4D" stroke-width="5" fill="#D8D8D8" fill-rule="evenodd" xlink:href="#path-3"></use>
            </g>
            <text id="Machine-Learning" font-family="Chalkduster" font-size="36" font-weight="normal" fill="#151515">
                <tspan x="78.0127072" y="91">Machine</tspan>
                <tspan x="70.0370166" y="145">Learning</tspan>
            </text>
        </g>
        <g id="Group" transform="translate(63.000000, 536.000000)">
            <ellipse id="Oval" fill="#ABD2FF" cx="101.5" cy="58" rx="101.5" ry="58"></ellipse>
            <text id="Data" font-family="Chalkduster" font-size="48" font-weight="normal" fill="#151515">
                <tspan x="43.0475138" y="71">Data</tspan>
            </text>
        </g>
        <g id="Group" transform="translate(63.000000, 711.000000)">
            <ellipse id="Oval" fill="#B8E986" cx="101.5" cy="58" rx="101.5" ry="58"></ellipse>
            <text id="Answers" font-family="Chalkduster" font-size="40" font-weight="normal" fill="#151515">
                <tspan x="13.4696133" y="71">Answers</tspan>
            </text>
        </g>
        <g id="Group" transform="translate(808.000000, 611.000000)">
            <ellipse id="Oval" fill="#E8C6EF" cx="101.5" cy="58" rx="101.5" ry="58"></ellipse>
            <text id="Rules" font-family="Chalkduster" font-size="48" font-weight="normal" fill="#151515">
                <tspan x="28.7005525" y="71">Rules</tspan>
            </text>
        </g>
        <path id="Line" d="M264.713922,591.448783 L369.559,618.87 L372.59632,607.260553 L396.98373,628.626514 L365.258516,635.316865 L368.294,623.707 L263.448783,596.286078 L264.713922,591.448783 Z" fill="#979797" fill-rule="nonzero"></path>
        <path id="Line-Copy" d="M365.163948,726.131969 L396.981865,732.36656 L372.903441,754.080139 L369.7,742.515 L264.757873,771.576523 L263.423477,766.757873 L368.366,737.696 L365.163948,726.131969 Z" fill="#979797" fill-rule="nonzero"></path>
        <path id="Line-Copy-2" d="M780.042395,654.916972 L808.999998,669.501458 L779.957847,683.916848 L779.992,671.916 L720.242722,671.742701 L720.257299,666.742722 L780.007,666.916 L780.042395,654.916972 Z" fill="#979797" fill-rule="nonzero"></path>
    </g>
</svg>