<?xml version="1.0" encoding="UTF-8" standalone="no"?>
<svg width="332px" height="257px" viewBox="0 0 332 257" version="1.1" xmlns="http://www.w3.org/2000/svg" xmlns:xlink="http://www.w3.org/1999/xlink" xmlns:sketch="http://www.bohemiancoding.com/sketch/ns">
    <!-- Generator: Sketch 3.5.2 (25235) - http://www.bohemiancoding.com/sketch -->
    <title>Visual Analytics</title>
    <desc>Created with Sketch.</desc>
    <defs></defs>
    <g id="Page-1" stroke="none" stroke-width="1" fill="none" fill-rule="evenodd" sketch:type="MSPage">
        <g id="CV_JohnGuerra" sketch:type="MSArtboardGroup" transform="translate(-137.000000, -213.000000)">
            <g id="Visual-Analytics-+-Group-+-I-create-visual-anal" sketch:type="MSLayerGroup" transform="translate(115.000000, 146.000000)">
                <g id="Visual-Analytics" transform="translate(21.000000, 64.000000)">
                    <text id="Algorithms" sketch:type="MSTextLayer" font-family="Helvetica Neue" font-size="13" font-weight="normal" fill="#333333">
                        <tspan x="270.31694" y="108.3125">Algorithms</tspan>
                    </text>
                    <text id="Information-" sketch:type="MSTextLayer" font-family="Helvetica Neue" font-size="13" font-weight="normal" sketch:alignment="middle" fill="#333333">
                        <tspan x="108.024718" y="242.018285">Information </tspan>
                        <tspan x="104.911218" y="258.382283">Visualization</tspan>
                    </text>
                    <text id="Data" sketch:type="MSTextLayer" font-family="Helvetica Neue" font-size="13" font-weight="normal" fill="#333333">
                        <tspan x="94.2834513" y="12.1771253">Data</tspan>
                    </text>
                    <text id="User" sketch:type="MSTextLayer" font-family="Helvetica Neue" font-size="13" font-weight="normal" fill="#333333">
                        <tspan x="0.398205368" y="113.161097">User</tspan>
                    </text>
                    <g id="Stick-Figure" transform="translate(32.069232, 90.614783)" stroke="#979797" stroke-width="2" sketch:type="MSShapeGroup">
                        <ellipse id="Oval-9" cx="14.4653842" cy="11.8396239" rx="11.9496652" ry="11.8396239"></ellipse>
                        <path d="M15.0997654,23.7520587 L15.0997654,56.126169" id="Path-1"></path>
                        <path d="M2.57963947,70.2298044 L15.1641031,55.684194 L28.2010756,69.6178497" id="Path-2"></path>
                        <path d="M0.280637242,42.3210586 L15.0793918,34.0086742 L28.8069228,41.5996745" id="Path-3"></path>
                        <path d="M7.29130727,14.9945198 C7.29130727,14.9945198 15.0751028,24.3788875 21.0574409,14.7448508" id="Path-6"></path>
                        <path d="M18.9947958,6.54295814 L18.9947958,9.96607964" id="Path-5"></path>
                        <path d="M8.93191987,6.54295814 L8.93191987,9.96607964" id="Path"></path>
                    </g>
                    <g id="Group" transform="translate(83.453552, 22.135086)" stroke="#979797" fill="#D8D8D8" sketch:type="MSShapeGroup">
                        <rect id="Oval-14" x="0" y="8.500625" width="47.1693989" height="44.931875"></rect>
                        <path d="M47.1868067,52.218125 C47.1868067,56.9128906 36.6101693,60.71875 23.5846995,60.71875 C10.5592296,60.71875 0,56.9128906 0,52.218125" id="Path"></path>
                        <path d="M23.5846995,17.00125 C36.6101693,17.00125 47.1693989,13.1953906 47.1693989,8.500625 C47.1693989,3.80585945 36.6101693,0 23.5846995,0 C10.5592296,0 0,3.80585945 0,8.500625 C0,13.1953906 10.5592296,17.00125 23.5846995,17.00125 Z" id="Oval-10"></path>
                    </g>
                    <g id="Group" transform="translate(111.521220, 180.343750)" stroke="#979797" sketch:type="MSShapeGroup">
                        <rect id="Rectangle-12" fill="#7ED321" x="23.9145554" y="0" width="28.6974665" height="28.81875"></rect>
                        <polygon id="Triangle-1" fill="#F8E81C" points="16.1423249 0 32.2846498 31.2203125 0 31.2203125 "></polygon>
                        <ellipse id="Oval-10" fill="#4990E2" cx="29.2953304" cy="34.2222656" rx="13.7508693" ry="13.8089844"></ellipse>
                    </g>
                    <g id="Path-8-+-Triangle-3" transform="translate(169.930516, 51.818696) rotate(55.000000) translate(-169.930516, -51.818696) translate(146.930516, 32.818696)" sketch:type="MSShapeGroup">
                        <path d="M0.205792584,37.8221292 C5.06051729,26.8547929 18.3824631,12.8504856 36.5591341,10.2603013" id="Path-8" stroke="#86C6D7" stroke-width="10"></path>
                        <polygon id="Triangle-2" fill="#86C6D7" transform="translate(36.992927, 9.394440) rotate(72.000000) translate(-36.992927, -9.394440) " points="36.9929266 2.0221681 44.7421849 16.7667118 29.2436682 16.7667118 "></polygon>
                    </g>
                    <g id="Path-8-+-Triangle-4" transform="translate(185.979432, 165.922223) rotate(-200.000000) translate(-185.979432, -165.922223) translate(162.979432, 146.922223)" sketch:type="MSShapeGroup">
                        <path d="M0.205792584,37.8221292 C5.06051729,26.8547929 18.3824631,12.8504856 36.5591341,10.2603013" id="Path-8" stroke="#86C6D7" stroke-width="10"></path>
                        <polygon id="Triangle-2" fill="#86C6D7" transform="translate(36.992927, 9.394440) rotate(72.000000) translate(-36.992927, -9.394440) " points="36.9929266 2.0221681 44.7421849 16.7667118 29.2436682 16.7667118 "></polygon>
                    </g>
                    <g id="Path-8-+-Triangle-5" transform="translate(85.035266, 172.052675) rotate(258.000000) translate(-85.035266, -172.052675) translate(62.035266, 153.052675)" sketch:type="MSShapeGroup">
                        <path d="M0.205792584,37.8221292 C5.06051729,26.8547929 18.3824631,12.8504856 36.5591341,10.2603013" id="Path-8" stroke="#86C6D7" stroke-width="10"></path>
                        <polygon id="Triangle-2" fill="#86C6D7" transform="translate(36.992927, 9.394440) rotate(72.000000) translate(-36.992927, -9.394440) " points="36.9929266 2.0221681 44.7421849 16.7667118 29.2436682 16.7667118 "></polygon>
                    </g>
                    <g id="Path-8-+-Triangle-6" transform="translate(84.627714, 191.280487) scale(-1, 1) rotate(177.000000) translate(-84.627714, -191.280487) translate(61.627714, 172.280487)" sketch:type="MSShapeGroup">
                        <path d="M0.205792584,37.8221292 C5.06051729,26.8547929 18.3824631,12.8504856 36.5591341,10.2603013" id="Path-8" stroke="#86C6D7" stroke-width="10"></path>
                        <polygon id="Triangle-2" fill="#86C6D7" transform="translate(36.992927, 9.394440) rotate(72.000000) translate(-36.992927, -9.394440) " points="36.9929266 2.0221681 44.7421849 16.7667118 29.2436682 16.7667118 "></polygon>
                    </g>
                    <g id="Path-8-+-Triangle-7" transform="translate(203.435573, 162.363622) scale(-1, 1) rotate(-81.000000) translate(-203.435573, -162.363622) translate(180.435573, 143.363622)" sketch:type="MSShapeGroup">
                        <path d="M0.205792584,37.8221292 C5.06051729,26.8547929 18.3824631,12.8504856 36.5591341,10.2603013" id="Path-8" stroke="#86C6D7" stroke-width="10"></path>
                        <polygon id="Triangle-2" fill="#86C6D7" transform="translate(36.992927, 9.394440) rotate(72.000000) translate(-36.992927, -9.394440) " points="36.9929266 2.0221681 44.7421849 16.7667118 29.2436682 16.7667118 "></polygon>
                    </g>
                    <g id="Path-8-+-Triangle-8" transform="translate(163.248350, 34.313226) scale(-1, 1) rotate(17.000000) translate(-163.248350, -34.313226) translate(140.248350, 15.313226)" sketch:type="MSShapeGroup">
                        <path d="M0.205792584,37.8221292 C5.06051729,26.8547929 18.3824631,12.8504856 36.5591341,10.2603013" id="Path-8" stroke="#86C6D7" stroke-width="10"></path>
                        <polygon id="Triangle-2" fill="#86C6D7" transform="translate(36.992927, 9.394440) rotate(72.000000) translate(-36.992927, -9.394440) " points="36.9929266 2.0221681 44.7421849 16.7667118 29.2436682 16.7667118 "></polygon>
                    </g>
                    <g id="Path-8-+-Triangle-14" transform="translate(169.930516, 52.818696) rotate(55.000000) translate(-169.930516, -52.818696) translate(146.930516, 33.818696)" sketch:type="MSShapeGroup">
                        <path d="M0.205792584,37.8221292 C5.06051729,26.8547929 18.3824631,12.8504856 36.5591341,10.2603013" id="Path-8" stroke="#86C6D7" stroke-width="10"></path>
                        <polygon id="Triangle-2" fill="#86C6D7" transform="translate(36.992927, 9.394440) rotate(72.000000) translate(-36.992927, -9.394440) " points="36.9929266 2.0221681 44.7421849 16.7667118 29.2436682 16.7667118 "></polygon>
                    </g>
                    <g id="Path-8-+-Triangle-9" transform="translate(185.979432, 165.922223) rotate(-200.000000) translate(-185.979432, -165.922223) translate(162.979432, 146.922223)" sketch:type="MSShapeGroup">
                        <path d="M0.205792584,37.8221292 C5.06051729,26.8547929 18.3824631,12.8504856 36.5591341,10.2603013" id="Path-8" stroke="#86C6D7" stroke-width="10"></path>
                        <polygon id="Triangle-2" fill="#86C6D7" transform="translate(36.992927, 9.394440) rotate(72.000000) translate(-36.992927, -9.394440) " points="36.9929266 2.0221681 44.7421849 16.7667118 29.2436682 16.7667118 "></polygon>
                    </g>
                    <g id="Path-8-+-Triangle-10" transform="translate(85.035266, 172.052675) rotate(258.000000) translate(-85.035266, -172.052675) translate(62.035266, 153.052675)" sketch:type="MSShapeGroup">
                        <path d="M0.205792584,37.8221292 C5.06051729,26.8547929 18.3824631,12.8504856 36.5591341,10.2603013" id="Path-8" stroke="#86C6D7" stroke-width="10"></path>
                        <polygon id="Triangle-2" fill="#86C6D7" transform="translate(36.992927, 9.394440) rotate(72.000000) translate(-36.992927, -9.394440) " points="36.9929266 2.0221681 44.7421849 16.7667118 29.2436682 16.7667118 "></polygon>
                    </g>
                    <g id="Path-8-+-Triangle-11" transform="translate(84.627714, 191.280487) scale(-1, 1) rotate(177.000000) translate(-84.627714, -191.280487) translate(61.627714, 172.280487)" sketch:type="MSShapeGroup">
                        <path d="M0.205792584,37.8221292 C5.06051729,26.8547929 18.3824631,12.8504856 36.5591341,10.2603013" id="Path-8" stroke="#86C6D7" stroke-width="10"></path>
                        <polygon id="Triangle-2" fill="#86C6D7" transform="translate(36.992927, 9.394440) rotate(72.000000) translate(-36.992927, -9.394440) " points="36.9929266 2.0221681 44.7421849 16.7667118 29.2436682 16.7667118 "></polygon>
                    </g>
                    <g id="Path-8-+-Triangle-12" transform="translate(203.435573, 162.363622) scale(-1, 1) rotate(-81.000000) translate(-203.435573, -162.363622) translate(180.435573, 143.363622)" sketch:type="MSShapeGroup">
                        <path d="M0.205792584,37.8221292 C5.06051729,26.8547929 18.3824631,12.8504856 36.5591341,10.2603013" id="Path-8" stroke="#86C6D7" stroke-width="10"></path>
                        <polygon id="Triangle-2" fill="#86C6D7" transform="translate(36.992927, 9.394440) rotate(72.000000) translate(-36.992927, -9.394440) " points="36.9929266 2.0221681 44.7421849 16.7667118 29.2436682 16.7667118 "></polygon>
                    </g>
                    <g id="Path-8-+-Triangle-13" transform="translate(163.248350, 34.313226) scale(-1, 1) rotate(17.000000) translate(-163.248350, -34.313226) translate(140.248350, 15.313226)" sketch:type="MSShapeGroup">
                        <path d="M0.205792584,37.8221292 C5.06051729,26.8547929 18.3824631,12.8504856 36.5591341,10.2603013" id="Path-8" stroke="#86C6D7" stroke-width="10"></path>
                        <polygon id="Triangle-2" fill="#86C6D7" transform="translate(36.992927, 9.394440) rotate(72.000000) translate(-36.992927, -9.394440) " points="36.9929266 2.0221681 44.7421849 16.7667118 29.2436682 16.7667118 "></polygon>
                    </g>
                    <g id="gears" transform="translate(178.699454, 70.687500)" stroke="#979797" fill="#D8D8D8" sketch:type="MSShapeGroup">
                        <path d="M5.31866076,21.0037989 C5.78251122,22.8474657 6.77978969,24.71447 8.07857096,26.3714364 L7.77706817,26.6981622 L4.57650004,29.8954071 L7.77706817,33.1159896 L10.9544438,29.8954071 L11.2559466,29.5920189 C12.9258082,30.8989219 14.78121,31.9024368 16.6134193,32.3691879 L16.6134193,32.6725761 L16.6134193,37.3400869 L21.2519238,37.3400869 L21.2519238,32.6725761 L21.2519238,32.3691879 C23.0841331,31.9024368 24.939535,30.9222595 26.6093966,29.5920189 L28.4879909,31.5056983 L30.088275,33.1159896 L33.2888431,29.8954071 L31.6885591,28.2851158 L29.7867722,26.3947739 C31.108746,24.71447 32.0828319,22.8474657 32.5466824,21.0037989 L35.1674375,21.0037989 L37.4866897,21.0037989 L37.4866897,16.336288 L35.1674375,16.336288 L32.5466824,16.336288 C32.0828319,14.4926212 31.0855535,12.6256169 29.7867722,10.945313 L30.088275,10.6419248 L33.2888431,7.44467983 L30.088275,4.22409733 L26.9108994,7.44467983 L26.5862041,7.74806804 C24.939535,6.44116499 23.0841331,5.43765016 21.2519238,4.97089907 L21.2519238,4.66751087 L21.2519238,0 L16.6134193,0 L16.6134193,4.66751087 L16.6134193,4.97089907 C14.78121,5.43765016 12.9258082,6.44116499 11.2559466,7.74806804 L7.77706817,4.22409733 L4.57650004,7.44467983 L8.07857096,10.945313 C6.77978969,12.6256169 5.78251122,14.4926212 5.31866076,16.336288 L0.378653432,16.336288 L0.378653432,21.0037989 L5.31866076,21.0037989 L5.31866076,21.0037989 Z M14.294167,20.42036 L14.294167,16.9197269 L17.1932324,14.0025326 L20.6721108,14.0025326 L23.5711761,16.9197269 L23.5711761,20.42036 L20.6721108,23.3375543 L17.1932324,23.3375543 L14.294167,20.42036 L14.294167,20.42036 Z" id="Shape"></path>
                        <path d="M23.8726789,48.007462 C24.3365294,49.8511288 25.3338078,51.7181331 26.6325891,53.3750995 L26.3310863,53.7018252 L23.1305182,56.8990702 L26.3310863,60.1196527 L29.5084619,56.8990702 L29.8099647,56.595682 C31.4798264,57.902585 33.3352282,58.9060998 35.1674375,59.3728509 L35.1674375,59.6762391 L35.1674375,64.34375 L39.805942,64.34375 L39.805942,59.6762391 L39.805942,59.3728509 C41.6381513,58.9060998 43.4935531,57.9259226 45.1634147,56.595682 L47.0420091,58.5093614 L48.6422931,60.1196527 L51.8428613,56.8990702 L50.2425772,55.2887789 L48.3407903,53.398437 C49.6627641,51.7181331 50.6368501,49.8511288 51.1007005,48.007462 L53.7214556,48.007462 L56.0407079,48.007462 L56.0407079,43.3399511 L53.7214556,43.3399511 L51.1007005,43.3399511 C50.6368501,41.4962843 49.6395716,39.62928 48.3407903,37.9489761 L48.6422931,37.6455878 L51.8428613,34.4483429 L48.6422931,31.2277604 L45.4649175,34.4483429 L45.1402222,34.7517311 C43.4935531,33.4448281 41.6381513,32.4413132 39.805942,31.9745621 L39.805942,31.6711739 L39.805942,27.0036631 L35.1674375,27.0036631 L35.1674375,31.6711739 L35.1674375,31.9745621 C33.3352282,32.4413132 31.4798264,33.4448281 29.8099647,34.7517311 L26.3310863,31.2277604 L23.1305182,34.4483429 L26.6325891,37.9489761 C25.3338078,39.62928 24.3365294,41.4962843 23.8726789,43.3399511 L18.9326716,43.3399511 L18.9326716,48.007462 L23.8726789,48.007462 L23.8726789,48.007462 Z M32.8481852,47.4240231 L32.8481852,43.92339 L35.7472505,41.0061957 L39.2261289,41.0061957 L42.1251943,43.92339 L42.1251943,47.4240231 L39.2261289,50.3412174 L35.7472505,50.3412174 L32.8481852,47.4240231 L32.8481852,47.4240231 Z" id="Shape-2"></path>
                        <path d="M50.3784191,29.7184398 C50.8422696,31.5621066 51.8395481,33.4291109 53.1383293,35.0860773 L52.8368265,35.4128031 L49.6362584,38.610048 L52.8368265,41.8306305 L56.0142021,38.610048 L56.3157049,38.3066598 C57.9855666,39.6135628 59.8409684,40.6170777 61.6731777,41.0838288 L61.6731777,41.387217 L61.6731777,46.0547278 L66.3116822,46.0547278 L66.3116822,41.387217 L66.3116822,41.0838288 C68.1438915,40.6170777 69.9992933,39.6369004 71.6691549,38.3066598 L73.5477493,40.2203392 L75.1480334,41.8306305 L78.3486015,38.610048 L76.7483174,36.9997568 L74.8465306,35.1094149 C76.1685043,33.4291109 77.1425903,31.5621066 77.6064408,29.7184398 L80.2271958,29.7184398 L82.5464481,29.7184398 L82.5464481,25.0509289 L80.2271958,25.0509289 L77.6064408,25.0509289 C77.1425903,23.2072621 76.1453118,21.3402578 74.8465306,19.6599539 L75.1480334,19.3565657 L78.3486015,16.1593207 L75.1480334,12.9387382 L71.9706577,16.1593207 L71.6459624,16.4627089 C69.9992933,15.1558059 68.1438915,14.1522911 66.3116822,13.68554 L66.3116822,13.3821518 L66.3116822,8.7146409 L61.6731777,8.7146409 L61.6731777,13.3821518 L61.6731777,13.68554 C59.8409684,14.1522911 57.9855666,15.1558059 56.3157049,16.4627089 L52.8368265,12.9387382 L49.6362584,16.1593207 L53.1383293,19.6599539 C51.8395481,21.3402578 50.8422696,23.2072621 50.3784191,25.0509289 L45.4384118,25.0509289 L45.4384118,29.7184398 L50.3784191,29.7184398 L50.3784191,29.7184398 Z M59.3539254,29.1350009 L59.3539254,25.6343678 L62.2529907,22.7171735 L65.7318691,22.7171735 L68.6309345,25.6343678 L68.6309345,29.1350009 L65.7318691,32.0521952 L62.2529907,32.0521952 L59.3539254,29.1350009 L59.3539254,29.1350009 Z" id="Shape-3"></path>
                    </g>
                </g>
            </g>
        </g>
    </g>
</svg>