<svg viewBox="-482,-482,964,964" font-size="10" font-family="sans-serif" style="width: 100%; height: auto;" xmlns="http://www.w3.org/2000/svg" xmlns:xlink="http://www.w3.org/1999/xlink"><g><g style="opacity: 1;"><path fill="#1f77b4" stroke="#1f77b4" d="M2.3145824503884975e-14,-378A378,378,0,0,1,52.64288837269918,-374.31634522657373L49.857550363561664,-354.5112475955381A358,358,0,0,0,2.1921177704737623e-14,-358Z"/><text dy=".35em" transform="&#xA;        rotate(-85.99728641605346)&#xA;        translate(384)&#xA;        &#xA;      ">analytics.cluster</text></g><g style="opacity: 1;"><path fill="#ff7f0e" stroke="#ff7f0e" d="M67.56944109772797,-371.9117780196544A378,378,0,0,1,149.26425186432738,-347.28112980031415L141.36667240060635,-328.9064668479166A358,358,0,0,0,63.99433839414448,-352.2339061667626Z"/><text dy=".35em" transform="&#xA;        rotate(-73.2221577537654)&#xA;        translate(384)&#xA;        &#xA;      ">analytics.graph</text></g><g style="opacity: 1;"><path fill="#2ca02c" stroke="#2ca02c" d="M163.03239753980355,-341.03436388789834A378,378,0,0,1,180.94519714595836,-331.8777419921533L171.37137719114577,-314.3180731036796A358,358,0,0,0,154.40634475991976,-322.9902176504434Z"/><text dy=".35em" transform="&#xA;        rotate(-62.92489940534901)&#xA;        translate(384)&#xA;        &#xA;      ">analytics.optimization</text></g><g style="opacity: 1;"><path fill="#d62728" stroke="#d62728" d="M194.07203022166308,-324.3763972388279A378,378,0,0,1,272.55218792293834,-261.91469003937004L258.131437239185,-248.05676993146687A358,358,0,0,0,183.8036688342735,-307.2136248981492Z"/><text dy=".35em" transform="&#xA;        rotate(-51.48400860437646)&#xA;        translate(384)&#xA;        &#xA;      ">animate</text></g><g style="opacity: 1;"><path fill="#9467bd" stroke="#9467bd" d="M282.807969311656,-250.8060056972668A378,378,0,0,1,310.7472865140359,-215.22110473688144L294.3056311429229,-203.83374469789302A358,358,0,0,0,267.84458469199166,-237.5358466656654Z"/><text dy=".35em" transform="&#xA;        rotate(-38.13706371581032)&#xA;        translate(384)&#xA;        &#xA;      ">animate.interpolate</text></g><g style="opacity: 1;"><path fill="#8c564b" stroke="#8c564b" d="M319.1052705107739,-202.6223737207859A378,378,0,0,1,348.24897859381485,-146.99200287214498L329.82310671054427,-139.21464822282516A358,358,0,0,0,302.2213937641721,-191.90161320645862Z"/><text dy=".35em" transform="&#xA;        rotate(-27.649199958634576)&#xA;        translate(384)&#xA;        &#xA;      ">data.converters</text></g><g style="opacity: 1;"><path fill="#e377c2" stroke="#e377c2" d="M353.84852888113335,-132.94818016301596A378,378,0,0,1,361.90464605546396,-109.12848923846317L342.7562520842754,-103.35449509886195A358,358,0,0,0,335.1263844958882,-125.91388491629554Z"/><text dy=".35em" transform="&#xA;        rotate(-18.686179471533706)&#xA;        translate(384)&#xA;        &#xA;      ">data</text></g><g style="opacity: 1;"><path fill="#7f7f7f" stroke="#7f7f7f" d="M365.97913656516243,-94.56887225201628A378,378,0,0,1,368.36605127356785,-84.7965345348452L348.8757840104161,-80.3099454060174A358,358,0,0,0,346.6151610855242,-89.56522821751807Z"/><text dy=".35em" transform="&#xA;        rotate(-13.725872568379373)&#xA;        translate(384)&#xA;        &#xA;      ">display</text></g><g style="opacity: 1;"><path fill="#bcbd22" stroke="#bcbd22" d="M371.4623546802146,-69.99799322430908A378,378,0,0,1,373.96000609204214,-55.117273550492406L354.1737623834685,-52.20101569067799A358,358,0,0,0,351.80826183999164,-66.29439569921337Z"/><text dy=".35em" transform="&#xA;        rotate(-9.527987300262481)&#xA;        translate(384)&#xA;        &#xA;      ">flex</text></g><g style="opacity: 1;"><path fill="#17becf" stroke="#17becf" d="M375.86498104557523,-40.118773954463876A378,378,0,0,1,377.69703767278907,15.131018908181906L357.71306742555157,14.33043589716699A358,358,0,0,0,355.97794501141783,-37.99608750184674Z"/><text dy=".35em" transform="&#xA;        rotate(-1.8992046744771187)&#xA;        translate(384)&#xA;        &#xA;      ">physics</text></g><g style="opacity: 1;"><path fill="#1f77b4" stroke="#1f77b4" d="M376.7898409564827,30.222768767743563A378,378,0,0,1,326.9376347154514,189.72554653147282L309.6393471643693,179.68715782610388A358,358,0,0,0,356.85387053550477,28.623680473153957Z"/><text dy=".35em" transform="&#xA;        rotate(17.356507885629156)&#xA;        translate(384)&#xA;        &#xA;      ">query</text></g><g style="opacity: 1;"><path fill="#ff7f0e" stroke="#ff7f0e" d="M319.08912119517805,202.6478046633839A378,378,0,0,1,191.93550331611746,325.64514823161215L181.78018568034406,308.41524620877556A358,358,0,0,0,302.2060989097189,191.92569859653818Z"/><text dy=".35em" transform="&#xA;        rotate(45.95188547494405)&#xA;        translate(384)&#xA;        &#xA;      ">query.methods</text></g><g style="opacity: 1;"><path fill="#2ca02c" stroke="#2ca02c" d="M178.7596427266031,333.06003983104495A378,378,0,0,1,101.92707400584112,363.9984499755566L96.53410712722518,344.73927272817264A358,358,0,0,0,169.30146057175637,315.43781550136003Z"/><text dy=".35em" transform="&#xA;        rotate(68.06667916644074)&#xA;        translate(384)&#xA;        &#xA;      ">scale</text></g><g style="opacity: 1;"><path fill="#d62728" stroke="#d62728" d="M87.28948755878845,367.7832858650922A378,378,0,0,1,30.207754320347327,376.79104498239013L28.60946044096387,356.85501085633774A358,358,0,0,0,82.67099615356155,348.32385275053707Z"/><text dy=".35em" transform="&#xA;        rotate(81.03241323748816)&#xA;        translate(384)&#xA;        &#xA;      ">util</text></g><g style="opacity: 1;"><path fill="#9467bd" stroke="#9467bd" d="M15.115968322547749,377.6976403178497A378,378,0,0,1,10.088843566158365,377.8653400822806L9.555042319271678,357.87246494565204A358,358,0,0,0,14.316181638815065,357.7136381846301Z"/><text dy=".35em" transform="&#xA;        rotate(88.08937963699543)&#xA;        translate(384)&#xA;        &#xA;      ">util.heap</text></g><g style="opacity: 1;"><path fill="#8c564b" stroke="#8c564b" d="M-5.029809794705143,377.9665342506253A378,378,0,0,1,-10.058728973780719,377.8661429281962L-9.5265210915701,357.87322531294774A358,358,0,0,0,-4.763682292339792,357.96830492519535Z"/><text dy=".35em" transform="&#xA;        rotate(91.14363245255618)&#xA;        translate(384)&#xA;        rotate(180)&#xA;      " text-anchor="end">util.math</text></g><g style="opacity: 1;"><path fill="#e377c2" stroke="#e377c2" d="M-25.161298530845684,377.16164844300073A378,378,0,0,1,-37.69206903598191,376.11608305387153L-35.69777966899874,356.2157611991693A358,358,0,0,0,-23.830012894293002,357.2060056682388Z"/><text dy=".35em" transform="&#xA;        rotate(94.76970149439498)&#xA;        translate(384)&#xA;        rotate(180)&#xA;      " text-anchor="end">util.palette</text></g><g style="opacity: 1;"><path fill="#7f7f7f" stroke="#7f7f7f" d="M-52.702551139235204,374.3079495594721A378,378,0,0,1,-111.5483385413463,361.16612267579194L-105.64631004709517,342.05680401569714A358,358,0,0,0,-49.9140563699635,354.503296143627Z"/><text dy=".35em" transform="&#xA;        rotate(102.5890895289397)&#xA;        translate(384)&#xA;        rotate(180)&#xA;      " text-anchor="end">vis.axis</text></g><g style="opacity: 1;"><path fill="#bcbd22" stroke="#bcbd22" d="M-125.90190454494125,356.4164845120894A378,378,0,0,1,-189.73857428005707,326.9300742210347L-179.69949627582125,309.6321866961123A358,358,0,0,0,-119.24042811399198,337.5584694585397Z"/><text dy=".35em" transform="&#xA;        rotate(114.7924019649497)&#xA;        translate(384)&#xA;        rotate(180)&#xA;      " text-anchor="end">vis.controls</text></g><g style="opacity: 1;"><path fill="#17becf" stroke="#17becf" d="M-202.660519652021,319.08104577735855A378,378,0,0,1,-324.3686635465879,194.08495590591363L-307.20630039597484,183.81591061988647A358,358,0,0,0,-191.93774083445376,302.19845076268354Z"/><text dy=".35em" transform="&#xA;        rotate(135.76356320389016)&#xA;        translate(384)&#xA;        rotate(180)&#xA;      " text-anchor="end">vis.data</text></g><g style="opacity: 1;"><path fill="#1f77b4" stroke="#1f77b4" d="M-331.87053137554926,180.9584217562437A378,378,0,0,1,-344.21414180350456,156.20699274512924L-326.00175334829265,147.9420724940642A358,358,0,0,0,-314.31124400118154,171.38390208660118Z"/><text dy=".35em" transform="&#xA;        rotate(153.49443249392164)&#xA;        translate(384)&#xA;        rotate(180)&#xA;      " text-anchor="end">vis.data.render</text></g><g style="opacity: 1;"><path fill="#ff7f0e" stroke="#ff7f0e" d="M-350.18542083945283,142.3171494637779A378,378,0,0,1,-357.2610277802842,123.48505184586102L-338.3583278977295,116.95145121909589A358,358,0,0,0,-331.65709169450827,134.7871415556415Z"/><text dy=".35em" transform="&#xA;        rotate(159.40776644087268)&#xA;        translate(384)&#xA;        rotate(180)&#xA;      " text-anchor="end">vis.events</text></g><g style="opacity: 1;"><path fill="#2ca02c" stroke="#2ca02c" d="M-361.91334206918856,109.09964634365454A378,378,0,0,1,-375.58294024799915,42.67850740909204L-355.71082700736423,40.420385323954896A358,358,0,0,0,-342.76448799145373,103.32717828314372Z"/><text dy=".35em" transform="&#xA;        rotate(168.37078692797354)&#xA;        translate(384)&#xA;        rotate(180)&#xA;      " text-anchor="end">vis.legend</text></g><g style="opacity: 1;"><path fill="#d62728" stroke="#d62728" d="M-376.98919905121335,27.62505744292021A378,378,0,0,1,-377.96673437976153,5.014748478118853L-357.96849446548845,4.749417870810977A358,358,0,0,0,-357.0426805828952,26.16341419197205Z"/><text dy=".35em" transform="&#xA;        rotate(177.52441282383376)&#xA;        translate(384)&#xA;        rotate(180)&#xA;      " text-anchor="end">vis.operator.distortion</text></g><g style="opacity: 1;"><path fill="#9467bd" stroke="#9467bd" d="M-377.8649377593126,-10.10390083832875A378,378,0,0,1,-368.35929211328283,-84.82589176543422L-348.8693824776594,-80.33774934398267A358,358,0,0,0,-357.87208390961354,-9.569302910374848Z"/><text dy=".35em" transform="&#xA;        rotate(187.24985494597206)&#xA;        translate(384)&#xA;        rotate(180)&#xA;      " text-anchor="end">vis.operator.encoder</text></g><g style="opacity: 1;"><path fill="#8c564b" stroke="#8c564b" d="M-364.67251303566735,-99.48848293270451A378,378,0,0,1,-351.11339623125275,-140.01208157496743L-332.5359678592288,-132.60403493078925A358,358,0,0,0,-345.37767107610824,-94.22454203679422Z"/><text dy=".35em" transform="&#xA;        rotate(198.5001403381853)&#xA;        translate(384)&#xA;        rotate(180)&#xA;      " text-anchor="end">vis.operator.filter</text></g><g style="opacity: 1;"><path fill="#e377c2" stroke="#e377c2" d="M-345.23355304409824,-153.94087778282866A378,378,0,0,1,-312.1723466044973,-213.14883536027497L-295.65529122859795,-201.87111920364669A358,358,0,0,0,-326.9672274862094,-145.7958577943192Z"/><text dy=".35em" transform="&#xA;        rotate(209.17860950412046)&#xA;        translate(384)&#xA;        rotate(180)&#xA;      " text-anchor="end">vis.operator</text></g><g style="opacity: 1;"><path fill="#7f7f7f" stroke="#7f7f7f" d="M-303.3989620151076,-225.46190331884304A378,378,0,0,1,-274.28876146843027,-260.0955119415069L-259.77612858650275,-246.33384464301452A358,358,0,0,0,-287.3461068820331,-213.53270208504182Z"/><text dy=".35em" transform="&#xA;        rotate(220.04768407881488)&#xA;        translate(384)&#xA;        rotate(180)&#xA;      " text-anchor="end">vis.operator.label</text></g><g style="opacity: 1;"><path fill="#bcbd22" stroke="#bcbd22" d="M-263.6683133676904,-270.85608821999443A378,378,0,0,1,-62.644370208489555,-372.77296425731L-59.32985326624143,-353.0495269950185A358,358,0,0,0,-249.71760895670153,-256.5250782612646Z"/><text dy=".35em" transform="&#xA;        rotate(243.11550481410836)&#xA;        translate(384)&#xA;        rotate(180)&#xA;      " text-anchor="end">vis.operator.layout</text></g><g style="opacity: 1;"><path fill="#17becf" stroke="#17becf" d="M-47.68731875060474,-374.97989230141155A378,378,0,0,1,-15.11596832254813,-377.6976403178497L-14.316181638815424,-357.7136381846301A358,358,0,0,0,-45.16418019237169,-355.13968635953796Z"/><text dy=".35em" transform="&#xA;        rotate(265.23029850560505)&#xA;        translate(384)&#xA;        rotate(180)&#xA;      " text-anchor="end">vis</text></g></g><g fill-opacity="0.67"><path class="chord" stroke="rgb(22, 83, 126)" fill="#1f77b4" d="M356.85387053550477,28.623680473153957A358,358,0,0,1,316.56391534523607,167.18638551417456Q0,0,356.85387053550477,28.623680473153957Z" style="opacity: 1;"/><path class="chord" stroke="rgb(179, 89, 10)" fill="#ff7f0e" d="M302.2060989097189,191.92569859653818A358,358,0,0,1,242.84487565475283,263.0406173354747Q0,0,302.2060989097189,191.92569859653818Z" style="opacity: 1;"/><path class="chord" stroke="rgb(150, 27, 28)" fill="#d62728" d="M183.8036688342735,-307.2136248981492A358,358,0,0,1,241.06831080902037,-264.6697366978052Q0,0,183.8036688342735,-307.2136248981492Z" style="opacity: 1;"/><path class="chord" stroke="rgb(16, 133, 145)" fill="#17becf" d="M-191.93774083445376,302.19845076268354A358,358,0,0,1,-241.08940330580373,264.65052354690613Q0,0,-191.93774083445376,302.19845076268354Z" style="opacity: 1;"/><path class="chord" stroke="rgb(150, 27, 28)" fill="#d62728" d="M82.67099615356155,348.32385275053707A358,358,0,0,1,28.60946044096387,356.85501085633774Q0,0,82.67099615356155,348.32385275053707Z" style="opacity: 1;"/><path class="chord" stroke="rgb(16, 133, 145)" fill="#17becf" d="M355.97794501141783,-37.99608750184674A358,358,0,0,1,357.71306742555157,14.33043589716699Q0,0,355.97794501141783,-37.99608750184674Z" style="opacity: 1;"/><path class="chord" stroke="rgb(31, 112, 31)" fill="#2ca02c" d="M169.30146057175637,315.43781550136003A358,358,0,0,1,128.18076669213917,334.26589872467605Q0,0,169.30146057175637,315.43781550136003Z" style="opacity: 1;"/><path class="chord" stroke="rgb(132, 132, 24)" fill="#bcbd22" d="M-249.71760895670153,-256.5250782612646A358,358,0,0,1,-185.8192092416602,-305.9987279006305Q0,0,-307.20630039597484,183.81591061988647Q0,0,-249.71760895670153,-256.5250782612646Z" style="opacity: 1;"/><path class="chord" stroke="rgb(104, 72, 132)" fill="#9467bd" d="M267.84458469199166,-237.5358466656654A358,358,0,0,1,291.5672868993666,-207.73183966388603Q0,0,267.84458469199166,-237.5358466656654Z" style="opacity: 1;"/><path class="chord" stroke="rgb(179, 89, 10)" fill="#ff7f0e" d="M242.84487565475283,263.0406173354747A358,358,0,0,1,181.78018568034406,308.41524620877556Q0,0,309.6393471643693,179.68715782610388Q0,0,242.84487565475283,263.0406173354747Z" style="opacity: 1;"/><path class="chord" stroke="rgb(132, 132, 24)" fill="#bcbd22" d="M-143.57800499744295,-327.9471855054625A358,358,0,0,1,-112.4523179586556,-339.8800908934288Q0,0,-143.57800499744295,-327.9471855054625Z" style="opacity: 1;"/><path class="chord" stroke="rgb(132, 132, 24)" fill="#bcbd22" d="M-119.24042811399198,337.5584694585397A358,358,0,0,1,-145.78282860012973,326.97303693935555Q0,0,-119.24042811399198,337.5584694585397Z" style="opacity: 1;"/><path class="chord" stroke="rgb(159, 83, 136)" fill="#e377c2" d="M-326.9672274862094,-145.7958577943192A358,358,0,0,1,-315.4310688805699,-169.31403008865254Q0,0,-326.9672274862094,-145.7958577943192Z" style="opacity: 1;"/><path class="chord" stroke="rgb(132, 132, 24)" fill="#bcbd22" d="M-185.8192092416602,-305.9987279006305A358,358,0,0,1,-143.57800499744295,-327.9471855054625Q0,0,28.60946044096387,356.85501085633774Q0,0,-185.8192092416602,-305.9987279006305Z" style="opacity: 1;"/><path class="chord" stroke="rgb(98, 60, 53)" fill="#8c564b" d="M302.2213937641721,-191.90161320645862A358,358,0,0,1,321.94951300135267,-156.5647184974694Q0,0,340.6251415705388,-110.17491969613765A358,358,0,0,1,342.061013566835,-105.63267959125871Q0,0,302.2213937641721,-191.90161320645862Z" style="opacity: 1;"/><path class="chord" stroke="rgb(16, 133, 145)" fill="#17becf" d="M-241.08940330580373,264.65052354690613A358,358,0,0,1,-269.41906182651724,235.74852942175332Q0,0,28.60946044096387,356.85501085633774Q0,0,-241.08940330580373,264.65052354690613Z" style="opacity: 1;"/><path class="chord" stroke="rgb(179, 89, 10)" fill="#ff7f0e" d="M63.99433839414448,-352.2339061667626A358,358,0,0,1,96.47915684637343,-344.75465521760964Q0,0,-307.20630039597484,183.81591061988647Q0,0,63.99433839414448,-352.2339061667626Z" style="opacity: 1;"/><path class="chord" stroke="rgb(98, 60, 53)" fill="#8c564b" d="M321.94951300135267,-156.5647184974694A358,358,0,0,1,328.8895648456689,-141.40599045170106Q0,0,321.94951300135267,-156.5647184974694Z" style="opacity: 1;"/><path class="chord" stroke="rgb(159, 83, 136)" fill="#e377c2" d="M335.1263844958882,-125.91388491629554A358,358,0,0,1,340.6251415705388,-110.17491969613765Q0,0,335.1263844958882,-125.91388491629554Z" style="opacity: 1;"/><path class="chord" stroke="rgb(31, 112, 31)" fill="#2ca02c" d="M128.18076669213917,334.26589872467605A358,358,0,0,1,96.53410712722518,344.73927272817264Q0,0,28.60946044096387,356.85501085633774Q0,0,128.18076669213917,334.26589872467605Z" style="opacity: 1;"/><path class="chord" stroke="rgb(89, 89, 89)" fill="#7f7f7f" d="M-49.9140563699635,354.503296143627A358,358,0,0,1,-66.36448913634906,351.7950462722172Q0,0,-49.9140563699635,354.503296143627Z" style="opacity: 1;"/><path class="chord" stroke="rgb(22, 83, 126)" fill="#1f77b4" d="M19.046295134368705,-357.49299103850205A358,358,0,0,1,30.926254064705432,-356.6616979849747Q0,0,19.046295134368705,-357.49299103850205Z" style="opacity: 1;"/><path class="chord" stroke="rgb(179, 89, 10)" fill="#ff7f0e" d="M-331.65709169450827,134.7871415556415A358,358,0,0,1,-336.7721718928431,121.4434199064623Q0,0,-288.77731557777196,211.59315208129004A358,358,0,0,1,-294.3056311429229,203.83374469789297Q0,0,-331.65709169450827,134.7871415556415Z" style="opacity: 1;"/><path class="chord" stroke="rgb(98, 60, 53)" fill="#8c564b" d="M-345.37767107610824,-94.22454203679422A358,358,0,0,1,-338.34900619712585,-116.97841683583036Q0,0,-307.20630039597484,183.81591061988647Q0,0,-345.37767107610824,-94.22454203679422Z" style="opacity: 1;"/><path class="chord" stroke="rgb(150, 27, 28)" fill="#d62728" d="M241.06831080902037,-264.6697366978052A358,358,0,0,1,256.47531909611746,-249.76871440303475Q0,0,28.60946044096387,356.85501085633774Q0,0,241.06831080902037,-264.6697366978052Z" style="opacity: 1;"/><path class="chord" stroke="rgb(16, 133, 145)" fill="#17becf" d="M-269.41906182651724,235.74852942175332A358,358,0,0,1,-283.04447680697757,219.2027010533044Q0,0,96.53410712722518,344.73927272817264Q0,0,-269.41906182651724,235.74852942175332Z" style="opacity: 1;"/><path class="chord" stroke="rgb(22, 83, 126)" fill="#1f77b4" d="M-314.31124400118154,171.38390208660118A358,358,0,0,1,-319.8377007359631,160.83483822832827Q0,0,-283.04447680697757,219.2027010533044A358,358,0,0,1,-288.77731557777196,211.59315208129004Q0,0,-314.31124400118154,171.38390208660118Z" style="opacity: 1;"/><path class="chord" stroke="rgb(22, 83, 126)" fill="#1f77b4" d="M2.1921177704737623e-14,-358A358,358,0,0,1,19.046295134368705,-357.49299103850205Q0,0,-307.20630039597484,183.81591061988647Q0,0,2.1921177704737623e-14,-358Z" style="opacity: 1;"/><path class="chord" stroke="rgb(104, 72, 132)" fill="#9467bd" d="M-357.87208390961354,-9.569302910374848A358,358,0,0,1,-356.8561506105262,-28.59524036334454Q0,0,-307.20630039597484,183.81591061988647Q0,0,-357.87208390961354,-9.569302910374848Z" style="opacity: 1;"/><path class="chord" stroke="rgb(31, 112, 31)" fill="#2ca02c" d="M-353.81426330858284,54.58449486259643A358,358,0,0,1,-355.14148579203436,45.15002845432361Q0,0,-353.81426330858284,54.58449486259643Z" style="opacity: 1;"/><path class="chord" stroke="rgb(104, 72, 132)" fill="#9467bd" d="M-355.13788636312074,-45.178331858703494A358,358,0,0,1,-353.809911989551,-54.61269246197436Q0,0,-355.13788636312074,-45.178331858703494Z" style="opacity: 1;"/><path class="chord" stroke="rgb(159, 83, 136)" fill="#e377c2" d="M-315.4310688805699,-169.31403008865254A358,358,0,0,1,-307.206300395975,-183.81591061988613Q0,0,258.131437239185,-248.05676993146687Q0,0,-315.4310688805699,-169.31403008865254Z" style="opacity: 1;"/><path class="chord" stroke="rgb(104, 72, 132)" fill="#9467bd" d="M-356.8561506105262,-28.59524036334454A358,358,0,0,1,-355.13788636312074,-45.178331858703494Q0,0,-35.69777966899874,356.2157611991693Q0,0,-356.8561506105262,-28.59524036334454Z" style="opacity: 1;"/><path class="chord" stroke="rgb(179, 89, 10)" fill="#ff7f0e" d="M96.47915684637343,-344.75465521760964A358,358,0,0,1,110.16134628597781,-340.6295315800744Q0,0,-295.65529122859795,-201.87111920364669Q0,0,96.47915684637343,-344.75465521760964Z" style="opacity: 1;"/><path class="chord" stroke="rgb(132, 132, 24)" fill="#bcbd22" d="M-112.4523179586556,-339.8800908934288A358,358,0,0,1,-98.79821323407599,-344.0972436125492Q0,0,258.131437239185,-248.05676993146687Q0,0,-112.4523179586556,-339.8800908934288Z" style="opacity: 1;"/><path class="chord" stroke="rgb(89, 89, 89)" fill="#7f7f7f" d="M346.6151610855242,-89.56522821751807A358,358,0,0,1,348.3337331501586,-82.62935525389335Q0,0,346.6151610855242,-89.56522821751807Z" style="opacity: 1;"/><path class="chord" stroke="rgb(31, 112, 31)" fill="#2ca02c" d="M-342.76448799145373,103.32717828314372A358,358,0,0,1,-346.6151610855242,89.5652282175181Q0,0,348.8757840104161,-80.3099454060174Q0,0,-342.76448799145373,103.32717828314372Z" style="opacity: 1;"/><path class="chord" stroke="rgb(22, 83, 126)" fill="#1f77b4" d="M316.56391534523607,167.18638551417456A358,358,0,0,1,309.6393471643693,179.68715782610388Q0,0,28.60946044096387,356.85501085633774Q0,0,316.56391534523607,167.18638551417456Z" style="opacity: 1;"/><path class="chord" stroke="rgb(132, 132, 24)" fill="#bcbd22" d="M-98.79821323407599,-344.0972436125492A358,358,0,0,1,-84.98668155923201,-347.7661052453929Q0,0,96.53410712722518,344.73927272817264Q0,0,-98.79821323407599,-344.0972436125492Z" style="opacity: 1;"/><path class="chord" stroke="rgb(31, 112, 31)" fill="#2ca02c" d="M-346.6151610855242,89.5652282175181A358,358,0,0,1,-349.9135309957727,75.66056321539241Q0,0,28.60946044096387,356.85501085633774Q0,0,-346.6151610855242,89.5652282175181Z" style="opacity: 1;"/><path class="chord" stroke="rgb(159, 83, 136)" fill="#e377c2" d="M-23.830012894293002,357.2060056682388A358,358,0,0,1,-30.954678669909917,356.65923213684323Q0,0,-23.830012894293002,357.2060056682388Z" style="opacity: 1;"/><path class="chord" stroke="rgb(89, 89, 89)" fill="#7f7f7f" d="M-287.3461068820331,-213.53270208504182A358,358,0,0,1,-278.595149157543,-224.83047583876692Q0,0,-307.20630039597484,183.81591061988647Q0,0,-287.3461068820331,-213.53270208504182Z" style="opacity: 1;"/><path class="chord" stroke="rgb(22, 83, 126)" fill="#1f77b4" d="M-322.984064568257,154.41921523880364A358,358,0,0,1,-326.00175334829265,147.9420724940642Q0,0,-322.984064568257,154.41921523880364Z" style="opacity: 1;"/><path class="chord" stroke="rgb(179, 89, 10)" fill="#ff7f0e" d="M110.16134628597781,-340.6295315800744A358,358,0,0,1,121.43000002153285,-336.77701093567913Q0,0,258.131437239185,-248.05676993146687Q0,0,110.16134628597781,-340.6295315800744Z" style="opacity: 1;"/><path class="chord" stroke="rgb(179, 89, 10)" fill="#ff7f0e" d="M121.43000002153285,-336.77701093567913A358,358,0,0,1,132.56428103403178,-332.551817607317Q0,0,28.60946044096387,356.85501085633774Q0,0,121.43000002153285,-336.77701093567913Z" style="opacity: 1;"/><path class="chord" stroke="rgb(89, 89, 89)" fill="#7f7f7f" d="M-66.36448913634906,351.7950462722172A358,358,0,0,1,-78.0287491346943,349.39306562734606Q0,0,348.8757840104161,-80.3099454060174Q0,0,-66.36448913634906,351.7950462722172Z" style="opacity: 1;"/><path class="chord" stroke="rgb(159, 83, 136)" fill="#e377c2" d="M-307.206300395975,-183.81591061988613A358,358,0,0,1,-300.9224640438258,-193.93212893636885Q0,0,28.60946044096387,356.85501085633774Q0,0,-307.206300395975,-183.81591061988613Z" style="opacity: 1;"/><path class="chord" stroke="rgb(89, 89, 89)" fill="#7f7f7f" d="M-278.595149157543,-224.83047583876692A358,358,0,0,1,-270.96296656395685,-233.97237176824962Q0,0,28.60946044096387,356.85501085633774Q0,0,-278.595149157543,-224.83047583876692Z" style="opacity: 1;"/><path class="chord" stroke="rgb(31, 112, 31)" fill="#2ca02c" d="M-349.9135309957727,75.66056321539241A358,358,0,0,1,-352.23645595079853,63.980302431460814Q0,0,-35.69777966899874,356.2157611991693Q0,0,-349.9135309957727,75.66056321539241Z" style="opacity: 1;"/><path class="chord" stroke="rgb(159, 83, 136)" fill="#e377c2" d="M-300.9224640438258,-193.93212893636885A358,358,0,0,1,-296.9918634367893,-199.89955740907365Q0,0,-23.830012894293088,-357.20600566823873A358,358,0,0,1,-19.074786028481785,-357.49147197935736Q0,0,-300.9224640438258,-193.93212893636885Z" style="opacity: 1;"/><path class="chord" stroke="rgb(89, 89, 89)" fill="#7f7f7f" d="M-78.0287491346943,349.39306562734606A358,358,0,0,1,-87.29860482937187,347.19296305490576Q0,0,96.53410712722518,344.73927272817264Q0,0,-78.0287491346943,349.39306562734606Z" style="opacity: 1;"/><path class="chord" stroke="rgb(31, 112, 31)" fill="#2ca02c" d="M-352.23645595079853,63.980302431460814A358,358,0,0,1,-353.81426330858284,54.58449486259643Q0,0,96.53410712722518,344.73927272817264Q0,0,-352.23645595079853,63.980302431460814Z" style="opacity: 1;"/><path class="chord" stroke="rgb(104, 72, 132)" fill="#9467bd" d="M14.316181638815065,357.7136381846301A358,358,0,0,1,9.555042319271678,357.87246494565204Q0,0,14.316181638815065,357.7136381846301Z" style="opacity: 1;"/><path class="chord" stroke="rgb(98, 60, 53)" fill="#8c564b" d="M-4.763682292339792,357.96830492519535A358,358,0,0,1,-9.5265210915701,357.87322531294774Q0,0,-4.763682292339792,357.96830492519535Z" style="opacity: 1;"/><path class="chord" stroke="rgb(132, 132, 24)" fill="#bcbd22" d="M-84.98668155923201,-347.7661052453929A358,358,0,0,1,-75.7023930214898,-349.90448366778594Q0,0,-105.64631004709517,342.05680401569714Q0,0,-84.98668155923201,-347.7661052453929Z" style="opacity: 1;"/><path class="chord" stroke="rgb(89, 89, 89)" fill="#7f7f7f" d="M-101.08542063937533,343.4322898828247A358,358,0,0,1,-105.64631004709517,342.05680401569714Q0,0,-38.06701227396633,-355.9703675540054A358,358,0,0,1,-33.32696681777565,-356.4453861150778Q0,0,-101.08542063937533,343.4322898828247Z" style="opacity: 1;"/><path class="chord" stroke="rgb(132, 132, 24)" fill="#bcbd22" d="M-145.78282860012973,326.97303693935555A358,358,0,0,1,-154.4320854724875,322.9779109732093Q0,0,-338.3583278977295,116.95145121909589Q0,0,-145.78282860012973,326.97303693935555Z" style="opacity: 1;"/><path class="chord" stroke="rgb(132, 132, 24)" fill="#bcbd22" d="M-160.8475830797621,319.8312914919349A358,358,0,0,1,-167.1989999058809,316.55725300563444Q0,0,-16.6958533742757,-357.6104703166627A358,358,0,0,1,-14.316181638815424,-357.7136381846301Q0,0,-160.8475830797621,319.8312914919349Z" style="opacity: 1;"/><path class="chord" stroke="rgb(150, 27, 28)" fill="#d62728" d="M-357.61246366399047,16.65310277909502A358,358,0,0,1,-357.8023953316843,11.893102829334063Q0,0,-357.61246366399047,16.65310277909502Z" style="opacity: 1;"/><path class="chord" stroke="rgb(89, 89, 89)" fill="#7f7f7f" d="M-266.23917755061996,-239.33386792756573A358,358,0,0,1,-263.0309401784074,-242.8553571755482Q0,0,-266.23917755061996,-239.33386792756573Z" style="opacity: 1;"/><path class="chord" stroke="rgb(22, 83, 126)" fill="#1f77b4" d="M30.926254064705432,-356.6616979849747A358,358,0,0,1,38.038642546299066,-355.9734002327068Q0,0,28.60946044096387,356.85501085633774Q0,0,30.926254064705432,-356.6616979849747Z" style="opacity: 1;"/><path class="chord" stroke="rgb(89, 89, 89)" fill="#7f7f7f" d="M-87.29860482937187,347.19296305490576A358,358,0,0,1,-94.21077925921853,345.3814254869112Q0,0,258.131437239185,-248.05676993146687Q0,0,-87.29860482937187,347.19296305490576Z" style="opacity: 1;"/><path class="chord" stroke="rgb(104, 72, 132)" fill="#9467bd" d="M-353.809911989551,-54.61269246197436A358,358,0,0,1,-352.64942879365947,-61.66344436946178Q0,0,258.131437239185,-248.05676993146687Q0,0,-353.809911989551,-54.61269246197436Z" style="opacity: 1;"/><path class="chord" stroke="rgb(98, 60, 53)" fill="#8c564b" d="M-338.34900619712585,-116.97841683583036A358,358,0,0,1,-335.9468561059787,-123.70816413037909Q0,0,258.131437239185,-248.05676993146687Q0,0,-338.34900619712585,-116.97841683583036Z" style="opacity: 1;"/><path class="chord" stroke="rgb(16, 133, 145)" fill="#17becf" d="M-45.16418019237169,-355.13968635953796A358,358,0,0,1,-38.06701227396633,-355.9703675540054Q0,0,258.131437239185,-248.05676993146687Q0,0,-45.16418019237169,-355.13968635953796Z" style="opacity: 1;"/><path class="chord" stroke="rgb(16, 133, 145)" fill="#17becf" d="M-294.3056311429229,203.83374469789297A358,358,0,0,1,-298.3152886009817,197.91914658999775Q0,0,342.7562520842754,-103.35449509886195Q0,0,-294.3056311429229,203.83374469789297Z" style="opacity: 1;"/><path class="chord" stroke="rgb(89, 89, 89)" fill="#7f7f7f" d="M-270.96296656395685,-233.97237176824962A358,358,0,0,1,-266.23917755061996,-239.33386792756573Q0,0,348.8757840104161,-80.3099454060174Q0,0,-270.96296656395685,-233.97237176824962Z" style="opacity: 1;"/><path class="chord" stroke="rgb(132, 132, 24)" fill="#bcbd22" d="M-75.7023930214898,-349.90448366778594A358,358,0,0,1,-68.703630477711,-351.34571458775775Q0,0,357.71306742555157,14.33043589716699Q0,0,-75.7023930214898,-349.90448366778594Z" style="opacity: 1;"/><path class="chord" stroke="rgb(104, 72, 132)" fill="#9467bd" d="M-352.64942879365947,-61.66344436946178A358,358,0,0,1,-351.3484520296424,-68.68962990418626Q0,0,96.53410712722518,344.73927272817264Q0,0,-352.64942879365947,-61.66344436946178Z" style="opacity: 1;"/><path class="chord" stroke="rgb(89, 89, 89)" fill="#7f7f7f" d="M-94.21077925921853,345.3814254869112A358,358,0,0,1,-101.08542063937533,343.4322898828247Q0,0,28.60946044096387,356.85501085633774Q0,0,-94.21077925921853,345.3814254869112Z" style="opacity: 1;"/><path class="chord" stroke="rgb(132, 132, 24)" fill="#bcbd22" d="M-154.4320854724875,322.9779109732093A358,358,0,0,1,-160.8475830797621,319.8312914919349Q0,0,28.60946044096387,356.85501085633774Q0,0,-154.4320854724875,322.9779109732093Z" style="opacity: 1;"/><path class="chord" stroke="rgb(22, 83, 126)" fill="#1f77b4" d="M-319.8377007359631,160.83483822832827A358,358,0,0,1,-322.984064568257,154.41921523880364Q0,0,28.60946044096387,356.85501085633774Q0,0,-319.8377007359631,160.83483822832827Z" style="opacity: 1;"/><path class="chord" stroke="rgb(104, 72, 132)" fill="#9467bd" d="M-351.3484520296424,-68.68962990418626A358,358,0,0,1,-349.90749999939595,-75.68844987296762Q0,0,28.60946044096387,356.85501085633774Q0,0,-351.3484520296424,-68.68962990418626Z" style="opacity: 1;"/><path class="chord" stroke="rgb(98, 60, 53)" fill="#8c564b" d="M-335.9468561059787,-123.70816413037909A358,358,0,0,1,-333.41086665862923,-130.38862678140976Q0,0,-295.65529122859795,-201.87111920364669Q0,0,-335.9468561059787,-123.70816413037909Z" style="opacity: 1;"/><path class="chord" stroke="rgb(22, 83, 126)" fill="#1f77b4" d="M38.038642546299066,-355.9734002327068A358,358,0,0,1,42.77199043906873,-355.43572813362505Q0,0,258.131437239185,-248.05676993146687Q0,0,38.038642546299066,-355.9734002327068Z" style="opacity: 1;"/><path class="chord" stroke="rgb(22, 83, 126)" fill="#1f77b4" d="M42.77199043906873,-355.43572813362505A358,358,0,0,1,47.49776480426012,-354.83511993403243Q0,0,-9.5265210915701,357.87322531294774Q0,0,42.77199043906873,-355.43572813362505Z" style="opacity: 1;"/><path class="chord" stroke="rgb(179, 89, 10)" fill="#ff7f0e" d="M136.97760385530998,-330.75842550426097A358,358,0,0,1,139.17521858730336,-329.83974674253Q0,0,136.97760385530998,-330.75842550426097Z" style="opacity: 1;"/><path class="chord" stroke="rgb(179, 89, 10)" fill="#ff7f0e" d="M132.56428103403178,-332.551817607317A358,358,0,0,1,136.97760385530998,-330.75842550426097Q0,0,9.555042319271678,357.87246494565204Q0,0,132.56428103403178,-332.551817607317Z" style="opacity: 1;"/><path class="chord" stroke="rgb(31, 112, 31)" fill="#2ca02c" d="M154.40634475991976,-322.9902176504434A358,358,0,0,1,158.6905035861011,-320.90703337818826Q0,0,28.60946044096387,356.85501085633774Q0,0,154.40634475991976,-322.9902176504434Z" style="opacity: 1;"/><path class="chord" stroke="rgb(132, 132, 24)" fill="#bcbd22" d="M-167.1989999058809,316.55725300563444A358,358,0,0,1,-171.39642670991833,314.30441439959384Q0,0,258.131437239185,-248.05676993146687Q0,0,-167.1989999058809,316.55725300563444Z" style="opacity: 1;"/><path class="chord" stroke="rgb(16, 133, 145)" fill="#17becf" d="M-298.3152886009817,197.91914658999775A358,358,0,0,1,-300.92246404382576,193.93212893636888Q0,0,258.131437239185,-248.05676993146687Q0,0,-298.3152886009817,197.91914658999775Z" style="opacity: 1;"/><path class="chord" stroke="rgb(104, 72, 132)" fill="#9467bd" d="M291.5672868993666,-207.73183966388603A358,358,0,0,1,294.3056311429229,-203.83374469789302Q0,0,28.60946044096387,356.85501085633774Q0,0,291.5672868993666,-207.73183966388603Z" style="opacity: 1;"/><path class="chord" stroke="rgb(132, 132, 24)" fill="#bcbd22" d="M351.80826183999164,-66.29439569921337A358,358,0,0,1,352.65925304026484,-61.60723370743459Q0,0,-105.64631004709517,342.05680401569714Q0,0,351.80826183999164,-66.29439569921337Z" style="opacity: 1;"/><path class="chord" stroke="rgb(159, 83, 136)" fill="#e377c2" d="M-30.954678669909917,356.65923213684323A358,358,0,0,1,-35.69777966899874,356.2157611991693Q0,0,28.60946044096387,356.85501085633774Q0,0,-30.954678669909917,356.65923213684323Z" style="opacity: 1;"/><path class="chord" stroke="rgb(16, 133, 145)" fill="#17becf" d="M-300.92246404382576,193.93212893636888A358,358,0,0,1,-303.4763559112046,189.9107722138369Q0,0,9.555042319271678,357.87246494565204Q0,0,-300.92246404382576,193.93212893636888Z" style="opacity: 1;"/><path class="chord" stroke="rgb(16, 133, 145)" fill="#17becf" d="M-303.4763559112046,189.9107722138369A358,358,0,0,1,-305.97651199198,185.8557884738104Q0,0,-9.5265210915701,357.87322531294774Q0,0,-303.4763559112046,189.9107722138369Z" style="opacity: 1;"/><path class="chord" stroke="rgb(150, 27, 28)" fill="#d62728" d="M-357.0426805828952,26.16341419197205A358,358,0,0,1,-357.3592104667609,21.410154006295567Q0,0,-105.64631004709517,342.05680401569714Q0,0,-357.0426805828952,26.16341419197205Z" style="opacity: 1;"/><path class="chord" stroke="rgb(132, 132, 24)" fill="#bcbd22" d="M-171.39642670991833,314.30441439959384A358,358,0,0,1,-175.56350478453774,311.99592271016877Q0,0,-307.20630039597484,183.81591061988647Q0,0,-171.39642670991833,314.30441439959384Z" style="opacity: 1;"/><path class="chord" stroke="rgb(150, 27, 28)" fill="#d62728" d="M-357.3592104667609,21.410154006295567A358,358,0,0,1,-357.61246366399047,16.65310277909502Q0,0,-307.20630039597484,183.81591061988647Q0,0,-357.3592104667609,21.410154006295567Z" style="opacity: 1;"/><path class="chord" stroke="rgb(16, 133, 145)" fill="#17becf" d="M-33.32696681777565,-356.4453861150778A358,358,0,0,1,-28.581020240320704,-356.8572897980681Q0,0,-307.20630039597484,183.81591061988647Q0,0,-33.32696681777565,-356.4453861150778Z" style="opacity: 1;"/><path class="chord" stroke="rgb(179, 89, 10)" fill="#ff7f0e" d="M-337.57272162089635,119.2000738987222A358,358,0,0,1,-338.3583278977295,116.95145121909589Q0,0,-337.57272162089635,119.2000738987222Z" style="opacity: 1;"/><path class="chord" stroke="rgb(16, 133, 145)" fill="#17becf" d="M-28.581020240320704,-356.8572897980681A358,358,0,0,1,-23.830012894293088,-357.20600566823873Q0,0,-338.3583278977295,116.95145121909589Q0,0,-28.581020240320704,-356.8572897980681Z" style="opacity: 1;"/><path class="chord" stroke="rgb(104, 72, 132)" fill="#9467bd" d="M-349.90749999939595,-75.68844987296762A358,358,0,0,1,-348.8693824776594,-80.33774934398267Q0,0,-295.65529122859795,-201.87111920364669Q0,0,-349.90749999939595,-75.68844987296762Z" style="opacity: 1;"/><path class="chord" stroke="rgb(132, 132, 24)" fill="#bcbd22" d="M-68.703630477711,-351.34571458775775A358,358,0,0,1,-64.02241001464266,-352.22880492077445Q0,0,-295.65529122859795,-201.87111920364669Q0,0,-68.703630477711,-351.34571458775775Z" style="opacity: 1;"/><path class="chord" stroke="rgb(22, 83, 126)" fill="#1f77b4" d="M47.49776480426012,-354.83511993403243A358,358,0,0,1,49.857550363561664,-354.5112475955381Q0,0,-295.65529122859795,-201.87111920364669Q0,0,47.49776480426012,-354.83511993403243Z" style="opacity: 1;"/><path class="chord" stroke="rgb(179, 89, 10)" fill="#ff7f0e" d="M139.17521858730336,-329.83974674253A358,358,0,0,1,141.36667240060635,-328.9064668479166Q0,0,-14.316181638815424,-357.7136381846301Q0,0,139.17521858730336,-329.83974674253Z" style="opacity: 1;"/><path class="chord" stroke="rgb(31, 112, 31)" fill="#2ca02c" d="M158.6905035861011,-320.90703337818826A358,358,0,0,1,160.82209312150687,-319.84410947212604Q0,0,258.131437239185,-248.05676993146687Q0,0,158.6905035861011,-320.90703337818826Z" style="opacity: 1;"/><path class="chord" stroke="rgb(31, 112, 31)" fill="#2ca02c" d="M160.82209312150687,-319.84410947212604A358,358,0,0,1,162.9465634883609,-318.7670269135965Q0,0,96.53410712722518,344.73927272817264Q0,0,160.82209312150687,-319.84410947212604Z" style="opacity: 1;"/><path class="chord" stroke="rgb(31, 112, 31)" fill="#2ca02c" d="M162.9465634883609,-318.7670269135965A358,358,0,0,1,165.06382064198124,-317.6758333821946Q0,0,-105.64631004709517,342.05680401569714Q0,0,162.9465634883609,-318.7670269135965Z" style="opacity: 1;"/><path class="chord" stroke="rgb(31, 112, 31)" fill="#2ca02c" d="M165.06382064198124,-317.6758333821946A358,358,0,0,1,167.1737708569955,-316.57057718217084Q0,0,-307.20630039597484,183.81591061988647Q0,0,165.06382064198124,-317.6758333821946Z" style="opacity: 1;"/><path class="chord" stroke="rgb(31, 112, 31)" fill="#2ca02c" d="M167.1737708569955,-316.57057718217084A358,358,0,0,1,169.27632073149027,-315.45130724029286Q0,0,-295.65529122859795,-201.87111920364669Q0,0,167.1737708569955,-316.57057718217084Z" style="opacity: 1;"/><path class="chord" stroke="rgb(31, 112, 31)" fill="#2ca02c" d="M169.27632073149027,-315.45130724029286A358,358,0,0,1,171.37137719114577,-314.3180731036796Q0,0,-14.316181638815424,-357.7136381846301Q0,0,169.27632073149027,-315.45130724029286Z" style="opacity: 1;"/><path class="chord" stroke="rgb(150, 27, 28)" fill="#d62728" d="M256.47531909611746,-249.76871440303475A358,358,0,0,1,258.131437239185,-248.05676993146687Q0,0,294.3056311429229,-203.83374469789302Q0,0,256.47531909611746,-249.76871440303475Z" style="opacity: 1;"/><path class="chord" stroke="rgb(179, 89, 10)" fill="#ff7f0e" d="M-336.7721718928431,121.4434199064623A358,358,0,0,1,-337.57272162089635,119.2000738987222Q0,0,258.131437239185,-248.05676993146687Q0,0,-336.7721718928431,121.4434199064623Z" style="opacity: 1;"/><path class="chord" stroke="rgb(31, 112, 31)" fill="#2ca02c" d="M-355.14148579203436,45.15002845432361A358,358,0,0,1,-355.43402346159644,42.786153904053094Q0,0,258.131437239185,-248.05676993146687Q0,0,-355.14148579203436,45.15002845432361Z" style="opacity: 1;"/><path class="chord" stroke="rgb(150, 27, 28)" fill="#d62728" d="M-357.8023953316843,11.893102829334063A358,358,0,0,1,-357.8736046442038,9.51226045501779Q0,0,258.131437239185,-248.05676993146687Q0,0,-357.8023953316843,11.893102829334063Z" style="opacity: 1;"/><path class="chord" stroke="rgb(89, 89, 89)" fill="#7f7f7f" d="M-263.0309401784074,-242.8553571755482A358,358,0,0,1,-261.40932033193593,-244.60001480702186Q0,0,258.131437239185,-248.05676993146687Q0,0,-263.0309401784074,-242.8553571755482Z" style="opacity: 1;"/><path class="chord" stroke="rgb(98, 60, 53)" fill="#8c564b" d="M328.8895648456689,-141.40599045170106A358,358,0,0,1,329.82310671054427,-139.21464822282516Q0,0,28.60946044096387,356.85501085633774Q0,0,328.8895648456689,-141.40599045170106Z" style="opacity: 1;"/><path class="chord" stroke="rgb(132, 132, 24)" fill="#bcbd22" d="M352.65925304026484,-61.60723370743459A358,358,0,0,1,353.0613409475467,-59.25951002430075Q0,0,342.7562520842754,-103.35449509886195Q0,0,352.65925304026484,-61.60723370743459Z" style="opacity: 1;"/><path class="chord" stroke="rgb(159, 83, 136)" fill="#e377c2" d="M342.061013566835,-105.63267959125871A358,358,0,0,1,342.7562520842754,-103.35449509886195Q0,0,28.60946044096387,356.85501085633774Q0,0,342.061013566835,-105.63267959125871Z" style="opacity: 1;"/><path class="chord" stroke="rgb(132, 132, 24)" fill="#bcbd22" d="M353.0613409475467,-59.25951002430075A358,358,0,0,1,353.44779976341147,-56.90916307944979Q0,0,348.8757840104161,-80.3099454060174Q0,0,353.0613409475467,-59.25951002430075Z" style="opacity: 1;"/><path class="chord" stroke="rgb(89, 89, 89)" fill="#7f7f7f" d="M348.3337331501586,-82.62935525389335A358,358,0,0,1,348.8757840104161,-80.3099454060174Q0,0,28.60946044096387,356.85501085633774Q0,0,348.3337331501586,-82.62935525389335Z" style="opacity: 1;"/><path class="chord" stroke="rgb(132, 132, 24)" fill="#bcbd22" d="M-175.56350478453774,311.99592271016877A358,358,0,0,1,-177.63543225547429,310.820934313329Q0,0,348.8757840104161,-80.3099454060174Q0,0,-175.56350478453774,311.99592271016877Z" style="opacity: 1;"/><path class="chord" stroke="rgb(16, 133, 145)" fill="#17becf" d="M-305.97651199198,185.8557884738104A358,358,0,0,1,-307.20630039597484,183.81591061988647Q0,0,348.8757840104161,-80.3099454060174Q0,0,-305.97651199198,185.8557884738104Z" style="opacity: 1;"/><path class="chord" stroke="rgb(132, 132, 24)" fill="#bcbd22" d="M353.44779976341147,-56.90916307944979A358,358,0,0,1,353.81861238034986,-54.55629691652231Q0,0,-307.20630039597484,183.81591061988647Q0,0,353.44779976341147,-56.90916307944979Z" style="opacity: 1;"/><path class="chord" stroke="rgb(132, 132, 24)" fill="#bcbd22" d="M353.81861238034986,-54.55629691652231A358,358,0,0,1,354.1737623834685,-52.20101569067799Q0,0,-14.316181638815424,-357.7136381846301Q0,0,353.81861238034986,-54.55629691652231Z" style="opacity: 1;"/><path class="chord" stroke="rgb(98, 60, 53)" fill="#8c564b" d="M-333.41086665862923,-130.38862678140976A358,358,0,0,1,-332.5359678592288,-132.60403493078925Q0,0,28.60946044096387,356.85501085633774Q0,0,-333.41086665862923,-130.38862678140976Z" style="opacity: 1;"/><path class="chord" stroke="rgb(16, 133, 145)" fill="#17becf" d="M-19.074786028481785,-357.49147197935736A358,358,0,0,1,-16.6958533742757,-357.6104703166627Q0,0,28.60946044096387,356.85501085633774Q0,0,-19.074786028481785,-357.49147197935736Z" style="opacity: 1;"/><path class="chord" stroke="rgb(132, 132, 24)" fill="#bcbd22" d="M-177.63543225547429,310.820934313329A358,358,0,0,1,-179.69949627582125,309.6321866961123Q0,0,-59.32985326624143,-353.0495269950185Q0,0,-177.63543225547429,310.820934313329Z" style="opacity: 1;"/><path class="chord" stroke="rgb(31, 112, 31)" fill="#2ca02c" d="M-355.43402346159644,42.786153904053094A358,358,0,0,1,-355.71082700736423,40.420385323954896Q0,0,-307.20630039597484,183.81591061988647Q0,0,-355.43402346159644,42.786153904053094Z" style="opacity: 1;"/><path class="chord" stroke="rgb(159, 83, 136)" fill="#e377c2" d="M-296.9918634367893,-199.89955740907365A358,358,0,0,1,-295.65529122859795,-201.87111920364669Q0,0,-307.20630039597484,183.81591061988647Q0,0,-296.9918634367893,-199.89955740907365Z" style="opacity: 1;"/><path class="chord" stroke="rgb(132, 132, 24)" fill="#bcbd22" d="M-64.02241001464266,-352.22880492077445A358,358,0,0,1,-61.677496790238855,-352.6469713320817Q0,0,-326.00175334829265,147.9420724940642Q0,0,-64.02241001464266,-352.22880492077445Z" style="opacity: 1;"/><path class="chord" stroke="rgb(150, 27, 28)" fill="#d62728" d="M-357.8736046442038,9.51226045501779A358,358,0,0,1,-357.928971839125,7.130996998099169Q0,0,-338.3583278977295,116.95145121909589Q0,0,-357.8736046442038,9.51226045501779Z" style="opacity: 1;"/><path class="chord" stroke="rgb(150, 27, 28)" fill="#d62728" d="M-357.928971839125,7.130996998099169A358,358,0,0,1,-357.96849446548845,4.749417870810977Q0,0,-59.32985326624143,-353.0495269950185Q0,0,-357.928971839125,7.130996998099169Z" style="opacity: 1;"/><path class="chord" stroke="rgb(89, 89, 89)" fill="#7f7f7f" d="M-261.40932033193593,-244.60001480702186A358,358,0,0,1,-259.77612858650275,-246.33384464301452Q0,0,-295.65529122859795,-201.87111920364669Q0,0,-261.40932033193593,-244.60001480702186Z" style="opacity: 1;"/><path class="chord" stroke="rgb(132, 132, 24)" fill="#bcbd22" d="M-61.677496790238855,-352.6469713320817A358,358,0,0,1,-59.32985326624143,-353.0495269950185Q0,0,-14.316181638815424,-357.7136381846301Q0,0,-61.677496790238855,-352.6469713320817Z" style="opacity: 1;"/></g></svg>